<?xml version="1.0" encoding="utf-8"?>
<!-- Generator: Adobe Illustrator 26.1.0, SVG Export Plug-In . SVG Version: 6.00 Build 0)  -->
<svg version="1.1" xmlns="http://www.w3.org/2000/svg" xmlns:xlink="http://www.w3.org/1999/xlink" x="0px" y="0px"
	 viewBox="0 0 2500 1134.6" style="enable-background:new 0 0 2500 1134.6;" xml:space="preserve">
<style type="text/css">
	.st0{fill:#41632B;}
	.st1{fill:#537C37;}
	.st2{fill:#8FBD60;}
	.st3{fill:#84B355;}
	.st4{fill:#62A35E;}
	.st5{fill:#528854;}
	.st6{opacity:0.5;}
	.st7{fill:#57412F;}
	.st8{fill:#645032;}
	.st9{opacity:0.25;}
	.st10{fill:#D96F92;}
	.st11{fill:#FFFFFF;}
	.st12{opacity:0.35;}
	.st13{fill:#6B4D2F;}
	.st14{fill:#E49D2C;}
	.st15{fill:#D4B940;}
	.st16{fill:#F2CF38;}
	.st17{fill:#E9A831;}
	.st18{fill:#DB9333;}
	.st19{fill:#C8AD39;}
	.st20{fill:#E7B338;}
	.st21{fill:#C48423;}
	.st22{fill:#4A3623;}
	.st23{fill:#BF7B38;}
	.st24{fill:#C28950;}
	.st25{fill:#B07527;}
	.st26{fill:#FAF139;}
	.st27{fill:#DF922F;}
	.st28{fill:#7A9F39;}
	.st29{fill:#7A9743;}
	.st30{fill:#719235;}
</style>
<g id="BACKGROUND">
	<g>
		<g>
			<path class="st0" d="M1983.9,673.8c0.2-2.2,0.3-4.5,0.3-6.7c0-45-10.6-76.4-48.6-87.4c-14.2-4.1-42-1.6-60.9,20.6
				c-16.9-24.9-49.8-42.7-79.1-42.7c-29.6,0-58,11-66,43.5c-6-16.4-8.7-28.4-32.8-32.5c-11.4-1.9-36.5,2.7-44,16.7
				c-21.3-31.2-41.3-59.3-78.1-59.3c-39.7,0-87.5,31.4-108.6,66.8c-4.5-19.4-15-34.5-37.2-34.5c-31.8,0-79.4,28.8-93.4,59.5
				c-12.7-33.9-39.6-70.7-73.3-70.7c-30.1,0-58.5,31.9-72.8,60.2c-18.4-31.3-78.9-55.3-113.8-55.3c-36.3,0-57.1,20.7-56.5,59.1
				c-18.4-24.4-27.4-43.6-57.5-43.6c-34.3,0-82.6,23.9-100.8,54.5c-12.8-33.6-54.1-63.8-87.7-63.8c-33.5,0-49.8,30.1-62.6,63.6
				c-17.2-20.1-24.3-32.6-50.6-32.6c-32.2,0-77.4,18.7-94.6,47.4c-15.2-47.3-43-76.5-79.4-76.5c-28.5,0-45.8,19.9-49.3,50.5
				c3.4-23.9-5.1-40.5-28.5-40.5c-24.3,0-68.4,18-76.2,43.2c-1.8-41.8-7.9-68.6-46.5-68.6c-45.7,0-108.7,37.3-133.5,91.2
				c-12.2-31.1-64.6-52.7-95.8-52.7c-42.8,0-52,40.5-52,90.5c0,0.1,0,0.1,0,0.2H1983.9z"/>
		</g>
		<g>
			<path class="st1" d="M1955.2,654.6c-13,0-34.3,5.7-42.3,14.7c0.2-2.1,0.3-4.1,0.3-6.2c0-34.5-13.5-62.4-47.9-62.4
				c-27.6,0-65.3,17.9-73.5,42.8c-6.1-16.8-30.6-22.7-43.5-22.7c-16.2,0-28.1,10.3-31.3,29c-8.4-26.8-14.1-46.2-43.5-46.2
				c-23.2,0-62.5,17.2-74,48.4c-4.8-21.7-46-41.4-66.2-41.4c-27.8,0-36.7,17-46.8,41.1c-9.9-10.9-36.1-17.7-51.9-17.7
				c-20.6,0-26.4,11.6-35.5,28.6c-8.3-19.4-22.2-39.4-41.2-41.7c-12.8-1.6-39.3,10.3-43,20.9c-13.2-22.8-42.4-39.3-80.8-39.3
				c-35.1,0-49.9,25-58.8,57.3c-2.1-0.4-4.3-0.6-6.5-0.6c-7.2,0-14,2.1-19.7,5.6c-7.4-25.1-24-37.9-51.5-37.9
				c-19.2,0-42.8,3.4-53.9,17.4c-7.4-5.2-27.5-8.2-37.2-8.2c-24,0-57.6,22.1-34.4,42h1012.1C1976.8,664.1,1972,654.6,1955.2,654.6z"
				/>
		</g>
		<g>
			<path class="st1" d="M52,654.6c12.2,0,32.3,5.7,39.9,14.7c-0.2-2.1-0.3-4.1-0.3-6.2c0-34.5,12.8-62.4,45.2-62.4
				c26,0,61.6,17.9,69.3,42.8c5.7-16.8,28.8-22.7,41-22.7c15.3,0,26.5,10.3,29.5,29c7.9-26.8,13.3-46.2,41.1-46.2
				c21.9,0,58.9,17.2,69.8,48.4c4.6-21.7,43.4-41.4,62.4-41.4c26.2,0,34.6,17,44.1,41.1c9.3-10.9,34.1-17.7,49-17.7
				c19.4,0,24.9,11.6,33.5,28.6c7.9-19.4,20.9-39.4,38.9-41.7c12.1-1.6,37.1,10.3,40.5,20.9c12.5-22.8,40-39.3,76.2-39.3
				c33.1,0,47.1,25,55.5,57.3c2-0.4,4-0.6,6.1-0.6c6.8,0,13.2,2.1,18.6,5.6c6.9-25.1,22.6-37.9,48.5-37.9c18.1,0,40.4,3.4,50.8,17.4
				c7-5.2,25.9-8.2,35.1-8.2c22.6,0,54.3,22.1,32.5,42H24.8C31.7,664.1,36.2,654.6,52,654.6z"/>
		</g>
	</g>
	<g>
		<g>
			<path class="st2" d="M2499.5,659.2L1.4,664.8L4.7,1133l610.5,4.5c304.2,0,1584-4.5,1884.6-4.5"/>
		</g>
		<g>
			<path class="st3" d="M2472.3,770.9c-16.8-7.9-26-19.4-11.6-28c5.6-3.3,14-5.8,20.7-8.8c27.9-12.3,20.9-32.1-8.3-44
				c-29.2-11.9-75-16.8-118.6-16.5l-2072.3,3.1c-48.6,2.3-82.5,23.9-63.6,40.6c6.2,5.5,26.7,60.4-128.5,51.8
				c-35.9-2-99.7,22.1-99.7,47.2c0,36.7,95.2,63.8,104.3,66.1c83.2,21.2,300.5,55.7,692.6,55.7c253,0,477.8-73.8,600.8-32.9
				c53.3,17.7,254,73.5,504,73.5c283.5,0,513.3-40.7,513.3-90.8c0-14.5-38.6-41.2-31.8-41.6"/>
		</g>
	</g>
	<g>
		<g>
			<path class="st0" d="M2292.3,681.4c0.2-2.2,0.3-4.5,0.3-6.7c0-45-10.6-76.4-48.6-87.4c-14.2-4.1-42-1.6-60.9,20.6
				c-16.9-24.9-49.8-42.7-79.1-42.7c-29.6,0-58,11-66,43.5c-6-16.4-8.7-28.4-32.8-32.5c-11.4-1.9-36.5,2.7-44,16.7
				c-21.3-31.2-41.3-59.3-78.1-59.3c-39.7,0-87.5,31.4-108.6,66.8c-4.5-19.4-15-34.5-37.2-34.5c-31.8,0-79.4,28.8-93.4,59.5
				c-12.7-33.9-39.6-70.7-73.3-70.7c-30.1,0-58.5,31.9-72.8,60.2c-18.4-31.3-78.9-55.3-113.8-55.3c-36.3,0-57.1,20.7-56.5,59.1
				c-18.4-24.4-27.4-43.6-57.5-43.6c-34.3,0-82.6,23.9-100.8,54.5c-12.8-33.6-54.1-63.8-87.7-63.8c-33.5,0-49.8,30.1-62.6,63.6
				c-17.2-20.1-24.3-32.6-50.6-32.6c-32.2,0-77.4,18.7-94.6,47.4c-15.2-47.3-43-76.5-79.4-76.5c-28.5,0-45.8,19.9-49.3,50.5
				c3.4-23.9-5.1-40.5-28.5-40.5c-24.3,0-68.4,18-76.2,43.2c-1.8-41.8-7.9-68.6-46.5-68.6c-45.7,0-108.7,37.3-133.5,91.2
				c-12.2-31.1-64.6-52.7-95.8-52.7c-42.8,0-52,40.5-52,90.5c0,0.1,0,0.1,0,0.2H2292.3z"/>
		</g>
		<g>
			<path class="st1" d="M2263.6,662.2c-13,0-34.3,5.7-42.3,14.7c0.2-2.1,0.3-4.1,0.3-6.2c0-34.5-13.5-62.4-47.9-62.4
				c-27.6,0-65.3,17.9-73.5,42.8c-6.1-16.8-30.6-22.7-43.5-22.7c-16.2,0-28.1,10.3-31.3,29c-8.4-26.8-14.1-46.2-43.5-46.2
				c-23.2,0-62.5,17.2-74,48.4c-4.8-21.7-46-41.4-66.2-41.4c-27.8,0-36.7,17-46.8,41.1c-9.9-10.9-36.1-17.7-51.9-17.7
				c-20.6,0-26.4,11.6-35.5,28.6c-8.3-19.4-22.2-39.4-41.2-41.7c-12.8-1.6-39.3,10.3-43,20.9c-13.2-22.8-42.4-39.3-80.8-39.3
				c-35.1,0-49.9,25-58.8,57.3c-2.1-0.4-4.3-0.6-6.5-0.6c-7.2,0-14,2.1-19.7,5.6c-7.4-25.1-24-37.9-51.5-37.9
				c-19.2,0-42.8,3.4-53.9,17.4c-7.4-5.2-27.5-8.2-37.2-8.2c-24,0-57.6,22.1-34.4,42h1012.1C2285.2,671.7,2280.4,662.2,2263.6,662.2
				z"/>
		</g>
		<g>
			<path class="st1" d="M360.5,662.2c12.2,0,32.3,5.7,39.9,14.7c-0.2-2.1-0.3-4.1-0.3-6.2c0-34.5,12.8-62.4,45.2-62.4
				c26,0,61.6,17.9,69.3,42.8c5.7-16.8,28.8-22.7,41-22.7c15.3,0,26.5,10.3,29.5,29c7.9-26.8,13.3-46.2,41.1-46.2
				c21.9,0,58.9,17.2,69.8,48.4c4.6-21.7,43.4-41.4,62.4-41.4c26.2,0,34.6,17,44.1,41.1c9.3-10.9,34.1-17.7,49-17.7
				c19.4,0,24.9,11.6,33.5,28.6c7.9-19.4,20.9-39.4,38.9-41.7c12.1-1.6,37.1,10.3,40.5,20.9c12.5-22.8,40-39.3,76.2-39.3
				c33.1,0,47.1,25,55.5,57.3c2-0.4,4-0.6,6.1-0.6c6.8,0,13.2,2.1,18.6,5.6c6.9-25.1,22.6-37.9,48.5-37.9c18.1,0,40.4,3.4,50.8,17.4
				c7-5.2,25.9-8.2,35.1-8.2c22.6,0,54.3,22.1,32.5,42H333.2C340.1,671.7,344.7,662.2,360.5,662.2z"/>
		</g>
	</g>
	<g>
		<g>
			<g>
				<g>
					<g>
						<g>
							<polygon class="st4" points="1014.2,227.9 1037.3,227.9 979.9,323.7 1013,323.7 938.3,448.4 995.5,448.4 903.2,602.4 
								1070.4,602.4 1070.4,134.2 							"/>
						</g>
						<g>
							<polygon class="st5" points="1145.3,448.4 1202.5,448.4 1127.8,323.7 1160.9,323.7 1103.5,227.9 1126.6,227.9 1070.4,134.2 
								1070.4,602.4 1237.6,602.4 							"/>
						</g>
					</g>
					<g class="st6">
						<polygon class="st5" points="1037.3,227.9 1103.5,227.9 1030.5,239.4 						"/>
					</g>
					<g class="st6">
						<polygon class="st5" points="1013,323.7 1127.8,323.7 1141.7,346.9 						"/>
					</g>
					<g class="st6">
						<polygon class="st5" points="1145.3,448.4 995.5,448.4 980.8,473 						"/>
					</g>
				</g>
				<g>
					<rect x="1070.4" y="602.4" class="st7" width="28.2" height="108.5"/>
				</g>
				<g>
					<rect x="1042.3" y="602.4" class="st8" width="28.2" height="108.5"/>
				</g>
			</g>
			<g class="st9">
				<g>
					<ellipse class="st2" cx="1070.4" cy="714" rx="174.9" ry="11.6"/>
				</g>
			</g>
		</g>
		<g>
			<g>
				<g>
					<g>
						<g>
							<polygon class="st4" points="123.8,191.8 149,191.8 86.3,296.6 122.5,296.6 40.8,432.9 103.4,432.9 2.5,601.3 185.2,601.3 
								185.2,89.3 							"/>
						</g>
						<g>
							<polygon class="st5" points="267.1,432.9 329.7,432.9 248,296.6 284.2,296.6 221.5,191.8 246.7,191.8 185.2,89.3 
								185.2,601.3 368,601.3 							"/>
						</g>
					</g>
					<g class="st6">
						<polygon class="st5" points="149,191.8 221.5,191.8 141.5,204.3 						"/>
					</g>
					<g class="st6">
						<polygon class="st5" points="122.5,296.6 248,296.6 263.2,321.9 						"/>
					</g>
					<g class="st6">
						<polygon class="st5" points="267.1,432.9 103.4,432.9 87.2,459.8 						"/>
					</g>
				</g>
				<g>
					<rect x="185.2" y="601.3" class="st7" width="30.8" height="118.7"/>
				</g>
				<g>
					<rect x="154.5" y="601.3" class="st8" width="30.8" height="118.7"/>
				</g>
			</g>
			<g class="st9">
				<g>
					<ellipse class="st2" cx="185.2" cy="735.2" rx="201.2" ry="13.4"/>
				</g>
			</g>
		</g>
		<g>
			<g>
				<g>
					<g>
						<g>
							<polygon class="st4" points="1267.4,177.6 1291.2,177.6 1232.1,276.2 1266.2,276.2 1189.3,404.5 1248.2,404.5 1153.2,563.1 
								1325.3,563.1 1325.3,81.1 							"/>
						</g>
						<g>
							<polygon class="st5" points="1402.3,404.5 1461.3,404.5 1384.4,276.2 1418.5,276.2 1359.4,177.6 1383.1,177.6 1325.3,81.1 
								1325.3,563.1 1497.4,563.1 							"/>
						</g>
					</g>
					<g class="st6">
						<polygon class="st5" points="1291.2,177.6 1359.4,177.6 1284.1,189.4 						"/>
					</g>
					<g class="st6">
						<polygon class="st5" points="1266.2,276.2 1384.4,276.2 1398.7,300.1 						"/>
					</g>
					<g class="st6">
						<polygon class="st5" points="1402.3,404.5 1248.2,404.5 1233,429.9 						"/>
					</g>
				</g>
				<g>
					<rect x="1325.3" y="563.1" class="st7" width="29" height="111.7"/>
				</g>
				<g>
					<rect x="1296.3" y="563.1" class="st8" width="29" height="111.7"/>
				</g>
			</g>
			<g class="st9">
				<g>
					<ellipse class="st2" cx="1320.8" cy="686.4" rx="174.9" ry="11.6"/>
				</g>
			</g>
		</g>
		<g>
			<g>
				<g>
					<g>
						<g>
							<polygon class="st4" points="596,292 614.7,292 568.2,369.6 595,369.6 534.5,470.5 580.9,470.5 506.2,595.1 641.5,595.1 
								641.5,216.1 							"/>
						</g>
						<g>
							<polygon class="st5" points="702.1,470.5 748.4,470.5 688,369.6 714.8,369.6 668.3,292 687,292 641.5,216.1 641.5,595.1 
								776.8,595.1 							"/>
						</g>
					</g>
					<g class="st6">
						<polygon class="st5" points="614.7,292 668.3,292 609.1,301.3 						"/>
					</g>
					<g class="st6">
						<polygon class="st5" points="595,369.6 688,369.6 699.2,388.4 						"/>
					</g>
					<g class="st6">
						<polygon class="st5" points="702.1,470.5 580.9,470.5 568.9,490.4 						"/>
					</g>
				</g>
				<g>
					<rect x="641.5" y="595.1" class="st7" width="22.8" height="87.9"/>
				</g>
				<g>
					<rect x="618.7" y="595.1" class="st8" width="22.8" height="87.9"/>
				</g>
			</g>
			<g class="st9">
				<g>
					<ellipse class="st2" cx="643" cy="683" rx="136.8" ry="11.6"/>
				</g>
			</g>
		</g>
	</g>
	<g>
		<g>
			<path class="st0" d="M2359.1,800.9c0.2-2.2,0.3-4.5,0.3-6.7c0-45-10.6-76.4-48.6-87.4c-14.2-4.1-42-1.6-60.9,20.6
				c-16.9-24.9-49.8-42.7-79.1-42.7c-29.6,0-58,11-66,43.5c-6-16.4-8.7-28.4-32.8-32.5c-11.4-1.9-36.5,2.7-44,16.7
				c-21.3-31.2-41.3-59.3-78.1-59.3c-39.7,0-87.5,31.4-108.6,66.8c-4.5-19.4-15-34.5-37.2-34.5c-31.8,0-79.4,28.8-93.4,59.5
				c-12.7-33.9-39.6-70.7-73.3-70.7c-30.1,0-58.5,31.9-72.8,60.2c-18.4-31.3-78.9-55.3-113.8-55.3c-36.3,0-57.1,20.7-56.5,59.1
				c-18.4-24.4-27.4-43.6-57.5-43.6c-34.3,0-82.6,23.9-100.8,54.5c-12.8-33.6-54.1-63.8-87.7-63.8c-33.5,0-49.8,30.1-62.6,63.6
				c-17.2-20.1-24.3-32.6-50.6-32.6c-32.2,0-77.4,18.7-94.6,47.4c-15.2-47.3-43-76.5-79.4-76.5c-28.5,0-45.8,19.9-49.3,50.5
				c3.4-23.9-5.1-40.5-28.5-40.5c-24.3,0-68.4,18-76.2,43.2c-1.8-41.8-7.9-68.6-46.5-68.6c-45.7,0-108.7,37.3-133.5,91.2
				c-12.2-31.1-64.6-52.7-95.8-52.7c-42.8,0-52,40.5-52,90.5c0,0.1,0,0.1,0,0.2H2359.1z"/>
		</g>
		<g>
			<path class="st1" d="M2330.4,781.7c-13,0-34.3,5.7-42.3,14.7c0.2-2.1,0.3-4.1,0.3-6.2c0-34.5-13.5-62.4-47.9-62.4
				c-27.6,0-65.3,17.9-73.5,42.8c-6.1-16.8-30.6-22.7-43.5-22.7c-16.2,0-28.1,10.3-31.3,29c-8.4-26.8-14.1-46.2-43.5-46.2
				c-23.2,0-62.5,17.2-74,48.4c-4.8-21.7-46-41.4-66.2-41.4c-27.8,0-36.7,17-46.8,41.1c-9.9-10.9-36.1-17.7-51.9-17.7
				c-20.6,0-26.4,11.6-35.5,28.6c-8.3-19.4-22.2-39.4-41.2-41.7c-12.8-1.6-39.3,10.3-43,20.9c-13.2-22.8-42.4-39.3-80.8-39.3
				c-35.1,0-49.9,25-58.8,57.3c-2.1-0.4-4.3-0.6-6.5-0.6c-7.2,0-14,2.1-19.7,5.6c-7.4-25.1-24-37.9-51.5-37.9
				c-19.2,0-42.8,3.4-53.9,17.4c-7.4-5.2-27.5-8.2-37.2-8.2c-24,0-57.6,22.1-34.4,42h1012.1C2352,791.2,2347.2,781.7,2330.4,781.7z"
				/>
		</g>
		<g>
			<path class="st1" d="M427.2,781.7c12.2,0,32.3,5.7,39.9,14.7c-0.2-2.1-0.3-4.1-0.3-6.2c0-34.5,12.8-62.4,45.2-62.4
				c26,0,61.6,17.9,69.3,42.8c5.7-16.8,28.8-22.7,41-22.7c15.3,0,26.5,10.3,29.5,29c7.9-26.8,13.3-46.2,41.1-46.2
				c21.9,0,58.9,17.2,69.8,48.4c4.6-21.7,43.4-41.4,62.4-41.4c26.2,0,34.6,17,44.1,41.1c9.3-10.9,34.1-17.7,49-17.7
				c19.4,0,24.9,11.6,33.5,28.6c7.9-19.4,20.9-39.4,38.9-41.7c12.1-1.6,37.1,10.3,40.5,20.9c12.5-22.8,40-39.3,76.2-39.3
				c33.1,0,47.1,25,55.5,57.3c2-0.4,4-0.6,6.1-0.6c6.8,0,13.2,2.1,18.6,5.6c6.9-25.1,22.6-37.9,48.5-37.9c18.1,0,40.4,3.4,50.8,17.4
				c7-5.2,25.9-8.2,35.1-8.2c22.6,0,54.3,22.1,32.5,42H400C406.9,791.2,411.4,781.7,427.2,781.7z"/>
		</g>
	</g>
	<g>
		<g>
			<g>
				<path class="st10" d="M470,667.6c6.7,2.5,7.1,6.4,5.5,10.5c-1.6,4.2-7.3,6.2-11.2,4c2.6,2.9,4.6,7.3,2.5,10.7
					c-1.8,3-6.3,3.5-9.4,1.8c-3.1-1.7-3.7-6-4.9-9.3c1.5,4.1-2.1,10.2-6.2,11.7c-4.1,1.5-9.2-1-10.5-5.1s1.2-9.1,5.3-10.4
					c-3.3,0.6-7.1,0.1-9.6-2.2c-2.5-2.3-3.3-6.5-1.3-9.2c2.1-2.8,6.3-3.1,9.7-2.2c3.4,0.9,4.3,2.2,7.8,2.6c-2-4-0.2-14.5,4.3-16.3
					c2.3-0.9,4.9,0.7,6.4,2.7c3,3.7,2.3,8.3,1.8,13C460.3,669.8,466.4,666.3,470,667.6z"/>
			</g>
			<g>
				<path class="st11" d="M457,677.4c0,1.8-1.5,3.3-3.3,3.3c-1.8,0-3.3-1.5-3.3-3.3c0-1.8,1.5-3.3,3.3-3.3
					C455.5,674,457,675.5,457,677.4z"/>
			</g>
		</g>
		<g>
			<g>
				<path class="st10" d="M690.9,665.7c4.2,1.6,4.5,4,3.5,6.7s-4.6,3.9-7.1,2.6c1.6,1.9,2.9,4.6,1.6,6.8c-1.2,1.9-4,2.2-6,1.2
					s-2.4-3.8-3.1-5.9c1,2.6-1.3,6.5-3.9,7.4c-2.6,0.9-5.8-0.6-6.7-3.2c-0.9-2.6,0.7-5.8,3.4-6.6c-2.1,0.4-4.5,0-6.1-1.4
					c-1.6-1.5-2.1-4.1-0.8-5.8c1.4-1.8,4-2,6.2-1.4c2.2,0.6,2.7,1.4,4.9,1.6c-1.2-2.5-0.1-9.2,2.7-10.4c1.5-0.6,3.1,0.5,4.1,1.7
					c1.9,2.3,1.4,5.2,1.2,8.3C684.7,667.1,688.6,664.8,690.9,665.7z"/>
			</g>
			<g>
				<path class="st11" d="M682.6,671.9c0,1.2-0.9,2.1-2.1,2.1c-1.2,0-2.1-0.9-2.1-2.1c0-1.2,0.9-2.1,2.1-2.1
					C681.6,669.7,682.6,670.7,682.6,671.9z"/>
			</g>
		</g>
		<g>
			<g>
				<path class="st10" d="M2187.6,659.1c1,0,3.3,1.2,4,2c2.8,2.9,1.8,9.2,0.3,11.8c-1.5,2.5-4.3,4.5-7.2,4.3c2.8,1,5,3.3,6,6.1
					c0.4,1.2,0.6,2.5,0.3,3.8c-0.7,3.5-4.9,5.6-8.4,4.7c-3.5-0.9-6-4.2-6.8-7.7c0.4,2.2,0.9,4.4,0.5,6.5c-0.3,2.2-1.6,4.4-3.6,5.2
					c-2.6,1-5.7-0.4-7.2-2.8c-1.5-2.3-1.7-5.3-1.4-8.1c-1.3,2.6-4,4.7-6.9,4.8c-2.9,0.1-5.9-2.3-5.9-5.3c0-1.8,1-3.5,2.3-4.8
					c2.4-2.5,5.8-4,9.2-4.2c-4,0.1-7.8-3.1-8.4-7.1c-0.7-3.9,1.6-8.1,5.2-9.9c3.6-1.8,8.1-1.2,11.3,1.2c2.8,2.1,4.5,5.6,4.5,9.1
					C2175.3,668.9,2180.5,658.8,2187.6,659.1z"/>
			</g>
			<g>
				<path class="st11" d="M2176.3,676.8c0,2.2-1.8,4-4,4c-2.2,0-4-1.8-4-4c0-2.2,1.8-4,4-4C2174.5,672.8,2176.3,674.6,2176.3,676.8z
					"/>
			</g>
		</g>
		<g>
			<g>
				<path class="st10" d="M1917.9,680c-0.5,0-1.6-0.6-2-1c-1.4-1.4-0.9-4.6-0.2-5.9c0.8-1.3,2.1-2.2,3.6-2.1c-1.4-0.5-2.5-1.7-3-3.1
					c-0.2-0.6-0.3-1.3-0.2-1.9c0.4-1.8,2.5-2.8,4.2-2.3c1.7,0.5,3,2.1,3.4,3.8c-0.2-1.1-0.4-2.2-0.3-3.3c0.2-1.1,0.8-2.2,1.8-2.6
					c1.3-0.5,2.8,0.2,3.6,1.4c0.7,1.2,0.8,2.6,0.7,4c0.7-1.3,2-2.4,3.5-2.4c1.5,0,3,1.2,3,2.6c0,0.9-0.5,1.7-1.1,2.4
					c-1.2,1.3-2.9,2-4.6,2.1c2-0.1,3.9,1.6,4.2,3.5c0.3,2-0.8,4.1-2.6,5c-1.8,0.9-4.1,0.6-5.7-0.6c-1.4-1.1-2.3-2.8-2.2-4.6
					C1924,675.1,1921.4,680.1,1917.9,680z"/>
			</g>
			<g>
				<circle class="st11" cx="1925.5" cy="671.1" r="2"/>
			</g>
		</g>
		<g>
			<g>
				<path class="st10" d="M1061.5,659.8c1.4-0.2,2.9,0.4,3.8,1.5c0.5,0.7,0.8,1.6,0.9,2.4c0.2,2.4-0.6,4.8-2.3,6.6
					c-1.7,1.7-4.1,2.6-6.5,2.4c4.3,2,8.3,8.2,5.3,11.9c-3.2,4-9.1,2.2-11.2,1.1c-2.1-1.2-3.9-3.4-3.8-5.8c-1.4,3.9-6.2,5.8-10.2,4.8
					c-0.7-0.1-1.3-0.4-1.8-0.8c-0.5-0.4-0.8-0.8-1.1-1.4c-1.3-2.4-0.8-5.6,0.9-7.8c1.7-2.2,4.4-3.4,7.2-3.5c-1.4-2.1-2.3-4.5-2.6-7
					c-0.2-2,0.1-4.2,1.5-5.6c2.1-2.1,6-1.3,8,0.9s2.5,5.4,2.5,8.4C1052,668,1055.3,660.8,1061.5,659.8z"/>
			</g>
			<g>
				<path class="st11" d="M1053.2,674.2c0,1.6-1.3,2.8-2.8,2.8c-1.6,0-2.8-1.3-2.8-2.8c0-1.6,1.3-2.8,2.8-2.8
					C1052,671.4,1053.2,672.6,1053.2,674.2z"/>
			</g>
		</g>
		<g>
			<g>
				<path class="st10" d="M1589.8,671.1c0.2,1.4-0.4,2.9-1.5,3.8c-0.7,0.5-1.6,0.8-2.4,0.9c-2.4,0.2-4.8-0.6-6.6-2.3
					c-1.7-1.7-2.6-4.1-2.4-6.5c-2,4.3-8.2,8.3-11.9,5.3c-4-3.2-2.2-9.1-1.1-11.2c1.2-2.1,3.4-3.9,5.8-3.8c-3.9-1.4-5.8-6.2-4.8-10.2
					c0.1-0.7,0.4-1.3,0.8-1.8c0.4-0.5,0.8-0.8,1.4-1.1c2.4-1.3,5.6-0.8,7.8,0.9s3.4,4.4,3.5,7.2c2.1-1.4,4.5-2.3,7-2.6
					c2-0.2,4.2,0.1,5.6,1.5c2.1,2.1,1.3,6-0.9,8c-2.2,2-5.4,2.5-8.4,2.5C1581.5,661.6,1588.8,664.9,1589.8,671.1z"/>
			</g>
			<g>
				<path class="st11" d="M1575.4,662.8c-1.6,0-2.8-1.3-2.8-2.8c0-1.6,1.3-2.8,2.8-2.8s2.8,1.3,2.8,2.8
					C1578.2,661.6,1576.9,662.8,1575.4,662.8z"/>
			</g>
		</g>
	</g>
	<g>
		<g>
			<g class="st12">
				<g>
					<ellipse class="st2" cx="677.4" cy="918.5" rx="393.7" ry="18"/>
				</g>
			</g>
			<g>
				<g>
					<polygon class="st13" points="669.5,722.4 614.3,910.9 724.6,910.9 					"/>
				</g>
				<g>
					<path class="st14" d="M669.5,640.8c0,0-82.1,245.2-164.2,270.1h111.1c0,0,46.4-98.3,53.1-139.9V640.8z"/>
				</g>
				<g>
					<path class="st15" d="M669.5,771c0,0-5.5,107.9-26.8,139.9h-55.3C587.4,910.9,652.9,824.5,669.5,771z"/>
				</g>
				<g>
					<path class="st16" d="M669.5,771c0,0-5,107.9-24,139.9h-49.8C595.7,910.9,654.6,824.5,669.5,771z"/>
				</g>
				<g>
					<path class="st17" d="M669.5,653.5V565c0,0-188.3,345.9-284.4,345.9h120.2C505.3,910.9,572.5,917.7,669.5,653.5z"/>
				</g>
				<g>
					<path class="st18" d="M669.5,640.8c0,0,82.1,245.2,164.2,270.1H722.6c0,0-46.4-98.3-53.1-139.9V640.8z"/>
				</g>
				<g>
					<path class="st19" d="M669.5,771c0,0,5.5,107.9,26.8,139.9h55.3C751.6,910.9,686.1,824.5,669.5,771z"/>
				</g>
				<g>
					<path class="st20" d="M669.5,771c0,0,5,107.9,24,139.9h49.8C743.3,910.9,684.4,824.5,669.5,771z"/>
				</g>
				<g>
					<path class="st21" d="M669.5,653.5V565c0,0,188.3,345.9,284.4,345.9H833.7C833.7,910.9,766.5,917.7,669.5,653.5z"/>
				</g>
				<g>
					<path class="st13" d="M330.3,910.9c0,0,233-165.2,339.2-345.9v-2.6c0,0-25.7,46-80.6,108.7c-88.5,101.2-229.6,223-273.5,239.9
						L330.3,910.9z"/>
				</g>
				<g>
					<path class="st13" d="M1008.7,910.9c0,0-233-165.2-339.2-345.9v-2.6c0,0,25.7,46,80.6,108.7c88.5,101.2,229.6,223,273.5,239.9
						L1008.7,910.9z"/>
				</g>
				<g>
					<g>
						<path class="st13" d="M459.1,913.9c-0.5,0-1.1-0.1-1.6-0.4c-1.4-0.9-1.8-2.7-1-4.1L686,536.2c0.9-1.4,2.7-1.8,4.1-1
							c1.4,0.9,1.8,2.7,1,4.1L461.6,912.5C461,913.4,460.1,913.9,459.1,913.9z"/>
					</g>
					<g>
						<path class="st13" d="M879.3,913.9c-1,0-2-0.5-2.6-1.4L647.3,539.4c-0.9-1.4-0.4-3.2,1-4.1c1.4-0.9,3.2-0.4,4.1,1l229.5,373.2
							c0.9,1.4,0.4,3.2-1,4.1C880.4,913.8,879.9,913.9,879.3,913.9z"/>
					</g>
				</g>
				<g>
					<rect x="304.2" y="910.3" class="st13" width="730.6" height="7.8"/>
				</g>
			</g>
		</g>
		<g>
			<g class="st12">
				<g>
					<ellipse class="st2" cx="1843.2" cy="918.5" rx="393.7" ry="18"/>
				</g>
			</g>
			<g>
				<g>
					<polygon class="st13" points="1851.9,722.4 1796.8,910.9 1907.1,910.9 					"/>
				</g>
				<g>
					<path class="st14" d="M1851.9,640.8c0,0-82.1,245.2-164.2,270.1h111.1c0,0,46.4-98.3,53.1-139.9V640.8z"/>
				</g>
				<g>
					<path class="st15" d="M1851.9,771c0,0-5.5,107.9-26.8,139.9h-55.3C1769.8,910.9,1835.3,824.5,1851.9,771z"/>
				</g>
				<g>
					<path class="st16" d="M1851.9,771c0,0-5,107.9-24,139.9h-49.8C1778.1,910.9,1837,824.5,1851.9,771z"/>
				</g>
				<g>
					<path class="st17" d="M1851.9,653.5V565c0,0-188.3,345.9-284.4,345.9h120.2C1687.7,910.9,1754.9,917.7,1851.9,653.5z"/>
				</g>
				<g>
					<path class="st18" d="M1851.9,640.8c0,0,82.1,245.2,164.2,270.1H1905c0,0-46.4-98.3-53.1-139.9V640.8z"/>
				</g>
				<g>
					<path class="st19" d="M1851.9,771c0,0,5.5,107.9,26.8,139.9h55.3C1934,910.9,1868.5,824.5,1851.9,771z"/>
				</g>
				<g>
					<path class="st20" d="M1851.9,771c0,0,5,107.9,24,139.9h49.8C1925.7,910.9,1866.9,824.5,1851.9,771z"/>
				</g>
				<g>
					<path class="st21" d="M1851.9,653.5V565c0,0,188.3,345.9,284.4,345.9h-120.2C2016.1,910.9,1949,917.7,1851.9,653.5z"/>
				</g>
				<g>
					<path class="st13" d="M1512.8,910.9c0,0,233-165.2,339.2-345.9v-2.6c0,0-25.7,46-80.6,108.7c-88.5,101.2-229.6,223-273.5,239.9
						L1512.8,910.9z"/>
				</g>
				<g>
					<path class="st13" d="M2191.1,910.9c0,0-233-165.2-339.2-345.9v-2.6c0,0,25.7,46,80.6,108.7c88.5,101.2,229.6,223,273.5,239.9
						L2191.1,910.9z"/>
				</g>
				<g>
					<g>
						<path class="st13" d="M1641.5,913.9c-0.5,0-1.1-0.1-1.6-0.4c-1.4-0.9-1.8-2.7-1-4.1l229.5-373.2c0.9-1.4,2.7-1.8,4.1-1
							c1.4,0.9,1.8,2.7,1,4.1L1644,912.5C1643.5,913.4,1642.5,913.9,1641.5,913.9z"/>
					</g>
					<g>
						<path class="st13" d="M2061.8,913.9c-1,0-2-0.5-2.6-1.4l-229.5-373.2c-0.9-1.4-0.4-3.2,1-4.1c1.4-0.9,3.2-0.4,4.1,1
							l229.5,373.2c0.9,1.4,0.4,3.2-1,4.1C2062.9,913.8,2062.3,913.9,2061.8,913.9z"/>
					</g>
				</g>
				<g>
					<rect x="1486.6" y="910.3" class="st13" width="730.6" height="7.8"/>
				</g>
			</g>
		</g>
	</g>
	<g>
		<g class="st12">
			<g>
				<ellipse class="st2" cx="1267.7" cy="907.9" rx="196.9" ry="18"/>
			</g>
		</g>
		<g>
			<g>
				<g>
					<rect x="1127.1" y="869" class="st22" width="283.6" height="34.3"/>
				</g>
				<g>
					<g>
						<path class="st23" d="M1165.1,903.3c-2-20.5-19.3-36.5-40.4-36.5s-38.3,16-40.4,36.5H1165.1z"/>
					</g>
					<g>
						<g>
							<path class="st22" d="M1098.8,901.2c1-10.2,10.2-18.2,19.8-20.6c13.6-3.4,30.1,6.8,30.8,21.4c0.1,1.1,1.8,1.1,1.7,0
								c-0.8-15.1-16.7-25.5-30.9-23.5c-11.3,1.6-22.1,11.1-23.2,22.6C1097,902.3,1098.7,902.3,1098.8,901.2L1098.8,901.2z"/>
						</g>
					</g>
					<g>
						<g>
							<path class="st22" d="M1110.1,901.5c3.1-4.7,8-8.7,13.9-9.1c7.4-0.5,13.9,2.6,16.7,9.7c0.3,0.9,1.8,0.5,1.4-0.4
								c-2.9-7.3-9-10.8-16.8-10.8c-7,0-12.7,4.2-16.4,9.9C1108.3,901.5,1109.6,902.3,1110.1,901.5L1110.1,901.5z"/>
						</g>
					</g>
				</g>
				<g>
					<g>
						<path class="st23" d="M1451.1,903.3c-2-20.5-19.3-36.5-40.4-36.5c-21,0-38.3,16-40.4,36.5H1451.1z"/>
					</g>
					<g>
						<g>
							<path class="st22" d="M1384.8,901.2c1-10.2,10.2-18.2,19.8-20.6c13.6-3.4,30.1,6.8,30.8,21.4c0.1,1.1,1.8,1.1,1.7,0
								c-0.8-15.1-16.7-25.5-30.9-23.5c-11.3,1.6-22.1,11.1-23.2,22.6C1383,902.3,1384.7,902.3,1384.8,901.2L1384.8,901.2z"/>
						</g>
					</g>
					<g>
						<g>
							<path class="st22" d="M1396.1,901.5c3.1-4.7,8-8.7,13.9-9.1c7.4-0.5,13.9,2.6,16.7,9.7c0.3,0.9,1.8,0.5,1.4-0.4
								c-2.9-7.3-9-10.8-16.8-10.8c-7,0-12.7,4.2-16.4,9.9C1394.4,901.5,1395.6,902.3,1396.1,901.5L1396.1,901.5z"/>
						</g>
					</g>
				</g>
			</g>
			<g>
				<g>
					<rect x="1179.8" y="889.3" class="st13" width="177.5" height="25"/>
				</g>
				<g>
					<g>
						<path class="st24" d="M1207.5,914.3c-1.5-15-14.1-26.6-29.5-26.6s-28,11.7-29.5,26.6H1207.5z"/>
					</g>
					<g>
						<g>
							<path class="st13" d="M1159.2,912.8c2.2-20.1,35.5-20.2,37,0.6c0.1,0.8,1.3,0.8,1.2,0c-1.6-22.4-37.1-22.4-39.5-0.6
								C1157.8,913.6,1159.1,913.6,1159.2,912.8L1159.2,912.8z"/>
						</g>
					</g>
					<g>
						<g>
							<path class="st13" d="M1167.4,913c5.3-8,18.2-9.8,22.3,0.4c0.3,0.6,1.3,0.4,1-0.3c-4.5-11-18.4-9.5-24.3-0.7
								C1166.1,913,1167,913.5,1167.4,913L1167.4,913z"/>
						</g>
					</g>
				</g>
				<g>
					<g>
						<path class="st24" d="M1386.8,914.3c-1.5-15-14.1-26.6-29.5-26.6c-15.3,0-28,11.7-29.5,26.6H1386.8z"/>
					</g>
					<g>
						<g>
							<path class="st13" d="M1338.5,912.8c2.2-20.1,35.5-20.2,37,0.6c0.1,0.8,1.3,0.8,1.2,0c-1.6-22.4-37.1-22.4-39.5-0.6
								C1337.1,913.6,1338.4,913.6,1338.5,912.8L1338.5,912.8z"/>
						</g>
					</g>
					<g>
						<g>
							<path class="st13" d="M1346.7,913c5.3-8,18.2-9.8,22.3,0.4c0.3,0.6,1.3,0.4,1-0.3c-4.5-11-18.4-9.5-24.3-0.7
								C1345.4,913,1346.3,913.5,1346.7,913L1346.7,913z"/>
						</g>
					</g>
				</g>
			</g>
			<g>
				<path class="st25" d="M1196.8,869c-2.8,0.8-5.6,6.2-5.3,9c0.3,2.9,2.9,5.3,5.8,5.4c2.9,0.1,5.4-1.7,8-3c2.6-1.3,6-2,8,0.1
					c1.5,1.5,1.6,4,2.5,5.9c1.9,3.9,7,4.9,11.3,4.9c4.3-0.1,9-0.7,12.8,1.4c5.3,3,6.5,10.1,10.8,14.4c4.4,4.4,11.1,5.1,17.3,5.2
					c8.2,0.1,17.3-0.9,22.5-7.2c4.4-5.3,5.6-14,12.1-16.1c4-1.3,8.2,0.7,12.3,1.7c4.1,1.1,9.4,0.7,11.1-3.1c0.7-1.5,0.6-3.2,1-4.7
					c1.2-4.8,7.4-11.9,11.8-14H1196.8z"/>
			</g>
			<g>
				<path class="st26" d="M1269.8,885.4c29.1,0,58.2-17.6,67.5-45.2c4.6-13.8,4-30.6-6.3-40.9c6.9,6.9,3.7,20.8-5.6,23.8
					c-9.3,3-20.1-6.3-18.6-15.9c1.3-8,9.2-13.3,12-20.9c7.4-20.1,2.9-39.2-3.2-49.7c-8-13.7-24.7-19.8-40.5-21.8
					c14.8,9.3,16.9,36.3,8.1,52.2c-7.2,13-23.8,17.9-30.4,5.4c-5.4-10.2-0.8-25.4,9.6-30.4c-9,2.8-17.8,7.1-24,14.1
					c-6.2,7-9.4,17.3-6.2,26.1c2,5.6,6.4,10.1,9.1,15.5c3.3,6.3,4.2,14.4,0.6,20.6c-3.5,6.2-12.2,9.5-18.4,5.9
					c-10.8-6.4-6.5-26.4-17.8-32c5.2,5.9,5.8,14.7,4.6,22.5c-1.2,7.8-4,15.4-4.5,23.2C1204.6,860.1,1232.3,885.4,1269.8,885.4z"/>
			</g>
			<g>
				<path class="st27" d="M1274.5,878.1c-41.5,0-52.2-31-52.2-31s34.5,11.7,40.8-14.4c3.9-16-12.7-26.7-11.3-41
					c7.4,21.4,30.3,13.7,41.3-8.6c5.5,13.7-15.8,18.6-7.4,41.5c6.2,17,24.1,16.7,31.5,11.2C1316.8,845.6,1306.2,878.1,1274.5,878.1z
					"/>
			</g>
			<g>
				<circle class="st26" cx="1228.4" cy="802.9" r="2.8"/>
			</g>
			<g>
				<path class="st26" d="M1269.7,754c0,1.3-1,2.3-2.3,2.3s-2.3-1-2.3-2.3c0-1.3,1-2.3,2.3-2.3S1269.7,752.8,1269.7,754z"/>
			</g>
			<g>
				<path class="st26" d="M1324.3,809.4c0,2-1.6,3.6-3.6,3.6c-2,0-3.6-1.6-3.6-3.6c0-2,1.6-3.6,3.6-3.6
					C1322.7,805.8,1324.3,807.4,1324.3,809.4z"/>
			</g>
			<g>
				<circle class="st26" cx="1201.9" cy="805.2" r="5.1"/>
			</g>
			<g>
				<path class="st26" d="M1344.5,763c0,3.7-3,6.7-6.7,6.7c-3.7,0-6.7-3-6.7-6.7c0-3.7,3-6.7,6.7-6.7
					C1341.5,756.3,1344.5,759.3,1344.5,763z"/>
			</g>
		</g>
	</g>
	<g>
		<g>
			<g>
				<path class="st28" d="M827.3,942c0,0-41.7-15.4-26.2-31.7c15.5-16.3,35.7,31.7,35.7,31.7H827.3z"/>
			</g>
			<g>
				<path class="st29" d="M845.7,942c0,0,35.2-30,24.7-57.1c-10.5-27.1-33.3,57.1-33.3,57.1H845.7z"/>
			</g>
			<g>
				<path class="st30" d="M833.7,942c0,0-18.3-56.1,0-56.1c23.2,0,8.6,56.1,8.6,56.1H833.7z"/>
			</g>
		</g>
		<g>
			<g>
				<path class="st28" d="M1880.7,969.3c0,0,45.6-16.8,28.7-34.7c-17-17.9-39.1,34.7-39.1,34.7H1880.7z"/>
			</g>
			<g>
				<path class="st29" d="M1860.6,969.3c0,0-38.5-32.8-27-62.4c11.5-29.6,36.4,62.4,36.4,62.4H1860.6z"/>
			</g>
			<g>
				<path class="st30" d="M1873.8,969.3c0,0,20-61.4,0-61.4c-25.4,0-9.4,61.4-9.4,61.4H1873.8z"/>
			</g>
		</g>
		<g>
			<g>
				<path class="st28" d="M314.9,828.6c0,0-34.8-12.9-21.9-26.5c12.9-13.6,29.8,26.5,29.8,26.5H314.9z"/>
			</g>
			<g>
				<path class="st29" d="M330.2,828.6c0,0,29.3-25,20.6-47.6c-8.8-22.6-27.8,47.6-27.8,47.6H330.2z"/>
			</g>
			<g>
				<path class="st30" d="M320.2,828.6c0,0-15.3-46.8,0-46.8c19.4,0,7.2,46.8,7.2,46.8H320.2z"/>
			</g>
		</g>
		<g>
			<g>
				<path class="st28" d="M1553.9,956.9c0,0-31.8-11.7-20-24.2s27.2,24.2,27.2,24.2H1553.9z"/>
			</g>
			<g>
				<path class="st29" d="M1567.9,956.9c0,0,26.8-22.9,18.8-43.5c-8-20.7-25.4,43.5-25.4,43.5H1567.9z"/>
			</g>
			<g>
				<path class="st30" d="M1558.7,956.9c0,0-14-42.8,0-42.8c17.7,0,6.6,42.8,6.6,42.8H1558.7z"/>
			</g>
		</g>
		<g>
			<g>
				<path class="st28" d="M1041.7,786.9c0,0-31.8-11.7-20-24.2c11.8-12.5,27.2,24.2,27.2,24.2H1041.7z"/>
			</g>
			<g>
				<path class="st29" d="M1055.7,786.9c0,0,26.8-22.9,18.8-43.5c-8-20.7-25.4,43.5-25.4,43.5H1055.7z"/>
			</g>
			<g>
				<path class="st30" d="M1046.5,786.9c0,0-14-42.8,0-42.8c17.7,0,6.6,42.8,6.6,42.8H1046.5z"/>
			</g>
		</g>
		<g>
			<g>
				<path class="st28" d="M568.9,950.6c0,0,40.9-46,24.2-58c-16.8-12-32.9,58-32.9,58H568.9z"/>
			</g>
			<g>
				<path class="st29" d="M552.5,950.6c0,0-38.5-18.4-27-35.1c11.5-16.7,36.4,35.1,36.4,35.1H552.5z"/>
			</g>
			<g>
				<path class="st30" d="M562.7,950.6c0,0,20-61.4,0-61.4c-25.4,0-9.4,61.4-9.4,61.4H562.7z"/>
			</g>
		</g>
		<g>
			<g>
				<path class="st28" d="M2278.4,835.9c0,0,40.9-46,24.2-58c-16.8-12-32.9,58-32.9,58H2278.4z"/>
			</g>
			<g>
				<path class="st29" d="M2262,835.9c0,0-38.5-18.4-27-35.1s36.4,35.1,36.4,35.1H2262z"/>
			</g>
			<g>
				<path class="st30" d="M2272.2,835.9c0,0,20-61.4,0-61.4c-25.4,0-9.4,61.4-9.4,61.4H2272.2z"/>
			</g>
		</g>
	</g>
	<g>
		<g>
			<g>
				<g>
					<g>
						<g>
							<polygon class="st4" points="884.2,246.4 861.1,246.4 918.5,342.2 885.4,342.2 960.1,466.9 902.8,466.9 995.1,620.9 
								828,620.9 828,152.7 							"/>
						</g>
						<g>
							<polygon class="st5" points="753.1,466.9 695.8,466.9 770.5,342.2 737.4,342.2 794.8,246.4 771.7,246.4 828,152.7 828,620.9 
								660.8,620.9 							"/>
						</g>
					</g>
					<g class="st6">
						<polygon class="st5" points="861.1,246.4 794.8,246.4 867.9,257.9 						"/>
					</g>
					<g class="st6">
						<polygon class="st5" points="885.4,342.2 770.5,342.2 756.6,365.4 						"/>
					</g>
					<g class="st6">
						<polygon class="st5" points="753.1,466.9 902.8,466.9 917.6,491.5 						"/>
					</g>
				</g>
				<g>
					
						<rect x="799.8" y="620.9" transform="matrix(-1 -4.496771e-11 4.496771e-11 -1 1627.7487 1350.2942)" class="st7" width="28.2" height="108.5"/>
				</g>
				<g>
					
						<rect x="828" y="620.9" transform="matrix(-1 -4.483848e-11 4.483848e-11 -1 1684.0565 1350.2942)" class="st8" width="28.2" height="108.5"/>
				</g>
			</g>
			<g class="st9">
				<g>
					<ellipse class="st2" cx="828" cy="732.5" rx="174.9" ry="11.6"/>
				</g>
			</g>
		</g>
		<g>
			<g>
				<g>
					<g>
						<g>
							<polygon class="st4" points="1802.6,191.3 1777.3,191.3 1840.1,296 1803.9,296 1885.6,432.3 1823,432.3 1923.9,600.7 
								1741.1,600.7 1741.1,88.8 							"/>
						</g>
						<g>
							<polygon class="st5" points="1659.2,432.3 1596.6,432.3 1678.3,296 1642.1,296 1704.9,191.3 1679.6,191.3 1741.1,88.8 
								1741.1,600.7 1558.3,600.7 							"/>
						</g>
					</g>
					<g class="st6">
						<polygon class="st5" points="1777.3,191.3 1704.9,191.3 1784.8,203.8 						"/>
					</g>
					<g class="st6">
						<polygon class="st5" points="1803.9,296 1678.3,296 1663.1,321.4 						"/>
					</g>
					<g class="st6">
						<polygon class="st5" points="1659.2,432.3 1823,432.3 1839.1,459.3 						"/>
					</g>
				</g>
				<g>
					
						<rect x="1710.3" y="600.7" transform="matrix(-1 -4.490731e-11 4.490731e-11 -1 3451.4104 1320.1184)" class="st7" width="30.8" height="118.7"/>
				</g>
				<g>
					
						<rect x="1741.1" y="600.7" transform="matrix(-1 -4.490731e-11 4.490731e-11 -1 3512.979 1320.1184)" class="st8" width="30.8" height="118.7"/>
				</g>
			</g>
			<g class="st9">
				<g>
					<ellipse class="st2" cx="1741.1" cy="734.7" rx="201.2" ry="13.4"/>
				</g>
			</g>
		</g>
		<g>
			<g>
				<g>
					<g>
						<g>
							<polygon class="st4" points="463.6,185.3 439.9,185.3 499,283.9 464.9,283.9 541.8,412.2 482.8,412.2 577.9,570.7 
								405.8,570.7 405.8,88.8 							"/>
						</g>
						<g>
							<polygon class="st5" points="328.7,412.2 269.7,412.2 346.7,283.9 312.6,283.9 371.7,185.3 347.9,185.3 405.8,88.8 
								405.8,570.7 233.7,570.7 							"/>
						</g>
					</g>
					<g class="st6">
						<polygon class="st5" points="439.9,185.3 371.7,185.3 446.9,197.1 						"/>
					</g>
					<g class="st6">
						<polygon class="st5" points="464.9,283.9 346.7,283.9 332.3,307.8 						"/>
					</g>
					<g class="st6">
						<polygon class="st5" points="328.7,412.2 482.8,412.2 498,437.6 						"/>
					</g>
				</g>
				<g>
					
						<rect x="376.8" y="570.7" transform="matrix(-1 -4.493884e-11 4.493884e-11 -1 782.5482 1253.2097)" class="st7" width="29" height="111.7"/>
				</g>
				<g>
					
						<rect x="405.8" y="570.7" transform="matrix(-1 -4.481316e-11 4.481316e-11 -1 840.5115 1253.2097)" class="st8" width="29" height="111.7"/>
				</g>
			</g>
			<g class="st9">
				<g>
					<ellipse class="st2" cx="410.2" cy="694.1" rx="174.9" ry="11.6"/>
				</g>
			</g>
		</g>
	</g>
	<g>
		<g>
			<g>
				<g>
					<g>
						<g>
							<polygon class="st4" points="890.5,256.2 915.8,256.2 853,360.9 889.2,360.9 807.5,497.2 870.1,497.2 769.2,665.6 952,665.6 
								952,153.7 							"/>
						</g>
						<g>
							<polygon class="st5" points="1033.8,497.2 1096.4,497.2 1014.7,360.9 1051,360.9 988.2,256.2 1013.4,256.2 952,153.7 
								952,665.6 1134.8,665.6 							"/>
						</g>
					</g>
					<g class="st6">
						<polygon class="st5" points="915.8,256.2 988.2,256.2 908.3,268.7 						"/>
					</g>
					<g class="st6">
						<polygon class="st5" points="889.2,360.9 1014.7,360.9 1030,386.3 						"/>
					</g>
					<g class="st6">
						<polygon class="st5" points="1033.8,497.2 870.1,497.2 854,524.2 						"/>
					</g>
				</g>
				<g>
					<rect x="952" y="665.6" class="st7" width="30.8" height="118.7"/>
				</g>
				<g>
					<rect x="921.2" y="665.6" class="st8" width="30.8" height="118.7"/>
				</g>
			</g>
			<g class="st9">
				<g>
					<ellipse class="st2" cx="952" cy="799.6" rx="201.2" ry="13.4"/>
				</g>
			</g>
		</g>
		<g>
			<g>
				<g>
					<g>
						<g>
							<polygon class="st4" points="1954.1,242 1977.9,242 1918.8,340.6 1952.9,340.6 1876,468.9 1934.9,468.9 1839.9,627.4 
								2012,627.4 2012,145.4 							"/>
						</g>
						<g>
							<polygon class="st5" points="2089.1,468.9 2148,468.9 2071.1,340.6 2105.2,340.6 2046.1,242 2069.9,242 2012,145.4 
								2012,627.4 2184.1,627.4 							"/>
						</g>
					</g>
					<g class="st6">
						<polygon class="st5" points="1977.9,242 2046.1,242 1970.9,253.7 						"/>
					</g>
					<g class="st6">
						<polygon class="st5" points="1952.9,340.6 2071.1,340.6 2085.4,364.4 						"/>
					</g>
					<g class="st6">
						<polygon class="st5" points="2089.1,468.9 1934.9,468.9 1919.7,494.2 						"/>
					</g>
				</g>
				<g>
					<rect x="2012" y="627.4" class="st7" width="29" height="111.7"/>
				</g>
				<g>
					<rect x="1983" y="627.4" class="st8" width="29" height="111.7"/>
				</g>
			</g>
			<g class="st9">
				<g>
					<ellipse class="st2" cx="2007.5" cy="750.8" rx="174.9" ry="11.6"/>
				</g>
			</g>
		</g>
	</g>
	<g>
		<g>
			<g>
				<g>
					<g>
						<g>
							<polygon class="st4" points="1570.9,310.8 1547.8,310.8 1605.2,406.6 1572.1,406.6 1646.8,531.2 1589.5,531.2 1681.8,685.2 
								1514.7,685.2 1514.7,217 							"/>
						</g>
						<g>
							<polygon class="st5" points="1439.8,531.2 1382.5,531.2 1457.3,406.6 1424.1,406.6 1481.6,310.8 1458.5,310.8 1514.7,217 
								1514.7,685.2 1347.5,685.2 							"/>
						</g>
					</g>
					<g class="st6">
						<polygon class="st5" points="1547.8,310.8 1481.6,310.8 1554.6,322.2 						"/>
					</g>
					<g class="st6">
						<polygon class="st5" points="1572.1,406.6 1457.3,406.6 1443.3,429.8 						"/>
					</g>
					<g class="st6">
						<polygon class="st5" points="1439.8,531.2 1589.5,531.2 1604.3,555.9 						"/>
					</g>
				</g>
				<g>
					
						<rect x="1486.5" y="685.2" transform="matrix(-1 -4.496771e-11 4.496771e-11 -1 3001.1885 1479.006)" class="st7" width="28.2" height="108.5"/>
				</g>
				<g>
					
						<rect x="1514.7" y="685.2" transform="matrix(-1 -4.483848e-11 4.483848e-11 -1 3057.4963 1479.006)" class="st8" width="28.2" height="108.5"/>
				</g>
			</g>
			<g class="st9">
				<g>
					<ellipse class="st2" cx="1514.7" cy="796.8" rx="174.9" ry="11.6"/>
				</g>
			</g>
		</g>
		<g>
			<g>
				<g>
					<g>
						<g>
							<polygon class="st4" points="2379.3,255.7 2354,255.7 2416.8,360.4 2380.6,360.4 2462.3,496.7 2399.7,496.7 2500.6,665.1 
								2317.8,665.1 2317.8,153.1 							"/>
						</g>
						<g>
							<polygon class="st5" points="2236,496.7 2173.3,496.7 2255,360.4 2218.8,360.4 2281.6,255.7 2256.3,255.7 2317.8,153.1 
								2317.8,665.1 2135,665.1 							"/>
						</g>
					</g>
					<g class="st6">
						<polygon class="st5" points="2354,255.7 2281.6,255.7 2361.5,268.2 						"/>
					</g>
					<g class="st6">
						<polygon class="st5" points="2380.6,360.4 2255,360.4 2239.8,385.8 						"/>
					</g>
					<g class="st6">
						<polygon class="st5" points="2236,496.7 2399.7,496.7 2415.8,523.6 						"/>
					</g>
				</g>
				<g>
					
						<rect x="2287" y="665.1" transform="matrix(-1 -4.490731e-11 4.490731e-11 -1 4604.8501 1448.8302)" class="st7" width="30.8" height="118.7"/>
				</g>
				<g>
					
						<rect x="2317.8" y="665.1" transform="matrix(-1 -4.490731e-11 4.490731e-11 -1 4666.4189 1448.8302)" class="st8" width="30.8" height="118.7"/>
				</g>
			</g>
			<g class="st9">
				<g>
					<ellipse class="st2" cx="2317.8" cy="799" rx="201.2" ry="13.4"/>
				</g>
			</g>
		</g>
	</g>
</g>
<g id="OBJECT">
</g>
<g id="TITLE">
</g>
</svg>
