<?xml version="1.0" encoding="utf-8"?>
<!-- Generator: Adobe Illustrator 26.1.0, SVG Export Plug-In . SVG Version: 6.00 Build 0)  -->
<svg version="1.1" xmlns="http://www.w3.org/2000/svg" xmlns:xlink="http://www.w3.org/1999/xlink" x="0px" y="0px"
	 viewBox="0 0 3528.4 1134.6" style="enable-background:new 0 0 3528.4 1134.6;" xml:space="preserve">
<style type="text/css">
	.st0{fill:#41632B;}
	.st1{fill:#537C37;}
	.st2{fill:#8FBD60;}
	.st3{fill:#84B355;}
	.st4{fill:#62A35E;}
	.st5{fill:#528854;}
	.st6{opacity:0.5;}
	.st7{fill:#57412F;}
	.st8{fill:#645032;}
	.st9{opacity:0.25;}
	.st10{fill:#D96F92;}
	.st11{fill:#FFFFFF;}
	.st12{opacity:0.35;}
	.st13{fill:#4A3623;}
	.st14{fill:#BF7B38;}
	.st15{fill:#6B4D2F;}
	.st16{fill:#C28950;}
	.st17{fill:#B07527;}
	.st18{fill:#FAF139;}
	.st19{fill:#DF922F;}
	.st20{fill:#7A9F39;}
	.st21{fill:#7A9743;}
	.st22{fill:#719235;}
	.st23{fill:#E49D2C;}
	.st24{fill:#D4B940;}
	.st25{fill:#F2CF38;}
	.st26{fill:#E9A831;}
	.st27{fill:#DB9333;}
	.st28{fill:#C8AD39;}
	.st29{fill:#E7B338;}
	.st30{fill:#C48423;}
</style>
<g id="BACKGROUND">
	<g>
		<g>
			<path class="st0" d="M2471.9,747.6c0.2-2.2,0.3-4.5,0.3-6.7c0-45-10.6-76.4-48.6-87.4c-14.2-4.1-42-1.6-60.9,20.6
				c-16.9-24.9-49.8-42.7-79.1-42.7c-29.6,0-58,11-66,43.5c-6-16.4-8.7-28.4-32.8-32.5c-11.4-1.9-36.5,2.7-44,16.7
				c-21.3-31.2-41.3-59.3-78.1-59.3c-39.7,0-87.5,31.4-108.6,66.8c-4.5-19.4-15-34.5-37.2-34.5c-31.8,0-79.4,28.8-93.4,59.5
				c-12.7-33.9-39.6-70.7-73.3-70.7c-30.1,0-58.5,31.9-72.8,60.2c-18.4-31.3-78.9-55.3-113.8-55.3c-36.3,0-57.1,20.7-56.5,59.1
				c-18.4-24.4-27.4-43.6-57.5-43.6c-34.3,0-82.6,23.9-100.8,54.5c-12.8-33.6-54.1-63.8-87.7-63.8c-33.5,0-49.8,30.1-62.6,63.6
				c-17.2-20.1-24.3-32.6-50.6-32.6c-32.2,0-77.4,18.7-94.6,47.4c-15.2-47.3-43-76.5-79.4-76.5c-28.5,0-45.8,19.9-49.3,50.5
				c3.4-23.9-5.1-40.5-28.5-40.5c-24.3,0-68.4,18-76.2,43.2c-1.8-41.8-7.9-68.6-46.5-68.6c-45.7,0-108.7,37.3-133.5,91.2
				c-12.2-31.1-64.6-52.7-95.8-52.7c-42.8,0-52,40.5-52,90.5c0,0.1,0,0.1,0,0.2H2471.9z"/>
		</g>
		<g>
			<path class="st1" d="M2443.2,728.4c-13,0-34.3,5.7-42.3,14.7c0.2-2.1,0.3-4.1,0.3-6.2c0-34.5-13.5-62.4-47.9-62.4
				c-27.6,0-65.3,17.9-73.5,42.8c-6.1-16.8-30.6-22.7-43.5-22.7c-16.2,0-28.1,10.3-31.3,29c-8.4-26.8-14.1-46.2-43.5-46.2
				c-23.2,0-62.5,17.2-74,48.4c-4.8-21.7-46-41.4-66.2-41.4c-27.8,0-36.7,17-46.8,41.1c-9.9-10.9-36.1-17.7-51.9-17.7
				c-20.6,0-26.4,11.6-35.5,28.6c-8.3-19.4-22.2-39.4-41.2-41.7c-12.8-1.6-39.3,10.3-43,20.9c-13.2-22.8-42.4-39.3-80.8-39.3
				c-35.1,0-49.9,25-58.8,57.3c-2.1-0.4-4.3-0.6-6.5-0.6c-7.2,0-14,2.1-19.7,5.6c-7.4-25.1-24-37.9-51.5-37.9
				c-19.2,0-42.8,3.4-53.9,17.4c-7.4-5.2-27.5-8.2-37.2-8.2c-24,0-57.6,22.1-34.4,42h1012.1C2464.9,737.9,2460,728.4,2443.2,728.4z"
				/>
		</g>
		<g>
			<path class="st1" d="M540.1,728.4c12.2,0,32.3,5.7,39.9,14.7c-0.2-2.1-0.3-4.1-0.3-6.2c0-34.5,12.8-62.4,45.2-62.4
				c26,0,61.6,17.9,69.3,42.8c5.7-16.8,28.8-22.7,41-22.7c15.3,0,26.5,10.3,29.5,29c7.9-26.8,13.3-46.2,41.1-46.2
				c21.9,0,58.9,17.2,69.8,48.4c4.6-21.7,43.4-41.4,62.4-41.4c26.2,0,34.6,17,44.1,41.1c9.3-10.9,34.1-17.7,49-17.7
				c19.4,0,24.9,11.6,33.5,28.6c7.9-19.4,20.9-39.4,38.9-41.7c12.1-1.6,37.1,10.3,40.5,20.9c12.5-22.8,40-39.3,76.2-39.3
				c33.1,0,47.1,25,55.5,57.3c2-0.4,4-0.6,6.1-0.6c6.8,0,13.2,2.1,18.6,5.6c6.9-25.1,22.6-37.9,48.5-37.9c18.1,0,40.4,3.4,50.8,17.4
				c7-5.2,25.9-8.2,35.1-8.2c22.6,0,54.3,22.1,32.5,42H512.8C519.7,737.9,524.3,728.4,540.1,728.4z"/>
		</g>
	</g>
	<g>
		<g>
			<path class="st2" d="M3539.5,739.2L1.4,744.8L4.7,1213l610.5,4.5c304.2,0,2624-4.5,2924.6-4.5"/>
		</g>
		<g>
			<path class="st3" d="M2960.3,844.6c-16.8-7.9-26-19.4-11.6-28c5.6-3.3,14-5.8,20.7-8.8c27.9-12.3,20.9-32.1-8.3-44
				c-29.2-11.9-75-16.8-118.6-16.5l-2072.3,3.1c-48.6,2.3-82.5,23.9-63.6,40.6c6.2,5.5,26.7,60.4-128.5,51.8
				c-35.9-2-99.7,22.1-99.7,47.2c0,36.7,95.2,63.8,104.3,66.1c83.2,21.2,300.5,55.7,692.6,55.7c253,0,477.8-73.8,600.8-32.9
				c53.3,17.7,254,73.5,504,73.5c283.5,0,513.3-40.7,513.3-90.8c0-14.5-38.6-41.2-31.8-41.6"/>
		</g>
	</g>
	<g>
		<g>
			<path class="st0" d="M2780.3,755.2c0.2-2.2,0.3-4.5,0.3-6.7c0-45-10.6-76.4-48.6-87.4c-14.2-4.1-42-1.6-60.9,20.6
				c-16.9-24.9-49.8-42.7-79.1-42.7c-29.6,0-58,11-66,43.5c-6-16.4-8.7-28.4-32.8-32.5c-11.4-1.9-36.5,2.7-44,16.7
				c-21.3-31.2-41.3-59.3-78.1-59.3c-39.7,0-87.5,31.4-108.6,66.8c-4.5-19.4-15-34.5-37.2-34.5c-31.8,0-79.4,28.8-93.4,59.5
				c-12.7-33.9-39.6-70.7-73.3-70.7c-30.1,0-58.5,31.9-72.8,60.2c-18.4-31.3-78.9-55.3-113.8-55.3c-36.3,0-57.1,20.7-56.5,59.1
				c-18.4-24.4-27.4-43.6-57.5-43.6c-34.3,0-82.6,23.9-100.8,54.5c-12.8-33.6-54.1-63.8-87.7-63.8c-33.5,0-49.8,30.1-62.6,63.6
				c-17.2-20.1-24.3-32.6-50.6-32.6c-32.2,0-77.4,18.7-94.6,47.4c-15.2-47.3-43-76.5-79.4-76.5c-28.5,0-45.8,19.9-49.3,50.5
				c3.4-23.9-5.1-40.5-28.5-40.5c-24.3,0-68.4,18-76.2,43.2c-1.8-41.8-7.9-68.6-46.5-68.6c-45.7,0-108.7,37.3-133.5,91.2
				c-12.2-31.1-64.6-52.7-95.8-52.7c-42.8,0-52,40.5-52,90.5c0,0.1,0,0.1,0,0.2H2780.3z"/>
		</g>
		<g>
			<path class="st1" d="M2751.7,736c-13,0-34.3,5.7-42.3,14.7c0.2-2.1,0.3-4.1,0.3-6.2c0-34.5-13.5-62.4-47.9-62.4
				c-27.6,0-65.3,17.9-73.5,42.8c-6.1-16.8-30.6-22.7-43.5-22.7c-16.2,0-28.1,10.3-31.3,29c-8.4-26.8-14.1-46.2-43.5-46.2
				c-23.2,0-62.5,17.2-74,48.4c-4.8-21.7-46-41.4-66.2-41.4c-27.8,0-36.7,17-46.8,41.1c-9.9-10.9-36.1-17.7-51.9-17.7
				c-20.6,0-26.4,11.6-35.5,28.6c-8.3-19.4-22.2-39.4-41.2-41.7c-12.8-1.6-39.3,10.3-43,20.9c-13.2-22.8-42.4-39.3-80.8-39.3
				c-35.1,0-49.9,25-58.8,57.3c-2.1-0.4-4.3-0.6-6.5-0.6c-7.2,0-14,2.1-19.7,5.6c-7.4-25.1-24-37.9-51.5-37.9
				c-19.2,0-42.8,3.4-53.9,17.4c-7.4-5.2-27.5-8.2-37.2-8.2c-24,0-57.6,22.1-34.4,42h1012.1C2773.3,745.4,2768.4,736,2751.7,736z"/>
		</g>
		<g>
			<path class="st1" d="M848.5,736c12.2,0,32.3,5.7,39.9,14.7c-0.2-2.1-0.3-4.1-0.3-6.2c0-34.5,12.8-62.4,45.2-62.4
				c26,0,61.6,17.9,69.3,42.8c5.7-16.8,28.8-22.7,41-22.7c15.3,0,26.5,10.3,29.5,29c7.9-26.8,13.3-46.2,41.1-46.2
				c21.9,0,58.9,17.2,69.8,48.4c4.6-21.7,43.4-41.4,62.4-41.4c26.2,0,34.6,17,44.1,41.1c9.3-10.9,34.1-17.7,49-17.7
				c19.4,0,24.9,11.6,33.5,28.6c7.9-19.4,20.9-39.4,38.9-41.7c12.1-1.6,37.1,10.3,40.5,20.9c12.5-22.8,40-39.3,76.2-39.3
				c33.1,0,47.1,25,55.5,57.3c2-0.4,4-0.6,6.1-0.6c6.8,0,13.2,2.1,18.6,5.6c6.9-25.1,22.6-37.9,48.5-37.9c18.1,0,40.4,3.4,50.8,17.4
				c7-5.2,25.9-8.2,35.1-8.2c22.6,0,54.3,22.1,32.5,42H821.2C828.1,745.4,832.7,736,848.5,736z"/>
		</g>
	</g>
	<g>
		<g>
			<g>
				<g>
					<g>
						<g>
							<polygon class="st4" points="1502.2,301.7 1525.3,301.7 1467.9,397.5 1501,397.5 1426.3,522.2 1483.6,522.2 1391.3,676.2 
								1558.4,676.2 1558.4,207.9 							"/>
						</g>
						<g>
							<polygon class="st5" points="1633.3,522.2 1690.6,522.2 1615.9,397.5 1649,397.5 1591.6,301.7 1614.7,301.7 1558.4,207.9 
								1558.4,676.2 1725.6,676.2 							"/>
						</g>
					</g>
					<g class="st6">
						<polygon class="st5" points="1525.3,301.7 1591.6,301.7 1518.5,313.2 						"/>
					</g>
					<g class="st6">
						<polygon class="st5" points="1501,397.5 1615.9,397.5 1629.8,420.7 						"/>
					</g>
					<g class="st6">
						<polygon class="st5" points="1633.3,522.2 1483.6,522.2 1468.8,546.8 						"/>
					</g>
				</g>
				<g>
					<rect x="1558.4" y="676.2" class="st7" width="28.2" height="108.5"/>
				</g>
				<g>
					<rect x="1530.3" y="676.2" class="st8" width="28.2" height="108.5"/>
				</g>
			</g>
			<g class="st9">
				<g>
					<ellipse class="st2" cx="1558.4" cy="787.7" rx="174.9" ry="11.6"/>
				</g>
			</g>
		</g>
		<g>
			<g>
				<g>
					<g>
						<g>
							<polygon class="st4" points="611.8,265.6 637.1,265.6 574.3,370.4 610.5,370.4 528.8,506.7 591.4,506.7 490.5,675 673.3,675 
								673.3,163.1 							"/>
						</g>
						<g>
							<polygon class="st5" points="755.1,506.7 817.8,506.7 736.1,370.4 772.3,370.4 709.5,265.6 734.7,265.6 673.3,163.1 
								673.3,675 856.1,675 							"/>
						</g>
					</g>
					<g class="st6">
						<polygon class="st5" points="637.1,265.6 709.5,265.6 629.6,278.1 						"/>
					</g>
					<g class="st6">
						<polygon class="st5" points="610.5,370.4 736.1,370.4 751.3,395.7 						"/>
					</g>
					<g class="st6">
						<polygon class="st5" points="755.1,506.7 591.4,506.7 575.3,533.6 						"/>
					</g>
				</g>
				<g>
					<rect x="673.3" y="675" class="st7" width="30.8" height="118.7"/>
				</g>
				<g>
					<rect x="642.5" y="675" class="st8" width="30.8" height="118.7"/>
				</g>
			</g>
			<g class="st9">
				<g>
					<ellipse class="st2" cx="673.3" cy="809" rx="201.2" ry="13.4"/>
				</g>
			</g>
		</g>
		<g>
			<g>
				<g>
					<g>
						<g>
							<polygon class="st4" points="1755.4,251.4 1779.2,251.4 1720.1,350 1754.2,350 1677.3,478.3 1736.2,478.3 1641.2,636.8 
								1813.3,636.8 1813.3,154.8 							"/>
						</g>
						<g>
							<polygon class="st5" points="1890.4,478.3 1949.3,478.3 1872.4,350 1906.5,350 1847.4,251.4 1871.2,251.4 1813.3,154.8 
								1813.3,636.8 1985.4,636.8 							"/>
						</g>
					</g>
					<g class="st6">
						<polygon class="st5" points="1779.2,251.4 1847.4,251.4 1772.2,263.1 						"/>
					</g>
					<g class="st6">
						<polygon class="st5" points="1754.2,350 1872.4,350 1886.7,373.9 						"/>
					</g>
					<g class="st6">
						<polygon class="st5" points="1890.4,478.3 1736.2,478.3 1721,503.7 						"/>
					</g>
				</g>
				<g>
					<rect x="1813.3" y="636.8" class="st7" width="29" height="111.7"/>
				</g>
				<g>
					<rect x="1784.3" y="636.8" class="st8" width="29" height="111.7"/>
				</g>
			</g>
			<g class="st9">
				<g>
					<ellipse class="st2" cx="1808.8" cy="760.2" rx="174.9" ry="11.6"/>
				</g>
			</g>
		</g>
		<g>
			<g>
				<g>
					<g>
						<g>
							<polygon class="st4" points="1084,365.8 1102.7,365.8 1056.2,443.3 1083,443.3 1022.6,544.2 1068.9,544.2 994.2,668.9 
								1129.5,668.9 1129.5,289.9 							"/>
						</g>
						<g>
							<polygon class="st5" points="1190.1,544.2 1236.5,544.2 1176,443.3 1202.8,443.3 1156.3,365.8 1175,365.8 1129.5,289.9 
								1129.5,668.9 1264.8,668.9 							"/>
						</g>
					</g>
					<g class="st6">
						<polygon class="st5" points="1102.7,365.8 1156.3,365.8 1097.2,375.1 						"/>
					</g>
					<g class="st6">
						<polygon class="st5" points="1083,443.3 1176,443.3 1187.2,462.1 						"/>
					</g>
					<g class="st6">
						<polygon class="st5" points="1190.1,544.2 1068.9,544.2 1057,564.2 						"/>
					</g>
				</g>
				<g>
					<rect x="1129.5" y="668.9" class="st7" width="22.8" height="87.9"/>
				</g>
				<g>
					<rect x="1106.7" y="668.9" class="st8" width="22.8" height="87.9"/>
				</g>
			</g>
			<g class="st9">
				<g>
					<ellipse class="st2" cx="1131" cy="756.7" rx="136.8" ry="11.6"/>
				</g>
			</g>
		</g>
	</g>
	<g>
		<g>
			<g>
				<path class="st10" d="M958,741.4c6.7,2.5,7.1,6.4,5.5,10.5c-1.6,4.2-7.3,6.2-11.2,4c2.6,2.9,4.6,7.3,2.5,10.7
					c-1.8,3-6.3,3.5-9.4,1.8c-3.1-1.7-3.7-6-4.9-9.3c1.5,4.1-2.1,10.2-6.2,11.7c-4.1,1.5-9.2-1-10.5-5.1c-1.4-4.1,1.2-9.1,5.3-10.4
					c-3.3,0.6-7.1,0.1-9.6-2.2c-2.5-2.3-3.3-6.5-1.3-9.2c2.1-2.8,6.3-3.1,9.7-2.2c3.4,0.9,4.3,2.2,7.8,2.6c-2-4-0.2-14.5,4.3-16.3
					c2.3-0.9,4.9,0.7,6.4,2.7c3,3.7,2.3,8.3,1.8,13C948.3,743.6,954.4,740.1,958,741.4z"/>
			</g>
			<g>
				<path class="st11" d="M945,751.2c0,1.8-1.5,3.3-3.3,3.3c-1.8,0-3.3-1.5-3.3-3.3c0-1.8,1.5-3.3,3.3-3.3
					C943.5,747.8,945,749.3,945,751.2z"/>
			</g>
		</g>
		<g>
			<g>
				<path class="st10" d="M1178.9,739.5c4.2,1.6,4.5,4,3.5,6.7c-1,2.7-4.6,3.9-7.1,2.6c1.6,1.9,2.9,4.6,1.6,6.8
					c-1.2,1.9-4,2.2-6,1.2c-2-1.1-2.4-3.8-3.1-5.9c1,2.6-1.3,6.5-3.9,7.4c-2.6,0.9-5.8-0.6-6.7-3.2c-0.9-2.6,0.7-5.8,3.4-6.6
					c-2.1,0.4-4.5,0-6.1-1.4c-1.6-1.5-2.1-4.1-0.8-5.8c1.4-1.8,4-2,6.2-1.4s2.7,1.4,4.9,1.6c-1.2-2.5-0.1-9.2,2.7-10.4
					c1.5-0.6,3.1,0.5,4.1,1.7c1.9,2.3,1.4,5.2,1.2,8.3C1172.7,740.8,1176.6,738.6,1178.9,739.5z"/>
			</g>
			<g>
				<path class="st11" d="M1170.6,745.6c0,1.2-0.9,2.1-2.1,2.1c-1.2,0-2.1-0.9-2.1-2.1c0-1.2,0.9-2.1,2.1-2.1
					C1169.7,743.5,1170.6,744.5,1170.6,745.6z"/>
			</g>
		</g>
		<g>
			<g>
				<path class="st10" d="M2675.6,732.8c1,0,3.3,1.2,4,2c2.8,2.9,1.8,9.2,0.3,11.8c-1.5,2.5-4.3,4.5-7.2,4.3c2.8,1,5,3.3,6,6.1
					c0.4,1.2,0.6,2.5,0.3,3.8c-0.7,3.5-4.9,5.6-8.4,4.7c-3.5-0.9-6-4.2-6.8-7.7c0.4,2.2,0.9,4.4,0.5,6.5c-0.3,2.2-1.6,4.4-3.6,5.2
					c-2.6,1-5.7-0.4-7.2-2.8c-1.5-2.3-1.7-5.3-1.4-8.1c-1.3,2.6-4,4.7-6.9,4.8c-2.9,0.1-5.9-2.3-5.9-5.3c0-1.8,1-3.5,2.3-4.8
					c2.4-2.5,5.8-4,9.2-4.2c-4,0.1-7.8-3.1-8.4-7.1c-0.7-3.9,1.6-8.1,5.2-9.9c3.6-1.8,8.1-1.2,11.3,1.2c2.8,2.1,4.5,5.6,4.5,9.2
					C2663.4,742.7,2668.6,732.5,2675.6,732.8z"/>
			</g>
			<g>
				<path class="st11" d="M2664.4,750.6c0,2.2-1.8,4-4,4c-2.2,0-4-1.8-4-4c0-2.2,1.8-4,4-4C2662.6,746.6,2664.4,748.3,2664.4,750.6z
					"/>
			</g>
		</g>
		<g>
			<g>
				<path class="st10" d="M2406,753.8c-0.5,0-1.6-0.6-2-1c-1.4-1.4-0.9-4.6-0.2-5.9c0.8-1.3,2.1-2.2,3.6-2.1c-1.4-0.5-2.5-1.7-3-3.1
					c-0.2-0.6-0.3-1.3-0.2-1.9c0.4-1.8,2.5-2.8,4.2-2.3c1.7,0.5,3,2.1,3.4,3.8c-0.2-1.1-0.4-2.2-0.3-3.3c0.2-1.1,0.8-2.2,1.8-2.6
					c1.3-0.5,2.8,0.2,3.6,1.4c0.7,1.2,0.8,2.6,0.7,4c0.7-1.3,2-2.4,3.5-2.4c1.5,0,3,1.2,3,2.6c0,0.9-0.5,1.7-1.1,2.4
					c-1.2,1.3-2.9,2-4.6,2.1c2-0.1,3.9,1.6,4.2,3.5c0.3,2-0.8,4.1-2.6,5c-1.8,0.9-4.1,0.6-5.7-0.6c-1.4-1.1-2.3-2.8-2.2-4.6
					C2412.1,748.9,2409.5,753.9,2406,753.8z"/>
			</g>
			<g>
				<circle class="st11" cx="2413.6" cy="744.9" r="2"/>
			</g>
		</g>
		<g>
			<g>
				<path class="st10" d="M1549.5,733.5c1.4-0.2,2.9,0.4,3.8,1.5c0.5,0.7,0.8,1.6,0.9,2.4c0.2,2.4-0.6,4.8-2.3,6.6
					c-1.7,1.7-4.1,2.6-6.5,2.4c4.3,2,8.3,8.2,5.3,11.9c-3.2,4-9.1,2.2-11.2,1.1c-2.1-1.2-3.9-3.4-3.8-5.8c-1.4,3.9-6.2,5.8-10.2,4.8
					c-0.7-0.1-1.3-0.4-1.8-0.8c-0.5-0.4-0.8-0.8-1.1-1.4c-1.3-2.4-0.8-5.6,0.9-7.8s4.4-3.4,7.2-3.5c-1.4-2.1-2.3-4.5-2.6-7
					c-0.2-2,0.1-4.2,1.5-5.6c2.1-2.1,6-1.3,8,0.9c2,2.2,2.5,5.4,2.5,8.4C1540,741.8,1543.3,734.6,1549.5,733.5z"/>
			</g>
			<g>
				<path class="st11" d="M1541.3,748c0,1.6-1.3,2.8-2.8,2.8c-1.6,0-2.8-1.3-2.8-2.8c0-1.6,1.3-2.8,2.8-2.8
					C1540,745.1,1541.3,746.4,1541.3,748z"/>
			</g>
		</g>
		<g>
			<g>
				<path class="st10" d="M2077.8,744.9c0.2,1.4-0.4,2.9-1.5,3.8c-0.7,0.5-1.6,0.8-2.4,0.9c-2.4,0.2-4.8-0.6-6.6-2.3
					c-1.7-1.7-2.6-4.1-2.4-6.5c-2,4.3-8.2,8.3-11.9,5.3c-4-3.2-2.2-9.1-1.1-11.2c1.2-2.1,3.4-3.9,5.8-3.8c-3.9-1.4-5.8-6.2-4.8-10.2
					c0.1-0.7,0.4-1.3,0.8-1.8c0.4-0.5,0.8-0.8,1.4-1.1c2.4-1.3,5.6-0.8,7.8,0.9c2.2,1.7,3.4,4.4,3.5,7.2c2.1-1.4,4.5-2.3,7-2.6
					c2-0.2,4.2,0.1,5.6,1.5c2.1,2.1,1.3,6-0.9,8c-2.2,2-5.4,2.5-8.4,2.5C2069.6,735.4,2076.8,738.7,2077.8,744.9z"/>
			</g>
			<g>
				<path class="st11" d="M2063.4,736.6c-1.6,0-2.8-1.3-2.8-2.8c0-1.6,1.3-2.8,2.8-2.8s2.8,1.3,2.8,2.8
					C2066.2,735.3,2065,736.6,2063.4,736.6z"/>
			</g>
		</g>
	</g>
	<g>
		<g class="st12">
			<g>
				<ellipse class="st2" cx="1755.8" cy="1141.6" rx="196.9" ry="18"/>
			</g>
		</g>
		<g>
			<g>
				<g>
					<rect x="1615.2" y="1102.8" class="st13" width="283.6" height="34.3"/>
				</g>
				<g>
					<g>
						<path class="st14" d="M1653.1,1137c-2-20.5-19.3-36.5-40.4-36.5s-38.3,16-40.4,36.5H1653.1z"/>
					</g>
					<g>
						<g>
							<path class="st13" d="M1586.8,1135c1-10.2,10.2-18.2,19.8-20.6c13.6-3.4,30.1,6.8,30.8,21.4c0.1,1.1,1.8,1.1,1.7,0
								c-0.8-15.1-16.7-25.5-30.9-23.5c-11.3,1.6-22.1,11.1-23.2,22.6C1585,1136.1,1586.7,1136.1,1586.8,1135L1586.8,1135z"/>
						</g>
					</g>
					<g>
						<g>
							<path class="st13" d="M1598.1,1135.3c3.1-4.7,8-8.7,13.9-9.1c7.4-0.5,13.9,2.6,16.7,9.7c0.3,0.9,1.8,0.5,1.4-0.4
								c-2.9-7.3-9-10.8-16.8-10.8c-7,0-12.7,4.2-16.4,9.9C1596.4,1135.3,1597.6,1136,1598.1,1135.3L1598.1,1135.3z"/>
						</g>
					</g>
				</g>
				<g>
					<g>
						<path class="st14" d="M1939.1,1137c-2-20.5-19.3-36.5-40.4-36.5c-21,0-38.3,16-40.4,36.5H1939.1z"/>
					</g>
					<g>
						<g>
							<path class="st13" d="M1872.9,1135c1-10.2,10.2-18.2,19.8-20.6c13.6-3.4,30.1,6.8,30.8,21.4c0.1,1.1,1.8,1.1,1.7,0
								c-0.8-15.1-16.7-25.5-30.9-23.5c-11.3,1.6-22.1,11.1-23.2,22.6C1871,1136.1,1872.8,1136.1,1872.9,1135L1872.9,1135z"/>
						</g>
					</g>
					<g>
						<g>
							<path class="st13" d="M1884.2,1135.3c3.1-4.7,8-8.7,13.9-9.1c7.4-0.5,13.9,2.6,16.7,9.7c0.3,0.9,1.8,0.5,1.4-0.4
								c-2.9-7.3-9-10.8-16.8-10.8c-7,0-12.7,4.2-16.4,9.9C1882.4,1135.3,1883.7,1136,1884.2,1135.3L1884.2,1135.3z"/>
						</g>
					</g>
				</g>
			</g>
			<g>
				<g>
					<rect x="1667.9" y="1123" class="st15" width="177.5" height="25"/>
				</g>
				<g>
					<g>
						<path class="st16" d="M1695.6,1148c-1.5-15-14.1-26.6-29.5-26.6c-15.3,0-28,11.7-29.5,26.6H1695.6z"/>
					</g>
					<g>
						<g>
							<path class="st15" d="M1647.2,1146.5c2.2-20.1,35.5-20.2,37,0.6c0.1,0.8,1.3,0.8,1.2,0c-1.6-22.4-37.1-22.4-39.5-0.6
								C1645.9,1147.3,1647.1,1147.3,1647.2,1146.5L1647.2,1146.5z"/>
						</g>
					</g>
					<g>
						<g>
							<path class="st15" d="M1655.5,1146.7c5.3-8,18.2-9.8,22.3,0.4c0.3,0.6,1.3,0.4,1-0.3c-4.5-11-18.4-9.5-24.3-0.7
								C1654.2,1146.8,1655.1,1147.3,1655.5,1146.7L1655.5,1146.7z"/>
						</g>
					</g>
				</g>
				<g>
					<g>
						<path class="st16" d="M1874.9,1148c-1.5-15-14.1-26.6-29.5-26.6s-28,11.7-29.5,26.6H1874.9z"/>
					</g>
					<g>
						<g>
							<path class="st15" d="M1826.5,1146.5c2.2-20.1,35.5-20.2,37,0.6c0.1,0.8,1.3,0.8,1.2,0c-1.6-22.4-37.1-22.4-39.5-0.6
								C1825.2,1147.3,1826.4,1147.3,1826.5,1146.5L1826.5,1146.5z"/>
						</g>
					</g>
					<g>
						<g>
							<path class="st15" d="M1834.8,1146.7c5.3-8,18.2-9.8,22.3,0.4c0.3,0.6,1.3,0.4,1-0.3c-4.5-11-18.4-9.5-24.3-0.7
								C1833.5,1146.8,1834.4,1147.3,1834.8,1146.7L1834.8,1146.7z"/>
						</g>
					</g>
				</g>
			</g>
			<g>
				<path class="st17" d="M1684.8,1102.8c-2.8,0.8-5.6,6.2-5.3,9c0.3,2.9,2.9,5.3,5.8,5.4c2.9,0.1,5.4-1.7,8-3c2.6-1.3,6-2,8,0.1
					c1.5,1.5,1.6,4,2.5,5.9c1.9,3.9,7,4.9,11.3,4.9s9-0.7,12.8,1.4c5.3,3,6.5,10.1,10.8,14.4c4.4,4.4,11.1,5.1,17.3,5.2
					c8.2,0.1,17.3-0.9,22.5-7.2c4.4-5.3,5.6-14,12.1-16.1c4-1.3,8.2,0.7,12.3,1.7c4.1,1.1,9.4,0.7,11.1-3.1c0.7-1.5,0.6-3.2,1-4.7
					c1.2-4.8,7.4-11.9,11.8-14H1684.8z"/>
			</g>
			<g>
				<path class="st18" d="M1757.8,1119.2c29.1,0,58.2-17.6,67.5-45.2c4.6-13.8,4-30.6-6.3-40.9c6.9,6.9,3.7,20.8-5.6,23.8
					c-9.3,3-20.1-6.3-18.6-15.9c1.3-8,9.2-13.3,12-20.9c7.4-20.1,2.9-39.2-3.2-49.7c-8-13.7-24.7-19.8-40.5-21.8
					c14.8,9.3,16.9,36.3,8.1,52.2c-7.2,13-23.8,17.9-30.4,5.4c-5.4-10.2-0.8-25.4,9.6-30.4c-9,2.8-17.8,7.1-24,14.1
					s-9.4,17.3-6.2,26.1c2,5.6,6.4,10.1,9.1,15.5c3.3,6.3,4.2,14.4,0.6,20.6c-3.5,6.2-12.2,9.5-18.4,5.9c-10.8-6.4-6.5-26.4-17.8-32
					c5.2,5.9,5.8,14.7,4.6,22.5c-1.2,7.8-4,15.4-4.5,23.2C1692.6,1093.8,1720.3,1119.2,1757.8,1119.2z"/>
			</g>
			<g>
				<path class="st19" d="M1762.5,1111.9c-41.5,0-52.2-31-52.2-31s34.5,11.7,40.8-14.4c3.9-16-12.7-26.7-11.3-41
					c7.4,21.4,30.3,13.7,41.3-8.6c5.5,13.7-15.8,18.6-7.4,41.5c6.2,17,24.1,16.7,31.5,11.2
					C1804.8,1079.4,1794.3,1111.9,1762.5,1111.9z"/>
			</g>
			<g>
				<circle class="st18" cx="1716.4" cy="1036.7" r="2.8"/>
			</g>
			<g>
				<path class="st18" d="M1757.8,987.8c0,1.3-1,2.3-2.3,2.3c-1.3,0-2.3-1-2.3-2.3c0-1.3,1-2.3,2.3-2.3
					C1756.7,985.5,1757.8,986.6,1757.8,987.8z"/>
			</g>
			<g>
				<path class="st18" d="M1812.4,1043.1c0,2-1.6,3.6-3.6,3.6c-2,0-3.6-1.6-3.6-3.6s1.6-3.6,3.6-3.6
					C1810.8,1039.5,1812.4,1041.1,1812.4,1043.1z"/>
			</g>
			<g>
				<circle class="st18" cx="1689.9" cy="1038.9" r="5.1"/>
			</g>
			<g>
				<path class="st18" d="M1832.5,996.8c0,3.7-3,6.7-6.7,6.7s-6.7-3-6.7-6.7c0-3.7,3-6.7,6.7-6.7S1832.5,993.1,1832.5,996.8z"/>
			</g>
		</g>
	</g>
	<g>
		<g>
			<g>
				<path class="st20" d="M1315.4,1015.8c0,0-41.7-15.4-26.2-31.7c15.5-16.3,35.7,31.7,35.7,31.7H1315.4z"/>
			</g>
			<g>
				<path class="st21" d="M1333.7,1015.8c0,0,35.2-30,24.7-57.1c-10.5-27.1-33.3,57.1-33.3,57.1H1333.7z"/>
			</g>
			<g>
				<path class="st22" d="M1321.7,1015.8c0,0-18.3-56.1,0-56.1c23.2,0,8.6,56.1,8.6,56.1H1321.7z"/>
			</g>
		</g>
		<g>
			<g>
				<path class="st20" d="M2368.7,1043c0,0,45.6-16.8,28.7-34.7s-39.1,34.7-39.1,34.7H2368.7z"/>
			</g>
			<g>
				<path class="st21" d="M2348.6,1043c0,0-38.5-32.8-27-62.4c11.5-29.6,36.4,62.4,36.4,62.4H2348.6z"/>
			</g>
			<g>
				<path class="st22" d="M2361.8,1043c0,0,20-61.4,0-61.4c-25.4,0-9.4,61.4-9.4,61.4H2361.8z"/>
			</g>
		</g>
		<g>
			<g>
				<path class="st20" d="M803,902.3c0,0-34.8-12.9-21.9-26.5c12.9-13.6,29.8,26.5,29.8,26.5H803z"/>
			</g>
			<g>
				<path class="st21" d="M818.3,902.3c0,0,29.3-25,20.6-47.6c-8.8-22.6-27.8,47.6-27.8,47.6H818.3z"/>
			</g>
			<g>
				<path class="st22" d="M808.2,902.3c0,0-15.3-46.8,0-46.8c19.4,0,7.2,46.8,7.2,46.8H808.2z"/>
			</g>
		</g>
		<g>
			<g>
				<path class="st20" d="M2041.9,1030.7c0,0-31.8-11.7-20-24.2c11.8-12.5,27.2,24.2,27.2,24.2H2041.9z"/>
			</g>
			<g>
				<path class="st21" d="M2055.9,1030.7c0,0,26.8-22.9,18.8-43.5c-8-20.7-25.4,43.5-25.4,43.5H2055.9z"/>
			</g>
			<g>
				<path class="st22" d="M2046.7,1030.7c0,0-14-42.8,0-42.8c17.7,0,6.6,42.8,6.6,42.8H2046.7z"/>
			</g>
		</g>
		<g>
			<g>
				<path class="st20" d="M1529.7,860.6c0,0-31.8-11.7-20-24.2c11.8-12.5,27.2,24.2,27.2,24.2H1529.7z"/>
			</g>
			<g>
				<path class="st21" d="M1543.7,860.6c0,0,26.8-22.9,18.8-43.5c-8-20.7-25.4,43.5-25.4,43.5H1543.7z"/>
			</g>
			<g>
				<path class="st22" d="M1534.6,860.6c0,0-14-42.8,0-42.8c17.7,0,6.6,42.8,6.6,42.8H1534.6z"/>
			</g>
		</g>
		<g>
			<g>
				<path class="st20" d="M1057,1024.4c0,0,40.9-46,24.2-58c-16.8-12-32.9,58-32.9,58H1057z"/>
			</g>
			<g>
				<path class="st21" d="M1040.5,1024.4c0,0-38.5-18.4-27-35.1c11.5-16.7,36.4,35.1,36.4,35.1H1040.5z"/>
			</g>
			<g>
				<path class="st22" d="M1050.7,1024.4c0,0,20-61.4,0-61.4c-25.4,0-9.4,61.4-9.4,61.4H1050.7z"/>
			</g>
		</g>
		<g>
			<g>
				<path class="st20" d="M2766.5,909.6c0,0,40.9-46,24.2-58c-16.8-12-32.9,58-32.9,58H2766.5z"/>
			</g>
			<g>
				<path class="st21" d="M2750,909.6c0,0-38.5-18.4-27-35.1s36.4,35.1,36.4,35.1H2750z"/>
			</g>
			<g>
				<path class="st22" d="M2760.2,909.6c0,0,20-61.4,0-61.4c-25.4,0-9.4,61.4-9.4,61.4H2760.2z"/>
			</g>
		</g>
	</g>
	<g>
		<g>
			<g>
				<g>
					<g>
						<g>
							<polygon class="st4" points="1372.2,320.2 1349.1,320.2 1406.5,416 1373.4,416 1448.1,540.7 1390.8,540.7 1483.2,694.7 
								1316,694.7 1316,226.4 							"/>
						</g>
						<g>
							<polygon class="st5" points="1241.1,540.7 1183.9,540.7 1258.6,416 1225.5,416 1282.9,320.2 1259.8,320.2 1316,226.4 
								1316,694.7 1148.8,694.7 							"/>
						</g>
					</g>
					<g class="st6">
						<polygon class="st5" points="1349.1,320.2 1282.9,320.2 1355.9,331.6 						"/>
					</g>
					<g class="st6">
						<polygon class="st5" points="1373.4,416 1258.6,416 1244.7,439.2 						"/>
					</g>
					<g class="st6">
						<polygon class="st5" points="1241.1,540.7 1390.8,540.7 1405.6,565.3 						"/>
					</g>
				</g>
				<g>
					
						<rect x="1287.8" y="694.7" transform="matrix(-1 -4.496771e-11 4.496771e-11 -1 2603.8127 1497.8395)" class="st7" width="28.2" height="108.5"/>
				</g>
				<g>
					
						<rect x="1316" y="694.7" transform="matrix(-1 -4.483848e-11 4.483848e-11 -1 2660.1206 1497.8395)" class="st8" width="28.2" height="108.5"/>
				</g>
			</g>
			<g class="st9">
				<g>
					<ellipse class="st2" cx="1316" cy="806.2" rx="174.9" ry="11.6"/>
				</g>
			</g>
		</g>
		<g>
			<g>
				<g>
					<g>
						<g>
							<polygon class="st4" points="2290.6,265.1 2265.3,265.1 2328.1,369.8 2291.9,369.8 2373.6,506.1 2311,506.1 2411.9,674.5 
								2229.1,674.5 2229.1,162.5 							"/>
						</g>
						<g>
							<polygon class="st5" points="2147.3,506.1 2084.7,506.1 2166.3,369.8 2130.1,369.8 2192.9,265.1 2167.7,265.1 2229.1,162.5 
								2229.1,674.5 2046.3,674.5 							"/>
						</g>
					</g>
					<g class="st6">
						<polygon class="st5" points="2265.3,265.1 2192.9,265.1 2272.8,277.6 						"/>
					</g>
					<g class="st6">
						<polygon class="st5" points="2291.9,369.8 2166.3,369.8 2151.1,395.2 						"/>
					</g>
					<g class="st6">
						<polygon class="st5" points="2147.3,506.1 2311,506.1 2327.1,533 						"/>
					</g>
				</g>
				<g>
					
						<rect x="2198.3" y="674.5" transform="matrix(-1 -4.490731e-11 4.490731e-11 -1 4427.4746 1467.6637)" class="st7" width="30.8" height="118.7"/>
				</g>
				<g>
					
						<rect x="2229.1" y="674.5" transform="matrix(-1 -4.490731e-11 4.490731e-11 -1 4489.043 1467.6637)" class="st8" width="30.8" height="118.7"/>
				</g>
			</g>
			<g class="st9">
				<g>
					<ellipse class="st2" cx="2229.1" cy="808.5" rx="201.2" ry="13.4"/>
				</g>
			</g>
		</g>
		<g>
			<g>
				<g>
					<g>
						<g>
							<polygon class="st4" points="951.7,259.1 927.9,259.1 987,357.7 952.9,357.7 1029.8,486 970.9,486 1065.9,644.5 893.8,644.5 
								893.8,162.5 							"/>
						</g>
						<g>
							<polygon class="st5" points="816.7,486 757.8,486 834.7,357.7 800.6,357.7 859.7,259.1 835.9,259.1 893.8,162.5 893.8,644.5 
								721.7,644.5 							"/>
						</g>
					</g>
					<g class="st6">
						<polygon class="st5" points="927.9,259.1 859.7,259.1 934.9,270.8 						"/>
					</g>
					<g class="st6">
						<polygon class="st5" points="952.9,357.7 834.7,357.7 820.4,381.6 						"/>
					</g>
					<g class="st6">
						<polygon class="st5" points="816.7,486 970.9,486 986.1,511.4 						"/>
					</g>
				</g>
				<g>
					
						<rect x="864.8" y="644.5" transform="matrix(-1 -4.493884e-11 4.493884e-11 -1 1758.6122 1400.755)" class="st7" width="29" height="111.7"/>
				</g>
				<g>
					
						<rect x="893.8" y="644.5" transform="matrix(-1 -4.481316e-11 4.481316e-11 -1 1816.5754 1400.755)" class="st8" width="29" height="111.7"/>
				</g>
			</g>
			<g class="st9">
				<g>
					<ellipse class="st2" cx="898.3" cy="767.9" rx="174.9" ry="11.6"/>
				</g>
			</g>
		</g>
	</g>
	<g>
		<g>
			<g>
				<g>
					<g>
						<g>
							<polygon class="st4" points="1378.5,330 1403.8,330 1341,434.7 1377.2,434.7 1295.5,571 1358.1,571 1257.2,739.4 1440,739.4 
								1440,227.4 							"/>
						</g>
						<g>
							<polygon class="st5" points="1521.9,571 1584.5,571 1502.8,434.7 1539,434.7 1476.2,330 1501.5,330 1440,227.4 1440,739.4 
								1622.8,739.4 							"/>
						</g>
					</g>
					<g class="st6">
						<polygon class="st5" points="1403.8,330 1476.2,330 1396.3,342.5 						"/>
					</g>
					<g class="st6">
						<polygon class="st5" points="1377.2,434.7 1502.8,434.7 1518,460.1 						"/>
					</g>
					<g class="st6">
						<polygon class="st5" points="1521.9,571 1358.1,571 1342,597.9 						"/>
					</g>
				</g>
				<g>
					<rect x="1440" y="739.4" class="st7" width="30.8" height="118.7"/>
				</g>
				<g>
					<rect x="1409.2" y="739.4" class="st8" width="30.8" height="118.7"/>
				</g>
			</g>
			<g class="st9">
				<g>
					<ellipse class="st2" cx="1440" cy="873.4" rx="201.2" ry="13.4"/>
				</g>
			</g>
		</g>
		<g>
			<g>
				<g>
					<g>
						<g>
							<polygon class="st4" points="2442.2,315.7 2465.9,315.7 2406.8,414.3 2440.9,414.3 2364,542.7 2423,542.7 2327.9,701.2 
								2500,701.2 2500,219.2 							"/>
						</g>
						<g>
							<polygon class="st5" points="2577.1,542.7 2636,542.7 2559.1,414.3 2593.2,414.3 2534.1,315.7 2557.9,315.7 2500,219.2 
								2500,701.2 2672.1,701.2 							"/>
						</g>
					</g>
					<g class="st6">
						<polygon class="st5" points="2465.9,315.7 2534.1,315.7 2458.9,327.5 						"/>
					</g>
					<g class="st6">
						<polygon class="st5" points="2440.9,414.3 2559.1,414.3 2573.4,438.2 						"/>
					</g>
					<g class="st6">
						<polygon class="st5" points="2577.1,542.7 2423,542.7 2407.8,568 						"/>
					</g>
				</g>
				<g>
					<rect x="2500" y="701.2" class="st7" width="29" height="111.7"/>
				</g>
				<g>
					<rect x="2471" y="701.2" class="st8" width="29" height="111.7"/>
				</g>
			</g>
			<g class="st9">
				<g>
					<ellipse class="st2" cx="2495.6" cy="824.6" rx="174.9" ry="11.6"/>
				</g>
			</g>
		</g>
	</g>
	<g>
		<g>
			<g>
				<g>
					<g>
						<g>
							<polygon class="st4" points="2058.9,384.6 2035.8,384.6 2093.2,480.4 2060.1,480.4 2134.8,605 2077.6,605 2169.9,759 
								2002.7,759 2002.7,290.8 							"/>
						</g>
						<g>
							<polygon class="st5" points="1927.8,605 1870.6,605 1945.3,480.4 1912.2,480.4 1969.6,384.6 1946.5,384.6 2002.7,290.8 
								2002.7,759 1835.5,759 							"/>
						</g>
					</g>
					<g class="st6">
						<polygon class="st5" points="2035.8,384.6 1969.6,384.6 2042.7,396 						"/>
					</g>
					<g class="st6">
						<polygon class="st5" points="2060.1,480.4 1945.3,480.4 1931.4,503.6 						"/>
					</g>
					<g class="st6">
						<polygon class="st5" points="1927.8,605 2077.6,605 2092.3,629.6 						"/>
					</g>
				</g>
				<g>
					
						<rect x="1974.5" y="759" transform="matrix(-1 -4.496771e-11 4.496771e-11 -1 3977.2524 1626.5513)" class="st7" width="28.2" height="108.5"/>
				</g>
				<g>
					
						<rect x="2002.7" y="759" transform="matrix(-1 -4.483848e-11 4.483848e-11 -1 4033.5603 1626.5513)" class="st8" width="28.2" height="108.5"/>
				</g>
			</g>
			<g class="st9">
				<g>
					<ellipse class="st2" cx="2002.7" cy="870.6" rx="174.9" ry="11.6"/>
				</g>
			</g>
		</g>
		<g>
			<g>
				<g>
					<g>
						<g>
							<polygon class="st4" points="2867.3,329.4 2842.1,329.4 2904.8,434.2 2868.6,434.2 2950.3,570.5 2887.7,570.5 2988.6,738.9 
								2805.8,738.9 2805.8,226.9 							"/>
						</g>
						<g>
							<polygon class="st5" points="2724,570.5 2661.4,570.5 2743.1,434.2 2706.9,434.2 2769.6,329.4 2744.4,329.4 2805.8,226.9 
								2805.8,738.9 2623.1,738.9 							"/>
						</g>
					</g>
					<g class="st6">
						<polygon class="st5" points="2842.1,329.4 2769.6,329.4 2849.5,341.9 						"/>
					</g>
					<g class="st6">
						<polygon class="st5" points="2868.6,434.2 2743.1,434.2 2727.9,459.5 						"/>
					</g>
					<g class="st6">
						<polygon class="st5" points="2724,570.5 2887.7,570.5 2903.9,597.4 						"/>
					</g>
				</g>
				<g>
					
						<rect x="2775.1" y="738.9" transform="matrix(-1 -4.490731e-11 4.490731e-11 -1 5580.9141 1596.3755)" class="st7" width="30.8" height="118.7"/>
				</g>
				<g>
					
						<rect x="2805.8" y="738.9" transform="matrix(-1 -4.490731e-11 4.490731e-11 -1 5642.4829 1596.3755)" class="st8" width="30.8" height="118.7"/>
				</g>
			</g>
			<g class="st9">
				<g>
					<ellipse class="st2" cx="2805.8" cy="872.8" rx="201.2" ry="13.4"/>
				</g>
			</g>
		</g>
	</g>
	<g>
		<g>
			<path class="st0" d="M2685.3,911c0.2-2.2,0.3-4.5,0.3-6.7c0-45-10.6-76.4-48.6-87.4c-14.2-4.1-42-1.6-60.9,20.6
				c-16.9-24.9-49.8-42.7-79.1-42.7c-29.6,0-58,11-66,43.5c-6-16.4-8.7-28.4-32.8-32.5c-11.4-1.9-36.5,2.7-44,16.7
				c-21.3-31.2-41.3-59.3-78.1-59.3c-39.7,0-87.5,31.4-108.6,66.8c-4.5-19.4-15-34.5-37.2-34.5c-31.8,0-79.4,28.8-93.4,59.5
				c-12.7-33.9-39.6-70.7-73.3-70.7c-30.1,0-58.5,31.9-72.8,60.2c-18.4-31.3-78.9-55.3-113.8-55.3c-36.3,0-57.1,20.7-56.5,59.1
				c-18.4-24.4-27.4-43.6-57.5-43.6c-34.3,0-82.6,23.9-100.8,54.5c-12.8-33.6-54.1-63.8-87.7-63.8c-33.5,0-49.8,30.1-62.6,63.6
				c-17.2-20.1-24.3-32.6-50.6-32.6c-32.2,0-77.4,18.7-94.6,47.4c-15.2-47.3-43-76.5-79.4-76.5c-28.5,0-45.8,19.9-49.3,50.5
				c3.4-23.9-5.1-40.5-28.5-40.5c-24.3,0-68.4,18-76.2,43.2c-1.8-41.8-7.9-68.6-46.5-68.6c-45.7,0-108.7,37.3-133.5,91.2
				c-12.2-31.1-64.6-52.7-95.8-52.7c-42.8,0-52,40.5-52,90.5c0,0.1,0,0.1,0,0.2H2685.3z"/>
		</g>
		<g>
			<path class="st1" d="M2656.7,891.8c-13,0-34.3,5.7-42.3,14.7c0.2-2.1,0.3-4.1,0.3-6.2c0-34.5-13.5-62.4-47.9-62.4
				c-27.6,0-65.3,17.9-73.5,42.8c-6.1-16.8-30.6-22.7-43.5-22.7c-16.2,0-28.1,10.3-31.3,29c-8.4-26.8-14.1-46.2-43.5-46.2
				c-23.2,0-62.5,17.2-74,48.4c-4.8-21.7-46-41.4-66.2-41.4c-27.8,0-36.7,17-46.8,41.1c-9.9-10.9-36.1-17.7-51.9-17.7
				c-20.6,0-26.4,11.6-35.5,28.6c-8.3-19.4-22.2-39.4-41.2-41.7c-12.8-1.6-39.3,10.3-43,20.9c-13.2-22.8-42.4-39.3-80.8-39.3
				c-35.1,0-49.9,25-58.8,57.3c-2.1-0.4-4.3-0.6-6.5-0.6c-7.2,0-14,2.1-19.7,5.6c-7.4-25.1-24-37.9-51.5-37.9
				c-19.2,0-42.8,3.4-53.9,17.4c-7.4-5.2-27.5-8.2-37.2-8.2c-24,0-57.6,22.1-34.4,42h1012.1C2678.3,901.3,2673.4,891.8,2656.7,891.8
				z"/>
		</g>
		<g>
			<path class="st1" d="M753.5,891.8c12.2,0,32.3,5.7,39.9,14.7c-0.2-2.1-0.3-4.1-0.3-6.2c0-34.5,12.8-62.4,45.2-62.4
				c26,0,61.6,17.9,69.3,42.8c5.7-16.8,28.8-22.7,41-22.7c15.3,0,26.5,10.3,29.5,29c7.9-26.8,13.3-46.2,41.1-46.2
				c21.9,0,58.9,17.2,69.8,48.4c4.6-21.7,43.4-41.4,62.4-41.4c26.2,0,34.6,17,44.1,41.1c9.3-10.9,34.1-17.7,49-17.7
				c19.4,0,24.9,11.6,33.5,28.6c7.9-19.4,20.9-39.4,38.9-41.7c12.1-1.6,37.1,10.3,40.5,20.9c12.5-22.8,40-39.3,76.2-39.3
				c33.1,0,47.1,25,55.5,57.3c2-0.4,4-0.6,6.1-0.6c6.8,0,13.2,2.1,18.6,5.6c6.9-25.1,22.6-37.9,48.5-37.9c18.1,0,40.4,3.4,50.8,17.4
				c7-5.2,25.9-8.2,35.1-8.2c22.6,0,54.3,22.1,32.5,42H726.2C733.1,901.3,737.7,891.8,753.5,891.8z"/>
		</g>
	</g>
	<g>
		<g>
			<g class="st12">
				<g>
					<ellipse class="st2" cx="1165.4" cy="1102.2" rx="393.7" ry="18"/>
				</g>
			</g>
			<g>
				<g>
					<polygon class="st15" points="1157.5,906.2 1102.4,1094.7 1212.7,1094.7 					"/>
				</g>
				<g>
					<path class="st23" d="M1157.5,824.6c0,0-82.1,245.2-164.2,270.1h111.1c0,0,46.4-98.3,53.1-139.9V824.6z"/>
				</g>
				<g>
					<path class="st24" d="M1157.5,954.8c0,0-5.5,107.9-26.8,139.9h-55.3C1075.4,1094.7,1140.9,1008.2,1157.5,954.8z"/>
				</g>
				<g>
					<path class="st25" d="M1157.5,954.8c0,0-5,107.9-24,139.9h-49.8C1083.7,1094.7,1142.6,1008.2,1157.5,954.8z"/>
				</g>
				<g>
					<path class="st26" d="M1157.5,837.2v-88.5c0,0-188.3,345.9-284.4,345.9h120.2C993.3,1094.7,1060.5,1101.5,1157.5,837.2z"/>
				</g>
				<g>
					<path class="st27" d="M1157.5,824.6c0,0,82.1,245.2,164.2,270.1h-111.1c0,0-46.4-98.3-53.1-139.9V824.6z"/>
				</g>
				<g>
					<path class="st28" d="M1157.5,954.8c0,0,5.5,107.9,26.8,139.9h55.3C1239.6,1094.7,1174.1,1008.2,1157.5,954.8z"/>
				</g>
				<g>
					<path class="st29" d="M1157.5,954.8c0,0,5,107.9,24,139.9h49.8C1231.3,1094.7,1172.5,1008.2,1157.5,954.8z"/>
				</g>
				<g>
					<path class="st30" d="M1157.5,837.2v-88.5c0,0,188.3,345.9,284.4,345.9h-120.2C1321.7,1094.7,1254.6,1101.5,1157.5,837.2z"/>
				</g>
				<g>
					<path class="st15" d="M818.3,1094.7c0,0,233-165.2,339.2-345.9v-2.6c0,0-25.7,46-80.6,108.7c-88.5,101.2-229.6,223-273.5,239.9
						L818.3,1094.7z"/>
				</g>
				<g>
					<path class="st15" d="M1496.7,1094.7c0,0-233-165.2-339.2-345.9v-2.6c0,0,25.7,46,80.6,108.7c88.5,101.2,229.6,223,273.5,239.9
						L1496.7,1094.7z"/>
				</g>
				<g>
					<g>
						<path class="st15" d="M947.1,1097.7c-0.5,0-1.1-0.1-1.6-0.4c-1.4-0.9-1.8-2.7-1-4.1L1174,720c0.9-1.4,2.7-1.8,4.1-1
							c1.4,0.9,1.8,2.7,1,4.1l-229.5,373.2C949.1,1097.2,948.1,1097.7,947.1,1097.7z"/>
					</g>
					<g>
						<path class="st15" d="M1367.4,1097.7c-1,0-2-0.5-2.6-1.4l-229.5-373.2c-0.9-1.4-0.4-3.2,1-4.1c1.4-0.9,3.2-0.4,4.1,1
							l229.5,373.2c0.9,1.4,0.4,3.2-1,4.1C1368.5,1097.6,1367.9,1097.7,1367.4,1097.7z"/>
					</g>
				</g>
				<g>
					<rect x="792.2" y="1094.1" class="st15" width="730.6" height="7.8"/>
				</g>
			</g>
		</g>
		<g>
			<g class="st12">
				<g>
					<ellipse class="st2" cx="2331.2" cy="1102.2" rx="393.7" ry="18"/>
				</g>
			</g>
			<g>
				<g>
					<polygon class="st15" points="2340,906.2 2284.8,1094.7 2395.1,1094.7 					"/>
				</g>
				<g>
					<path class="st23" d="M2340,824.6c0,0-82.1,245.2-164.2,270.1h111.1c0,0,46.4-98.3,53.1-139.9V824.6z"/>
				</g>
				<g>
					<path class="st24" d="M2340,954.8c0,0-5.5,107.9-26.8,139.9h-55.3C2257.9,1094.7,2323.4,1008.2,2340,954.8z"/>
				</g>
				<g>
					<path class="st25" d="M2340,954.8c0,0-5,107.9-24,139.9h-49.8C2266.2,1094.7,2325,1008.2,2340,954.8z"/>
				</g>
				<g>
					<path class="st26" d="M2340,837.2v-88.5c0,0-188.3,345.9-284.4,345.9h120.2C2175.8,1094.7,2242.9,1101.5,2340,837.2z"/>
				</g>
				<g>
					<path class="st27" d="M2340,824.6c0,0,82.1,245.2,164.2,270.1H2393c0,0-46.4-98.3-53.1-139.9V824.6z"/>
				</g>
				<g>
					<path class="st28" d="M2340,954.8c0,0,5.5,107.9,26.8,139.9h55.3C2422.1,1094.7,2356.6,1008.2,2340,954.8z"/>
				</g>
				<g>
					<path class="st29" d="M2340,954.8c0,0,5,107.9,24,139.9h49.8C2413.8,1094.7,2354.9,1008.2,2340,954.8z"/>
				</g>
				<g>
					<path class="st30" d="M2340,837.2v-88.5c0,0,188.3,345.9,284.4,345.9h-120.2C2504.2,1094.7,2437,1101.5,2340,837.2z"/>
				</g>
				<g>
					<path class="st15" d="M2000.8,1094.7c0,0,233-165.2,339.2-345.9v-2.6c0,0-25.7,46-80.6,108.7
						c-88.5,101.2-229.6,223-273.5,239.9L2000.8,1094.7z"/>
				</g>
				<g>
					<path class="st15" d="M2679.2,1094.7c0,0-233-165.2-339.2-345.9v-2.6c0,0,25.7,46,80.6,108.7c88.5,101.2,229.6,223,273.5,239.9
						L2679.2,1094.7z"/>
				</g>
				<g>
					<g>
						<path class="st15" d="M2129.5,1097.7c-0.5,0-1.1-0.1-1.6-0.4c-1.4-0.9-1.8-2.7-1-4.1L2356.5,720c0.9-1.4,2.7-1.8,4.1-1
							c1.4,0.9,1.8,2.7,1,4.1l-229.5,373.2C2131.5,1097.2,2130.5,1097.7,2129.5,1097.7z"/>
					</g>
					<g>
						<path class="st15" d="M2549.8,1097.7c-1,0-2-0.5-2.6-1.4l-229.5-373.2c-0.9-1.4-0.4-3.2,1-4.1c1.4-0.9,3.2-0.4,4.1,1
							l229.5,373.2c0.9,1.4,0.4,3.2-1,4.1C2550.9,1097.6,2550.4,1097.7,2549.8,1097.7z"/>
					</g>
				</g>
				<g>
					<rect x="1974.7" y="1094.1" class="st15" width="730.6" height="7.8"/>
				</g>
			</g>
		</g>
	</g>
</g>
<g id="OBJECT">
</g>
<g id="TITLE">
</g>
</svg>
