<?xml version="1.0" encoding="utf-8"?>
<!-- Generator: Adobe Illustrator 26.1.0, SVG Export Plug-In . SVG Version: 6.00 Build 0)  -->
<svg version="1.1" id="Layer_1" xmlns="http://www.w3.org/2000/svg" xmlns:xlink="http://www.w3.org/1999/xlink" x="0px" y="0px"
	 viewBox="0 0 1902.5 1249.8" style="enable-background:new 0 0 1902.5 1249.8;" xml:space="preserve">
<style type="text/css">
	.st0{fill:#2E509E;}
	.st1{fill:#364866;}
</style>
<line class="st0" x1="588.7" y1="1004.9" x2="1220.6" y2="1004.9"/>
<line class="st0" x1="722" y1="1067.7" x2="1087.3" y2="1067.7"/>
<rect x="-11.5" y="485.8" class="st0" width="1926.9" height="764"/>
<g>
	<g>
		<rect x="40.7" y="647.1" class="st1" width="49.7" height="270.2"/>
		<g>
			<polyline class="st1" points="180.7,790.2 180.7,895.2 131,895.2 131,624.9 180.7,624.9 			"/>
		</g>
	</g>
	<rect x="186.2" y="640" class="st1" width="49.7" height="270.2"/>
	<g>
		<polyline class="st1" points="306.2,815.1 306.2,920.1 256.5,920.1 256.5,649.8 306.2,649.8 		"/>
	</g>
	<rect x="340.9" y="640" class="st1" width="49.7" height="270.2"/>
	<g>
		<polyline class="st1" points="466.9,777.1 466.9,882.1 417.2,882.1 417.2,611.8 466.9,611.8 		"/>
	</g>
</g>
<g>
	<g>
		<rect x="476.2" y="641.1" class="st1" width="49.7" height="270.2"/>
		<g>
			<polyline class="st1" points="616.2,784.2 616.2,889.2 566.6,889.2 566.6,619 616.2,619 			"/>
		</g>
	</g>
	<rect x="621.7" y="634.1" class="st1" width="49.7" height="270.2"/>
	<g>
		<polyline class="st1" points="741.7,809.2 741.7,914.2 692,914.2 692,643.9 741.7,643.9 		"/>
	</g>
	<rect x="776.5" y="634.1" class="st1" width="49.7" height="270.2"/>
	<g>
		<polyline class="st1" points="902.5,771.2 902.5,876.2 852.8,876.2 852.8,605.9 902.5,605.9 		"/>
	</g>
</g>
<g>
	<g>
		<rect x="919.7" y="622.1" class="st1" width="49.7" height="270.2"/>
		<g>
			<polyline class="st1" points="1059.7,765.2 1059.7,870.2 1010,870.2 1010,600 1059.7,600 			"/>
		</g>
	</g>
	<rect x="1065.2" y="615.1" class="st1" width="49.7" height="270.2"/>
	<g>
		<polyline class="st1" points="1185.2,790.2 1185.2,895.2 1135.5,895.2 1135.5,624.9 1185.2,624.9 		"/>
	</g>
	<rect x="1219.9" y="615.1" class="st1" width="49.7" height="270.2"/>
	<g>
		<polyline class="st1" points="1345.9,752.2 1345.9,857.2 1296.2,857.2 1296.2,586.9 1345.9,586.9 		"/>
	</g>
</g>
<g>
	<g>
		<rect x="1362" y="603.1" class="st1" width="49.7" height="270.2"/>
		<g>
			<polyline class="st1" points="1502,746.2 1502,851.2 1452.3,851.2 1452.3,581 1502,581 			"/>
		</g>
	</g>
	<rect x="1507.4" y="596.1" class="st1" width="49.7" height="270.2"/>
	<g>
		<polyline class="st1" points="1627.4,771.2 1627.4,876.2 1577.7,876.2 1577.7,605.9 1627.4,605.9 		"/>
	</g>
	<rect x="1662.2" y="596.1" class="st1" width="49.7" height="270.2"/>
	<g>
		<polyline class="st1" points="1788.2,733.2 1788.2,838.2 1738.5,838.2 1738.5,567.9 1788.2,567.9 		"/>
	</g>
</g>
<g>
	<g>
		<rect x="1304.9" y="631.3" class="st1" width="35.4" height="192.8"/>
		<g>
			<polyline class="st1" points="1404.8,733.4 1404.8,808.3 1369.3,808.3 1369.3,615.5 1404.8,615.5 			"/>
		</g>
	</g>
	<rect x="1408.7" y="626.2" class="st1" width="35.4" height="192.8"/>
	<g>
		<polyline class="st1" points="1494.3,751.2 1494.3,826.1 1458.8,826.1 1458.8,633.3 1494.3,633.3 		"/>
	</g>
	<rect x="1519.1" y="626.2" class="st1" width="35.4" height="192.8"/>
	<g>
		<polyline class="st1" points="1609,724 1609,798.9 1573.5,798.9 1573.5,606.1 1609,606.1 		"/>
	</g>
</g>
<g>
	<g>
		<rect x="900.6" y="630.3" class="st1" width="35.4" height="192.8"/>
		<g>
			<polyline class="st1" points="1000.5,732.4 1000.5,807.3 965.1,807.3 965.1,614.5 1000.5,614.5 			"/>
		</g>
	</g>
	<rect x="1004.4" y="625.2" class="st1" width="35.4" height="192.8"/>
	<g>
		<polyline class="st1" points="1090,750.2 1090,825.1 1054.6,825.1 1054.6,632.3 1090,632.3 		"/>
	</g>
	<rect x="1114.8" y="625.2" class="st1" width="35.4" height="192.8"/>
	<g>
		<polyline class="st1" points="1204.7,723.1 1204.7,798 1169.3,798 1169.3,605.2 1204.7,605.2 		"/>
	</g>
</g>
<g>
	<g>
		<rect x="1579.9" y="656.2" class="st1" width="35.4" height="192.8"/>
		<g>
			<polyline class="st1" points="1679.8,758.3 1679.8,833.2 1644.3,833.2 1644.3,640.4 1679.8,640.4 			"/>
		</g>
	</g>
	<rect x="1683.6" y="651.2" class="st1" width="35.4" height="192.8"/>
	<g>
		<polyline class="st1" points="1769.3,776.1 1769.3,851 1733.8,851 1733.8,658.2 1769.3,658.2 		"/>
	</g>
	<rect x="1794.1" y="651.2" class="st1" width="35.4" height="192.8"/>
	<g>
		<polyline class="st1" points="1883.9,749 1883.9,823.9 1848.5,823.9 1848.5,631.1 1883.9,631.1 		"/>
	</g>
</g>
<g>
	<g>
		<rect x="527.5" y="659.1" class="st1" width="35.4" height="192.8"/>
		<g>
			<polyline class="st1" points="627.4,761.2 627.4,836.1 591.9,836.1 591.9,643.4 627.4,643.4 			"/>
		</g>
	</g>
	<rect x="631.2" y="654.1" class="st1" width="35.4" height="192.8"/>
	<g>
		<polyline class="st1" points="716.9,779 716.9,853.9 681.4,853.9 681.4,661.1 716.9,661.1 		"/>
	</g>
	<rect x="741.7" y="654.1" class="st1" width="35.4" height="192.8"/>
	<g>
		<polyline class="st1" points="831.5,751.9 831.5,826.8 796.1,826.8 796.1,634 831.5,634 		"/>
	</g>
</g>
<g>
	<g>
		<rect x="3.8" y="690.3" class="st1" width="35.4" height="192.8"/>
		<g>
			<polyline class="st1" points="103.7,792.4 103.7,867.3 68.3,867.3 68.3,674.5 103.7,674.5 			"/>
		</g>
	</g>
	<rect x="107.6" y="685.2" class="st1" width="35.4" height="192.8"/>
	<g>
		<polyline class="st1" points="193.2,810.2 193.2,885.1 157.8,885.1 157.8,692.3 193.2,692.3 		"/>
	</g>
	<rect x="218" y="685.2" class="st1" width="35.4" height="192.8"/>
	<g>
		<polyline class="st1" points="307.9,783 307.9,857.9 272.5,857.9 272.5,665.1 307.9,665.1 		"/>
	</g>
</g>
<g>
	<g>
		<g>
			<g>
				<path class="st0" d="M21.2,296.3v83.8c-4.6,3.6-9.7,6.1-14.7,8.1c-9.7,3.6-19.8,5.1-29,5.6H-23l-4.6-26.9
					C6.5,334.4,21.2,296.3,21.2,296.3z"/>
			</g>
			<g>
				<path class="st0" d="M21.2,332.4v96.5c-1.5,1-3,1.5-4.6,2.5C10.6,434,4,436-3.7,436.5c-4.1,0.5-8.1,0.5-12.7,1l-2.5-15.8
					l-4.6-26.9l0,0c0,0,0.5,0,0.5-0.5C8,363.4,21.2,332.4,21.2,332.4z"/>
			</g>
			<g>
				<path class="st0" d="M21.2,361.3v110.3c-1.5,1-3,1.5-4.6,2.5c-7.6,3.6-16.3,5.6-25.9,6.6c-2,0-4.6,0.5-6.6,0.5
					c2-2.5,3.6-5.1,5.6-7.1l-4.1-23.9l0,0l-2-12.7l-2.5-15.8c10.7-11.7,18.8-23.4,24.9-33C16.2,372.5,21.2,361.3,21.2,361.3z"/>
			</g>
			<g>
				<path class="st0" d="M21.2,393.8v119.9c-1,0.5-1.5,1-2.5,1.5c-4.6,2.5-9.1,4.1-14.2,5.1c-2,0.5-4.6,1-6.6,1.5l-2-13.2l-4.6-28.5
					c-2,0-4.6,0.5-6.6,0.5c2-2.5,3.6-5.1,5.6-7.1l-4.1-23.9l0,0c4.1-4.6,7.6-9.1,10.7-13.7C13.6,412.1,21.2,393.8,21.2,393.8z"/>
			</g>
			<g>
				<path class="st0" d="M21.2,421.3V560c-2,1.5-4.6,2.5-7.1,4.1c-3,1.5-6.1,2.5-9.1,3l-3.6-21.8l-4.1-22.9l-2-13.2l-4.6-28.5
					c-2,0-4.6,0.5-6.6,0.5c2-2.5,3.6-5.1,5.6-7.1c13.2-17.8,22.4-33.5,26.9-42.7C19.7,424.8,21.2,421.3,21.2,421.3z"/>
			</g>
			<g>
				<path class="st0" d="M21.2,464v148.9c-2.5,1.5-5.6,3-8.1,4.1c-1.5,0.5-3,1.5-4.6,2c-0.5-2,0.5-4.6,2.5-5.6c0.5,0,1-0.5,1.5-0.5
					L9,590l-3-20.3l-0.5-2.5l-3.6-21.8l-4.6-22.9l-2-13.2c10.2-14.2,16.8-26.9,20.8-35.1C19.7,467.5,21.2,464,21.2,464z"/>
			</g>
			<g>
				<path class="st0" d="M21.2,509.7v133.6c-1,0.5-2.5,1.5-3.6,2L14.1,624l0,0c-0.5,0-1,0-1.5,0c-2.5-0.5-4.1-2.5-4.6-4.6
					c-0.5-2,0.5-4.6,2.5-5.6c0.5,0,1-0.5,1.5-0.5l-3.6-22.9l-3-20.3L5,567.6l-3.6-21.8c5.6-8.1,9.7-15.8,12.7-21.3
					c2-3.6,3-6.1,4.6-8.6C20.2,511.7,21.2,509.7,21.2,509.7z"/>
			</g>
		</g>
		<g>
			<g>
				<path class="st0" d="M21.2,380.1c21.8,16.8,53.3,14.7,69.6,12.2c4.1-0.5,5.1-5.6,1.5-7.6c-50.8-34-71.1-88.4-71.1-88.4V380.1z"
					/>
			</g>
			<g>
				<path class="st0" d="M21.2,428.4c22.4,13.7,64,7.6,83.3,4.1c3.6-0.5,4.1-5.1,1-7.1c-60.5-35.6-84.8-93-84.8-93v96H21.2z"/>
			</g>
			<g>
				<path class="st0" d="M21.2,471.6c25.4,15.2,73.2,8.6,95,4.6c4.1-1,5.1-6.1,1.5-8.1c-69.1-40.6-96.5-106.2-96.5-106.2V471.6z"/>
			</g>
			<g>
				<path class="st0" d="M21.2,513.7c27.9,17.3,81.8,9.1,105.2,4.6c4.1-0.5,4.6-6.1,1.5-7.6C51.7,466.5,21.2,393.8,21.2,393.8V513.7
					z"/>
			</g>
			<g>
				<path class="st0" d="M21.2,560c32.5,19.8,95.5,10.7,121.9,5.6c4.6-1,5.1-6.6,1.5-9.1C56.3,505.6,21.2,421.3,21.2,421.3V560z"/>
			</g>
			<g>
				<path class="st0" d="M21.2,612.8c34.5,21.3,101.6,11.7,130.6,6.1c5.1-1,6.1-7.6,1.5-10.2C58.8,553.9,20.7,464,20.7,464v148.9
					H21.2z"/>
			</g>
			<g>
				<path class="st0" d="M21.2,643.3c31.5,19.3,92,10.2,117.9,5.1c4.1-1,5.1-6.1,1.5-8.6C55.3,591,21.2,509.7,21.2,509.7V643.3z"/>
			</g>
		</g>
	</g>
	<g>
		<g>
			<g>
				<path class="st0" d="M307.8,407.6c-19.8,14.7-47.8,13.2-62.5,10.7c-3.6-0.5-4.6-5.1-1.5-7.1c45.7-30.5,64-79.3,64-79.3V407.6z"
					/>
			</g>
			<g>
				<path class="st0" d="M307.8,451.3c-19.8,12.2-57.9,7.1-75.2,3.6c-3-0.5-4.1-4.6-1-6.6c54.4-32,76.2-83.8,76.2-83.8V451.3z"/>
			</g>
			<g>
				<path class="st0" d="M307.8,489.9c-22.9,13.7-66,8.1-85.9,4.1c-3.6-0.5-4.6-5.6-1-7.1c62-36.6,86.9-95.5,86.9-95.5L307.8,489.9
					L307.8,489.9z"/>
			</g>
			<g>
				<path class="st0" d="M307.8,528c-25.4,15.2-73.7,8.1-95,4.1c-3.6-0.5-4.1-5.1-1-7.1c68.6-39.6,96-105.2,96-105.2V528z"/>
			</g>
			<g>
				<path class="st0" d="M307.8,569.1c-29.5,17.8-85.9,9.7-109.7,5.1c-4.1-1-4.6-6.1-1.5-8.1c79.3-45.7,111.3-121.4,111.3-121.4
					L307.8,569.1L307.8,569.1z"/>
			</g>
			<g>
				<path class="st0" d="M307.8,616.9c-31.5,19.3-91.5,10.7-117.9,5.1c-4.6-1-5.6-6.6-1.5-9.1c84.8-49.3,118.9-130.6,118.9-130.6
					v134.6H307.8z"/>
			</g>
			<g>
				<path class="st0" d="M307.8,644.3c-28.5,17.3-82.8,9.1-106.2,4.6c-3.6-0.5-4.6-5.6-1-7.6c76.7-44.2,107.2-117.4,107.2-117.4
					L307.8,644.3L307.8,644.3z"/>
			</g>
		</g>
		<g>
			<g>
				<path class="st0" d="M307.8,407.6c19.8,14.7,47.8,13.2,62.5,10.7c3.6-0.5,4.6-5.1,1.5-7.1c-45.7-30.5-64-79.3-64-79.3V407.6z"/>
			</g>
			<g>
				<path class="st0" d="M307.8,451.3c19.8,12.2,57.9,7.1,75.2,3.6c3-0.5,4.1-4.6,1-6.6c-54.4-32-76.2-83.8-76.2-83.8V451.3z"/>
			</g>
			<g>
				<path class="st0" d="M307.8,489.9c22.9,13.7,66,8.1,85.9,4.1c3.6-0.5,4.6-5.6,1-7.1c-62-36.6-86.9-95.5-86.9-95.5L307.8,489.9
					L307.8,489.9z"/>
			</g>
			<g>
				<path class="st0" d="M307.8,528c25.4,15.2,73.7,8.1,95,4.1c3.6-0.5,4.1-5.1,1-7.1c-68.6-39.6-96-105.2-96-105.2V528z"/>
			</g>
			<g>
				<path class="st0" d="M307.8,569.1c29.5,17.8,85.9,9.7,109.7,5.1c4.1-1,4.6-6.1,1.5-8.1c-79.3-45.7-111.3-121.4-111.3-121.4
					L307.8,569.1L307.8,569.1z"/>
			</g>
			<g>
				<path class="st0" d="M307.8,616.9c31.5,19.3,91.5,10.7,117.9,5.1c4.6-1,5.6-6.6,1.5-9.1c-84.8-49.3-118.9-130.6-118.9-130.6
					v134.6H307.8z"/>
			</g>
			<g>
				<path class="st0" d="M307.8,644.3c28.5,17.3,82.8,9.1,106.2,4.6c3.6-0.5,4.6-5.6,1-7.6c-76.7-44.2-107.2-117.4-107.2-117.4
					L307.8,644.3L307.8,644.3z"/>
			</g>
		</g>
	</g>
	<g>
		<g>
			<g>
				<path class="st0" d="M871.7,335.9c-23.9,17.8-57.9,15.8-75.2,13.2c-4.1-0.5-5.1-6.1-2-8.6c54.9-36.6,77.2-96,77.2-96V335.9z"/>
			</g>
			<g>
				<path class="st0" d="M871.7,388.3c-23.9,14.7-69.6,8.1-90.4,4.6c-4.1-0.5-4.6-5.6-1.5-7.6c65.5-38.6,92-101.1,92-101.1V388.3z"
					/>
			</g>
			<g>
				<path class="st0" d="M871.7,434.5c-27.4,16.8-79.3,9.7-103.1,5.1c-4.6-1-5.1-6.6-1.5-8.6c74.7-43.7,104.7-115.3,104.7-115.3
					V434.5z"/>
			</g>
			<g>
				<path class="st0" d="M871.7,480.7c-30.5,18.8-88.9,10.2-114.3,5.1c-4.1-1-5.1-6.6-1.5-8.6c82.8-47.8,115.8-126.5,115.8-126.5
					V480.7z"/>
			</g>
			<g>
				<path class="st0" d="M871.7,531c-35.6,21.8-103.6,11.7-132.6,6.1c-4.6-1-5.6-7.1-1.5-9.7c96-55.4,134.1-146.8,134.1-146.8
					L871.7,531L871.7,531z"/>
			</g>
			<g>
				<path class="st0" d="M871.7,588.4c-37.6,22.9-110.3,12.7-141.8,6.6c-5.6-1-6.6-8.1-1.5-10.7c102.6-59.4,143.8-157.5,143.8-157.5
					v161.6H871.7z"/>
			</g>
			<g>
				<path class="st0" d="M871.7,620.9c-34,20.8-100.1,11.2-128,5.6c-4.6-1-5.6-7.1-1.5-9.1c92.5-53.3,129.6-141.2,129.6-141.2V620.9
					z"/>
			</g>
		</g>
		<g>
			<g>
				<path class="st0" d="M871.7,335.9c23.9,17.8,57.9,15.8,75.2,13.2c4.1-0.5,5.1-6.1,2-8.6c-54.9-36.6-77.2-96-77.2-96V335.9z"/>
			</g>
			<g>
				<path class="st0" d="M871.7,388.3c23.9,14.7,69.6,8.1,90.4,4.6c4.1-0.5,4.6-5.6,1.5-7.6c-65.5-38.6-92-101.1-92-101.1V388.3z"/>
			</g>
			<g>
				<path class="st0" d="M871.7,434.5c27.4,16.8,79.3,9.7,103.1,5.1c4.6-1,5.1-6.6,1.5-8.6c-74.7-43.7-104.7-115.3-104.7-115.3
					V434.5z"/>
			</g>
			<g>
				<path class="st0" d="M871.7,480.7c30.5,18.8,88.9,10.2,114.3,5.1c4.1-1,5.1-6.6,1.5-8.6c-82.8-47.8-115.8-126.5-115.8-126.5
					V480.7z"/>
			</g>
			<g>
				<path class="st0" d="M871.7,531c35.6,21.8,103.6,11.7,132.6,6.1c4.6-1,5.6-7.1,1.5-9.7c-95.5-55.9-134.1-147.3-134.1-147.3V531z
					"/>
			</g>
			<g>
				<path class="st0" d="M871.7,588.4c37.6,22.9,110.3,12.7,141.8,6.6c5.6-1,6.6-8.1,1.5-10.7c-102.6-59.4-143.8-157.5-143.8-157.5
					v161.6H871.7z"/>
			</g>
			<g>
				<path class="st0" d="M871.7,620.9c34,20.8,100.1,11.2,128,5.6c4.6-1,5.6-7.1,1.5-9.1C908.8,564,871.7,476.1,871.7,476.1V620.9z"
					/>
			</g>
		</g>
	</g>
	<g>
		<g>
			<g>
				<path class="st0" d="M1383.9,335.9c-23.9,17.8-57.9,15.8-75.2,13.2c-4.1-0.5-5.1-6.1-2-8.6c54.9-36.6,77.2-96,77.2-96V335.9z"/>
			</g>
			<g>
				<path class="st0" d="M1383.9,388.3c-23.9,14.7-69.6,8.1-90.4,4.6c-4.1-0.5-4.6-5.6-1.5-7.6c65.5-38.6,92-101.1,92-101.1V388.3z"
					/>
			</g>
			<g>
				<path class="st0" d="M1383.9,434.5c-27.4,16.8-79.3,9.7-103.1,5.1c-4.6-1-5.1-6.6-1.5-8.6c74.7-43.7,104.7-115.3,104.7-115.3
					V434.5z"/>
			</g>
			<g>
				<path class="st0" d="M1383.9,480.7c-30.5,18.8-88.9,10.2-114.3,5.1c-4.1-1-5.1-6.6-1.5-8.6c82.8-47.8,115.8-126.5,115.8-126.5
					V480.7z"/>
			</g>
			<g>
				<path class="st0" d="M1383.9,531c-35.6,21.8-103.6,11.7-132.6,6.1c-4.6-1-5.6-7.1-1.5-9.7c96-55.4,134.1-146.8,134.1-146.8
					L1383.9,531L1383.9,531z"/>
			</g>
			<g>
				<path class="st0" d="M1383.9,588.4c-37.6,22.9-110.3,12.7-141.8,6.6c-5.6-1-6.6-8.1-1.5-10.7
					c102.6-59.4,143.8-157.5,143.8-157.5v161.6H1383.9z"/>
			</g>
			<g>
				<path class="st0" d="M1383.9,620.9c-34,20.8-100.1,11.2-128,5.6c-4.6-1-5.6-7.1-1.5-9.1c92.5-53.3,129.6-141.2,129.6-141.2
					V620.9z"/>
			</g>
		</g>
		<g>
			<g>
				<path class="st0" d="M1383.9,335.9c23.9,17.8,57.9,15.8,75.2,13.2c4.1-0.5,5.1-6.1,2-8.6c-54.9-36.6-77.2-96-77.2-96V335.9z"/>
			</g>
			<g>
				<path class="st0" d="M1383.9,388.3c23.9,14.7,69.6,8.1,90.4,4.6c4.1-0.5,4.6-5.6,1.5-7.6c-65.5-38.6-92-101.1-92-101.1V388.3z"
					/>
			</g>
			<g>
				<path class="st0" d="M1383.9,434.5c27.4,16.8,79.3,9.7,103.1,5.1c4.6-1,5.1-6.6,1.5-8.6c-74.7-43.7-104.7-115.3-104.7-115.3
					V434.5z"/>
			</g>
			<g>
				<path class="st0" d="M1383.9,480.7c30.5,18.8,88.9,10.2,114.3,5.1c4.1-1,5.1-6.6,1.5-8.6c-82.8-47.8-115.8-126.5-115.8-126.5
					V480.7z"/>
			</g>
			<g>
				<path class="st0" d="M1383.9,531c35.6,21.8,103.6,11.7,132.6,6.1c4.6-1,5.6-7.1,1.5-9.7c-95.5-55.9-134.1-147.3-134.1-147.3V531
					z"/>
			</g>
			<g>
				<path class="st0" d="M1383.9,588.4c37.6,22.9,110.3,12.7,141.8,6.6c5.6-1,6.6-8.1,1.5-10.7c-102.6-59.4-143.8-157.5-143.8-157.5
					v161.6H1383.9z"/>
			</g>
			<g>
				<path class="st0" d="M1383.9,620.9c34,20.8,100.1,11.2,128,5.6c4.6-1,5.6-7.1,1.5-9.1c-92.5-53.3-129.6-141.2-129.6-141.2V620.9
					z"/>
			</g>
		</g>
	</g>
	<g>
		<g>
			<g>
				<path class="st0" d="M1693.3,335.9c-23.9,17.8-57.9,15.8-75.2,13.2c-4.1-0.5-5.1-6.1-2-8.6c54.9-36.6,77.2-96,77.2-96V335.9z"/>
			</g>
			<g>
				<path class="st0" d="M1693.3,388.3c-23.9,14.7-69.6,8.1-90.4,4.6c-4.1-0.5-4.6-5.6-1.5-7.6c65.5-38.6,92-101.1,92-101.1V388.3z"
					/>
			</g>
			<g>
				<path class="st0" d="M1693.3,434.5c-27.4,16.8-79.3,9.7-103.1,5.1c-4.6-1-5.1-6.6-1.5-8.6c74.7-43.7,104.7-115.3,104.7-115.3
					V434.5z"/>
			</g>
			<g>
				<path class="st0" d="M1693.3,480.7c-30.5,18.8-88.9,10.2-114.3,5.1c-4.1-1-5.1-6.6-1.5-8.6c82.8-47.8,115.8-126.5,115.8-126.5
					V480.7z"/>
			</g>
			<g>
				<path class="st0" d="M1693.3,531c-35.6,21.8-103.6,11.7-132.6,6.1c-4.6-1-5.6-7.1-1.5-9.7c96-55.4,134.1-146.8,134.1-146.8
					L1693.3,531L1693.3,531z"/>
			</g>
			<g>
				<path class="st0" d="M1693.3,588.4c-37.6,22.9-110.3,12.7-141.8,6.6c-5.6-1-6.6-8.1-1.5-10.7
					c102.6-59.4,143.8-157.5,143.8-157.5v161.6H1693.3z"/>
			</g>
			<g>
				<path class="st0" d="M1693.3,620.9c-34,20.8-100.1,11.2-128,5.6c-4.6-1-5.6-7.1-1.5-9.1c92.5-53.3,129.6-141.2,129.6-141.2
					V620.9z"/>
			</g>
		</g>
		<g>
			<g>
				<path class="st0" d="M1693.3,335.9c23.9,17.8,57.9,15.8,75.2,13.2c4.1-0.5,5.1-6.1,2-8.6c-54.9-36.6-77.2-96-77.2-96V335.9z"/>
			</g>
			<g>
				<path class="st0" d="M1693.3,388.3c23.9,14.7,69.6,8.1,90.4,4.6c4.1-0.5,4.6-5.6,1.5-7.6c-65.5-38.6-92-101.1-92-101.1V388.3z"
					/>
			</g>
			<g>
				<path class="st0" d="M1693.3,434.5c27.4,16.8,79.3,9.7,103.1,5.1c4.6-1,5.1-6.6,1.5-8.6c-74.7-43.7-104.7-115.3-104.7-115.3
					V434.5z"/>
			</g>
			<g>
				<path class="st0" d="M1693.3,480.7c30.5,18.8,88.9,10.2,114.3,5.1c4.1-1,5.1-6.6,1.5-8.6c-82.8-47.8-115.8-126.5-115.8-126.5
					V480.7z"/>
			</g>
			<g>
				<path class="st0" d="M1693.3,531c35.6,21.8,103.6,11.7,132.6,6.1c4.6-1,5.6-7.1,1.5-9.7c-95.5-55.9-134.1-147.3-134.1-147.3V531
					z"/>
			</g>
			<g>
				<path class="st0" d="M1693.3,588.4c37.6,22.9,110.3,12.7,141.8,6.6c5.6-1,6.6-8.1,1.5-10.7c-102.6-59.4-143.8-157.5-143.8-157.5
					v161.6H1693.3z"/>
			</g>
			<g>
				<path class="st0" d="M1693.3,620.9c34,20.8,100.1,11.2,128,5.6c4.6-1,5.6-7.1,1.5-9.1c-92.5-53.3-129.6-141.2-129.6-141.2V620.9
					z"/>
			</g>
		</g>
	</g>
	<g>
		<g>
			<g>
				<path class="st0" d="M1868.6,335.9c-23.9,17.8-57.9,15.8-75.2,13.2c-4.1-0.5-5.1-6.1-2-8.6c54.9-36.6,77.2-96,77.2-96V335.9z"/>
			</g>
			<g>
				<path class="st0" d="M1868.6,388.3c-23.9,14.7-69.6,8.1-90.4,4.6c-4.1-0.5-4.6-5.6-1.5-7.6c65.5-38.6,92-101.1,92-101.1V388.3z"
					/>
			</g>
			<g>
				<path class="st0" d="M1868.6,434.5c-27.4,16.8-79.3,9.7-103.1,5.1c-4.6-1-5.1-6.6-1.5-8.6c74.7-43.7,104.7-115.3,104.7-115.3
					V434.5z"/>
			</g>
			<g>
				<path class="st0" d="M1868.6,480.7c-30.5,18.8-88.9,10.2-114.3,5.1c-4.1-1-5.1-6.6-1.5-8.6c82.8-47.8,115.8-126.5,115.8-126.5
					V480.7z"/>
			</g>
			<g>
				<path class="st0" d="M1868.6,531c-35.6,21.8-103.6,11.7-132.6,6.1c-4.6-1-5.6-7.1-1.5-9.7c96-55.4,134.1-146.8,134.1-146.8
					L1868.6,531L1868.6,531z"/>
			</g>
			<g>
				<path class="st0" d="M1868.6,588.4c-37.6,22.9-110.3,12.7-141.8,6.6c-5.6-1-6.6-8.1-1.5-10.7
					c102.6-59.4,143.8-157.5,143.8-157.5v161.6H1868.6z"/>
			</g>
			<g>
				<path class="st0" d="M1868.6,620.9c-34,20.8-100.1,11.2-128,5.6c-4.6-1-5.6-7.1-1.5-9.1c92.5-53.3,129.6-141.2,129.6-141.2
					V620.9z"/>
			</g>
		</g>
		<g>
			<g>
				<path class="st0" d="M1934.6,332.4l-3,17.8c-4.6,0.5-10.2,0.5-15.2,0.5c-10.2-0.5-21.3-2-31.5-6.1c-5.6-2-11.2-5.1-16.3-8.6V245
					C1868.6,245,1887.9,295.8,1934.6,332.4z"/>
			</g>
			<g>
				<path class="st0" d="M1925,393.3c1,1,2,2,3.6,3c-1.5,0-2.5,0-4.1,0.5c-9.7,0.5-19.3,0.5-28.5-0.5c-8.1-1-15.8-2.5-21.8-5.6
					c-2-0.5-3.6-1.5-5.1-2.5V283.6c0,0,14.2,34,47.8,67.1c4.1,4.1,8.6,8.1,13.2,12.2L1925,393.3z"/>
			</g>
			<g>
				<path class="st0" d="M1928,396.9c-1.5,0-2.5,0-4.1,0.5l-4.6,28.5l-3,19.8c-2.5,0-5.1,0-7.6,0c-12.7-0.5-24.9-3-35.1-7.6
					c-2-1-3.6-1.5-5.1-2.5V316.1c0,0,5.1,12.2,16.3,29.5c9.1,14.2,22.4,31.5,40.1,48.8C1926,394.9,1927,395.9,1928,396.9z"/>
			</g>
			<g>
				<path class="st0" d="M1919.9,425.3l-3,19.8l-1,7.6l-6.6,39.1h-0.5c-13.7-1-26.9-4.1-37.1-9.1c-1-0.5-2-1-3-1.5V351.2
					c0,0,8.1,19.8,26.9,45.7C1902.6,405.5,1910.2,415.7,1919.9,425.3z"/>
			</g>
			<g>
				<path class="st0" d="M1902.6,532c2.5,3.6,5.6,7.6,8.6,11.2c-3.6-0.5-7.1-1-10.2-1.5c-12.2-2-23.4-5.6-32-11.2V380.1
					c0,0,1.5,4.1,5.1,10.7c6.1,11.7,17.3,31.5,35.1,53.9c2,2.5,4.1,5.1,6.1,7.6l-6.6,39.1v0.5L1902.6,532z"/>
			</g>
			<g>
				<path class="st0" d="M1911.3,543.2c-3.6-0.5-7.1-1-10.2-1.5l-9.1,55.9c-8.6-2-16.3-5.1-22.9-9.1V426.9c0,0,1.5,4.1,5.1,10.7
					c6.1,11.7,17.3,31.5,34.5,54.4c0,0,0,0,0,0.5l-6.6,39.6C1905.2,535.6,1908.2,539.1,1911.3,543.2z"/>
			</g>
			<g>
				<path class="st0" d="M1911.3,543.2c-3.6-0.5-7.1-1-10.2-1.5l-9.1,55.9l-5.1,31c-6.6-2-12.7-4.6-17.8-7.6V476.1c0,0,1,2,3,6.1
					c4.6,9.1,14.7,27.9,31,49.3C1905.2,535.6,1908.2,539.1,1911.3,543.2z"/>
			</g>
		</g>
	</g>
	<g>
		<g>
			<g>
				<path class="st0" d="M156.4,296.8c-26.9,20.3-65,17.8-84.8,14.7c-4.6-0.5-6.1-6.6-2-9.7c62-41.2,86.9-107.7,86.9-107.7
					L156.4,296.8L156.4,296.8z"/>
			</g>
			<g>
				<path class="st0" d="M156.4,355.7c-26.9,16.3-78.2,9.1-101.6,5.1c-4.1-1-5.1-6.6-1.5-8.6c73.7-43.2,103.1-113.8,103.1-113.8
					V355.7z"/>
			</g>
			<g>
				<path class="st0" d="M156.4,408.1c-31,18.8-89.4,10.7-116.3,5.6c-5.1-1-6.1-7.6-1.5-10.2c83.8-49.3,117.9-129.6,117.9-129.6
					V408.1z"/>
			</g>
			<g>
				<path class="st0" d="M156.4,459.9c-34,20.8-100.1,11.2-128.5,5.6c-4.6-1-5.6-7.1-1.5-9.7c93-53.9,130.1-142.3,130.1-142.3V459.9
					z"/>
			</g>
			<g>
				<path class="st0" d="M156.4,515.8C116.8,540.2,40,529,7.5,522.4c-5.6-1-6.6-8.1-1.5-10.7c107.7-62,150.9-164.6,150.9-164.6
					v168.7H156.4z"/>
			</g>
			<g>
				<path class="st0" d="M156.4,398.9v181.9c-8.1,5.1-18.3,8.6-29,11.2c-13.7,3-29,4.6-44.2,4.6c-14.7,0-29.5-1-42.7-2
					c-6.6-0.5-13.2-1.5-19.3-2.5c-4.6-0.5-8.6-1.5-12.7-2l-3-20.3c3-2,5.6-3.6,8.6-5.6c2.5-1.5,5.1-3.6,7.1-5.1
					c6.6-4.6,13.2-9.7,19.3-14.2c6.1-4.6,11.7-9.7,17.3-14.7c1-0.5,2-1.5,2.5-2.5c1-1,2-2,3.6-3c6.1-5.6,12.2-11.7,17.3-17.3
					c5.6-5.6,10.7-11.7,15.8-17.3c3.6-4.1,6.6-8.1,9.7-12.2c1.5-2,3-4.1,4.6-5.6c1.5-2,3-3.6,4.1-5.6c17.3-22.9,28.5-43.2,34.5-55.4
					C154.4,403.5,156.4,398.9,156.4,398.9z"/>
			</g>
			<g>
				<path class="st0" d="M156.4,454.3v162.6c-9.1,5.6-20.8,9.1-33,11.7c-34.5,6.1-76.2,1-102.1-3.6c-2.5-0.5-5.1-1-7.1-1.5l0,0
					c-0.5,0-1,0-1.5,0c-2.5-0.5-4.1-2.5-4.6-4.6c-0.5-2,0.5-4.6,2.5-5.6c0.5,0,1-0.5,1.5-0.5c3-2,6.1-3.6,9.1-5.6
					c6.6-4.1,13.2-8.6,19.3-13.2c8.1-6.1,16.3-12.2,23.4-18.8c1.5-1,3-2.5,4.1-3.6c6.1-5.6,11.7-10.7,17.3-16.3
					c8.1-8.1,15.8-16.8,22.4-24.9c0.5-0.5,0.5-0.5,1-1c2.5-3,5.1-6.1,7.6-9.1c3-4.1,6.1-8.1,8.6-11.7c14.7-20.8,23.9-38.1,28.5-47.3
					C154.9,456.8,156.4,454.3,156.4,454.3z"/>
			</g>
		</g>
		<g>
			<g>
				<path class="st0" d="M156.4,296.8c26.9,20.3,65,17.8,84.8,14.7c4.6-0.5,6.1-6.6,2-9.7c-62-41.2-86.9-107.7-86.9-107.7
					L156.4,296.8L156.4,296.8z"/>
			</g>
			<g>
				<path class="st0" d="M156.4,355.7c26.9,16.3,78.2,9.1,101.6,5.1c4.1-1,5.1-6.6,1.5-8.6C185.9,309,156.4,238.4,156.4,238.4V355.7
					z"/>
			</g>
			<g>
				<path class="st0" d="M156.4,408.1c31,18.8,89.4,10.7,116.3,5.6c5.1-1,6.1-7.6,1.5-10.2c-83.8-49.3-117.9-129.6-117.9-129.6
					V408.1z"/>
			</g>
			<g>
				<path class="st0" d="M156.4,459.9c34,20.8,100.1,11.2,128.5,5.6c4.6-1,5.6-7.1,1.5-9.7c-93-53.9-130.1-142.3-130.1-142.3V459.9z
					"/>
			</g>
			<g>
				<path class="st0" d="M156.4,515.8c39.6,24.4,116.3,13.2,148.9,6.6c5.6-1,6.6-8.1,1.5-10.7c-107.7-62-150.9-164.6-150.9-164.6
					v168.7H156.4z"/>
			</g>
			<g>
				<path class="st0" d="M156.4,580.3c42.7,25.9,124,14.2,159.5,7.1c6.1-1,7.1-9.1,2-12.2c-115.3-66.6-161.6-176.8-161.6-176.8
					L156.4,580.3L156.4,580.3z"/>
			</g>
			<g>
				<path class="st0" d="M156.4,515.8v101.6c38.6,23.4,112.3,12.2,143.8,6.1c5.1-1,6.1-7.6,1.5-10.2c-103.6-60-145.3-159-145.3-159
					V515.8"/>
			</g>
		</g>
	</g>
	<g>
		<g>
			<g>
				<g>
					<path class="st0" d="M689.9,122c-26.9,20.3-65,17.8-84.8,14.7c-4.6-0.5-6.1-6.6-2-9.7c62-41.2,86.9-107.7,86.9-107.7L689.9,122
						L689.9,122z"/>
				</g>
				<g>
					<path class="st0" d="M689.9,181c-26.9,16.3-78.2,9.1-101.6,5.1c-4.1-1-5.1-6.6-1.5-8.6c73.7-43.2,103.1-113.8,103.1-113.8V181z
						"/>
				</g>
				<g>
					<path class="st0" d="M689.9,232.8c-31,18.8-89.4,10.7-116.3,5.6c-5.1-1-6.1-7.6-1.5-10.2c83.8-49.3,117.9-129.6,117.9-129.6
						V232.8z"/>
				</g>
				<g>
					<path class="st0" d="M689.9,284.6c-34,20.8-100.1,11.2-128.5,5.6c-4.6-1-5.6-7.1-1.5-9.7c93-53.9,130.1-142.3,130.1-142.3
						V284.6z"/>
				</g>
				<g>
					<path class="st0" d="M689.9,341c-39.6,24.4-116.3,13.2-148.9,6.6c-5.6-1-6.6-8.1-1.5-10.7c107.7-62,150.9-164.6,150.9-164.6
						V341H689.9z"/>
				</g>
				<g>
					<path class="st0" d="M689.9,405.5c-42.7,25.9-124,14.2-159.5,7.1c-6.1-1-7.1-9.1-2-12.2c115.3-66.6,161.6-176.8,161.6-176.8
						L689.9,405.5L689.9,405.5z"/>
				</g>
				<g>
					<path class="st0" d="M689.9,442.6c-38.6,23.4-112.3,12.2-143.8,6.1c-5.1-1-6.1-7.6-1.5-10.2c103.6-60,145.3-159,145.3-159
						V442.6z"/>
				</g>
			</g>
			<g>
				<g>
					<path class="st0" d="M689.9,122c26.9,20.3,65,17.8,84.8,14.7c4.6-0.5,6.1-6.6,2-9.7c-62-41.2-86.9-107.7-86.9-107.7L689.9,122
						L689.9,122z"/>
				</g>
				<g>
					<path class="st0" d="M689.9,181c26.9,16.3,78.2,9.1,101.6,5.1c4.1-1,5.1-6.6,1.5-8.6C719.3,134.2,689.9,63.6,689.9,63.6V181z"
						/>
				</g>
				<g>
					<path class="st0" d="M689.9,232.8c31,18.8,89.4,10.7,116.3,5.6c5.1-1,6.1-7.6,1.5-10.2C723.9,178.9,689.9,98.7,689.9,98.7
						V232.8z"/>
				</g>
				<g>
					<path class="st0" d="M689.9,284.6c34,20.8,100.1,11.2,128.5,5.6c4.6-1,5.6-7.1,1.5-9.7c-93-53.9-130.1-142.3-130.1-142.3V284.6
						z"/>
				</g>
				<g>
					<path class="st0" d="M689.9,341c39.6,24.4,116.3,13.2,148.9,6.6c5.6-1,6.6-8.1,1.5-10.7c-107.7-62-150.9-164.6-150.9-164.6V341
						H689.9z"/>
				</g>
				<g>
					<path class="st0" d="M689.9,405.5c42.7,25.9,124,14.2,159.5,7.1c6.1-1,7.1-9.1,2-12.2c-115.3-66.6-161.6-176.8-161.6-176.8
						L689.9,405.5L689.9,405.5z"/>
				</g>
				<g>
					<path class="st0" d="M689.9,442.6c38.6,23.4,112.3,12.2,143.8,6.1c5.1-1,6.1-7.6,1.5-10.2c-103.6-60-145.3-159-145.3-159V442.6
						z"/>
				</g>
			</g>
		</g>
		<g>
			<g>
				<g>
					<path class="st0" d="M689.9,295.8c-26.9,20.3-65,17.8-84.8,14.7c-4.6-0.5-6.1-6.6-2-9.7c62-41.2,86.9-107.7,86.9-107.7
						L689.9,295.8L689.9,295.8z"/>
				</g>
				<g>
					<path class="st0" d="M689.9,354.2c-26.9,16.3-78.2,9.1-101.6,5.1c-4.1-1-5.1-6.6-1.5-8.6c73.7-43.2,103.1-113.8,103.1-113.8
						V354.2z"/>
				</g>
				<g>
					<path class="st0" d="M689.9,406.5c-31,18.8-89.4,10.7-116.3,5.6c-5.1-1-6.1-7.6-1.5-10.2c83.8-49.3,117.9-129.6,117.9-129.6
						V406.5z"/>
				</g>
				<g>
					<path class="st0" d="M689.9,458.4c-34,20.8-100.1,11.2-128.5,5.6c-4.6-1-5.6-7.1-1.5-9.7c93-53.9,130.1-142.3,130.1-142.3
						V458.4z"/>
				</g>
				<g>
					<path class="st0" d="M689.9,514.8c-39.6,24.4-116.3,13.2-148.9,6.6c-5.6-1-6.6-8.1-1.5-10.7c107.7-62,150.9-164.6,150.9-164.6
						v168.7H689.9z"/>
				</g>
				<g>
					<path class="st0" d="M689.9,579.3c-42.7,25.9-124,14.2-159.5,7.1c-6.1-1-7.1-9.1-2-12.2c115.3-66.6,161.6-176.8,161.6-176.8
						L689.9,579.3L689.9,579.3z"/>
				</g>
				<g>
					<path class="st0" d="M689.9,615.9c-38.6,23.4-112.3,12.2-143.8,6.1c-5.1-1-6.1-7.6-1.5-10.2c103.6-60,145.3-159,145.3-159
						V615.9z"/>
				</g>
			</g>
			<g>
				<g>
					<path class="st0" d="M689.9,295.8c26.9,20.3,65,17.8,84.8,14.7c4.6-0.5,6.1-6.6,2-9.7c-62-41.2-86.9-107.7-86.9-107.7
						L689.9,295.8L689.9,295.8z"/>
				</g>
				<g>
					<path class="st0" d="M689.9,354.2c26.9,16.3,78.2,9.1,101.6,5.1c4.1-1,5.1-6.6,1.5-8.6c-73.7-43.2-103.1-113.8-103.1-113.8
						V354.2z"/>
				</g>
				<g>
					<path class="st0" d="M689.9,406.5c31,18.8,89.4,10.7,116.3,5.6c5.1-1,6.1-7.6,1.5-10.2c-83.8-49.3-117.9-129.6-117.9-129.6
						V406.5z"/>
				</g>
				<g>
					<path class="st0" d="M689.9,458.4c34,20.8,100.1,11.2,128.5,5.6c4.6-1,5.6-7.1,1.5-9.7C726.9,400.4,689.9,312,689.9,312V458.4z
						"/>
				</g>
				<g>
					<path class="st0" d="M689.9,514.8c39.6,24.4,116.3,13.2,148.9,6.6c5.6-1,6.6-8.1,1.5-10.7c-107.7-62-150.9-164.6-150.9-164.6
						v168.7H689.9z"/>
				</g>
				<g>
					<path class="st0" d="M689.9,579.3c42.7,25.9,124,14.2,159.5,7.1c6.1-1,7.1-9.1,2-12.2c-115.3-66.6-161.6-176.8-161.6-176.8
						L689.9,579.3L689.9,579.3z"/>
				</g>
				<g>
					<path class="st0" d="M689.9,615.9c38.6,23.4,112.3,12.2,143.8,6.1c5.1-1,6.1-7.6,1.5-10.2c-103.6-60-145.3-159-145.3-159V615.9
						z"/>
				</g>
			</g>
		</g>
	</g>
	<g>
		<g>
			<g>
				<g>
					<path class="st0" d="M1219.3,122c-26.9,20.3-65,17.8-84.8,14.7c-4.6-0.5-6.1-6.6-2-9.7c62-41.2,86.9-107.7,86.9-107.7
						L1219.3,122L1219.3,122z"/>
				</g>
				<g>
					<path class="st0" d="M1219.3,181c-26.9,16.3-78.2,9.1-101.6,5.1c-4.1-1-5.1-6.6-1.5-8.6c73.7-43.2,103.1-113.8,103.1-113.8V181
						z"/>
				</g>
				<g>
					<path class="st0" d="M1219.3,232.8c-31,18.8-89.4,10.7-116.3,5.6c-5.1-1-6.1-7.6-1.5-10.2c83.8-49.3,117.9-129.6,117.9-129.6
						V232.8z"/>
				</g>
				<g>
					<path class="st0" d="M1219.3,284.6c-34,20.8-100.1,11.2-128.5,5.6c-4.6-1-5.6-7.1-1.5-9.7c93-53.9,130.1-142.3,130.1-142.3
						V284.6z"/>
				</g>
				<g>
					<path class="st0" d="M1219.3,341c-39.6,24.4-116.3,13.2-148.9,6.6c-5.6-1-6.6-8.1-1.5-10.7c107.7-62,150.9-164.6,150.9-164.6
						V341H1219.3z"/>
				</g>
				<g>
					<path class="st0" d="M1219.3,405.5c-42.7,25.9-124,14.2-159.5,7.1c-6.1-1-7.1-9.1-2-12.2c115.3-66.6,161.6-176.8,161.6-176.8
						L1219.3,405.5L1219.3,405.5z"/>
				</g>
				<g>
					<path class="st0" d="M1219.3,442.6c-38.6,23.4-112.3,12.2-143.8,6.1c-5.1-1-6.1-7.6-1.5-10.2c103.6-60,145.3-159,145.3-159
						V442.6z"/>
				</g>
			</g>
			<g>
				<g>
					<path class="st0" d="M1219.3,122c26.9,20.3,65,17.8,84.8,14.7c4.6-0.5,6.1-6.6,2-9.7c-62-41.2-86.9-107.7-86.9-107.7
						L1219.3,122L1219.3,122z"/>
				</g>
				<g>
					<path class="st0" d="M1219.3,181c26.9,16.3,78.2,9.1,101.6,5.1c4.1-1,5.1-6.6,1.5-8.6c-73.7-43.2-103.1-113.8-103.1-113.8V181z
						"/>
				</g>
				<g>
					<path class="st0" d="M1219.3,232.8c31,18.8,89.4,10.7,116.3,5.6c5.1-1,6.1-7.6,1.5-10.2c-83.8-49.3-117.9-129.6-117.9-129.6
						V232.8z"/>
				</g>
				<g>
					<path class="st0" d="M1219.3,284.6c34,20.8,100.1,11.2,128.5,5.6c4.6-1,5.6-7.1,1.5-9.7c-93-53.9-130.1-142.3-130.1-142.3
						V284.6z"/>
				</g>
				<g>
					<path class="st0" d="M1219.3,341c39.6,24.4,116.3,13.2,148.9,6.6c5.6-1,6.6-8.1,1.5-10.7c-107.2-62.5-150.4-165.1-150.4-165.1
						V341z"/>
				</g>
				<g>
					<path class="st0" d="M1219.3,405.5c42.7,25.9,124,14.2,159.5,7.1c6.1-1,7.1-9.1,2-12.2c-115.3-66.6-161.6-176.8-161.6-176.8
						L1219.3,405.5L1219.3,405.5z"/>
				</g>
				<g>
					<path class="st0" d="M1219.3,442.6c38.6,23.4,112.3,12.2,143.8,6.1c5.1-1,6.1-7.6,1.5-10.2c-103.6-60-145.3-159-145.3-159
						V442.6z"/>
				</g>
			</g>
		</g>
		<g>
			<g>
				<g>
					<path class="st0" d="M1219.3,295.8c-26.9,20.3-65,17.8-84.8,14.7c-4.6-0.5-6.1-6.6-2-9.7c62-41.2,86.9-107.7,86.9-107.7
						L1219.3,295.8L1219.3,295.8z"/>
				</g>
				<g>
					<path class="st0" d="M1219.3,354.2c-26.9,16.3-78.2,9.1-101.6,5.1c-4.1-1-5.1-6.6-1.5-8.6c73.7-43.2,103.1-113.8,103.1-113.8
						V354.2z"/>
				</g>
				<g>
					<path class="st0" d="M1219.3,406.5c-31,18.8-89.4,10.7-116.3,5.6c-5.1-1-6.1-7.6-1.5-10.2c83.8-49.3,117.9-129.6,117.9-129.6
						V406.5z"/>
				</g>
				<g>
					<path class="st0" d="M1219.3,458.4c-34,20.8-100.1,11.2-128.5,5.6c-4.6-1-5.6-7.1-1.5-9.7c93-53.9,130.1-142.3,130.1-142.3
						V458.4z"/>
				</g>
				<g>
					<path class="st0" d="M1219.3,514.8c-39.6,24.4-116.3,13.2-148.9,6.6c-5.6-1-6.6-8.1-1.5-10.7c107.7-62,150.9-164.6,150.9-164.6
						v168.7H1219.3z"/>
				</g>
				<g>
					<path class="st0" d="M1219.3,579.3c-42.7,25.9-124,14.2-159.5,7.1c-6.1-1-7.1-9.1-2-12.2c115.3-66.6,161.6-176.8,161.6-176.8
						L1219.3,579.3L1219.3,579.3z"/>
				</g>
				<g>
					<path class="st0" d="M1219.3,615.9c-38.6,23.4-112.3,12.2-143.8,6.1c-5.1-1-6.1-7.6-1.5-10.2c103.6-60,145.3-159,145.3-159
						V615.9z"/>
				</g>
			</g>
			<g>
				<g>
					<path class="st0" d="M1219.3,295.8c26.9,20.3,65,17.8,84.8,14.7c4.6-0.5,6.1-6.6,2-9.7c-62-41.2-86.9-107.7-86.9-107.7
						L1219.3,295.8L1219.3,295.8z"/>
				</g>
				<g>
					<path class="st0" d="M1219.3,354.2c26.9,16.3,78.2,9.1,101.6,5.1c4.1-1,5.1-6.6,1.5-8.6c-73.7-43.2-103.1-113.8-103.1-113.8
						V354.2z"/>
				</g>
				<g>
					<path class="st0" d="M1219.3,406.5c31,18.8,89.4,10.7,116.3,5.6c5.1-1,6.1-7.6,1.5-10.2c-83.8-49.3-117.9-129.6-117.9-129.6
						V406.5z"/>
				</g>
				<g>
					<path class="st0" d="M1219.3,458.4c34,20.8,100.1,11.2,128.5,5.6c4.6-1,5.6-7.1,1.5-9.7c-93-53.9-130.1-142.3-130.1-142.3
						V458.4z"/>
				</g>
				<g>
					<path class="st0" d="M1219.3,514.8c39.6,24.4,116.3,13.2,148.9,6.6c5.6-1,6.6-8.1,1.5-10.7c-107.7-62-150.9-164.6-150.9-164.6
						v168.7H1219.3z"/>
				</g>
				<g>
					<path class="st0" d="M1219.3,579.3c42.7,25.9,124,14.2,159.5,7.1c6.1-1,7.1-9.1,2-12.2c-115.3-66.6-161.6-176.8-161.6-176.8
						L1219.3,579.3L1219.3,579.3z"/>
				</g>
				<g>
					<path class="st0" d="M1219.3,615.9c38.6,23.4,112.3,12.2,143.8,6.1c5.1-1,6.1-7.6,1.5-10.2c-103.6-60-145.3-159-145.3-159
						V615.9z"/>
				</g>
			</g>
		</g>
	</g>
	<g>
		<g>
			<g>
				<path class="st0" d="M474.4,250.1c-30.5,22.9-74.2,20.3-96.5,16.8c-5.6-1-6.6-7.6-2.5-10.7c70.6-47.3,99.1-122.4,99.1-122.4
					V250.1z"/>
			</g>
			<g>
				<path class="st0" d="M474.4,317.1c-30.5,18.8-88.9,10.7-115.8,5.6c-5.1-1-6.1-7.6-1.5-10.2C440.9,263.3,474.9,183,474.9,183
					v134.1H474.4z"/>
			</g>
			<g>
				<path class="st0" d="M474.4,376.6c-35.1,21.3-101.6,12.2-132.1,6.6c-5.6-1-6.6-8.6-2-11.2c96-55.9,134.1-147.8,134.1-147.8
					V376.6z"/>
			</g>
			<g>
				<path class="st0" d="M474.4,435.5c-39.1,23.9-113.8,12.7-146.3,6.6c-5.6-1-6.6-8.1-2-11.2c105.7-61,148.4-162.1,148.4-162.1
					V435.5z"/>
			</g>
			<g>
				<path class="st0" d="M474.4,499.5c-45.2,27.4-132.6,14.7-169.7,7.6c-6.1-1-7.6-9.1-2-12.2c122.4-70.6,171.7-187.5,171.7-187.5
					L474.4,499.5L474.4,499.5z"/>
			</g>
			<g>
				<path class="st0" d="M474.4,573.2c-48.3,29.5-141.2,16.3-181.9,8.1c-6.6-1.5-8.1-10.2-2-13.7
					c131.1-76.2,183.9-201.2,183.9-201.2V573.2z"/>
			</g>
			<g>
				<path class="st0" d="M474.4,615.4c-43.7,26.9-128,14.2-163.6,7.1c-5.6-1-7.1-8.6-2-11.7c118.4-68.1,165.6-180.9,165.6-180.9
					L474.4,615.4L474.4,615.4z"/>
			</g>
		</g>
		<g>
			<g>
				<path class="st0" d="M474.4,250.1c30.5,22.9,74.2,20.3,96.5,16.8c5.6-1,6.6-7.6,2.5-10.7c-70.6-47.3-99.1-122.4-99.1-122.4
					V250.1z"/>
			</g>
			<g>
				<path class="st0" d="M474.4,317.1c30.5,18.8,88.9,10.7,115.8,5.6c5.1-1,6.1-7.6,1.5-10.2C508,263.3,473.9,183,473.9,183v134.1
					H474.4z"/>
			</g>
			<g>
				<path class="st0" d="M474.4,376.6c35.1,21.3,101.6,12.2,132.1,6.6c5.6-1,6.6-8.6,2-11.2c-96-55.9-134.1-147.8-134.1-147.8V376.6
					z"/>
			</g>
			<g>
				<path class="st0" d="M474.4,435.5c39.1,23.9,113.8,12.7,146.3,6.6c5.6-1,6.6-8.1,2-11.2c-105.7-61-148.4-162.1-148.4-162.1
					V435.5z"/>
			</g>
			<g>
				<path class="st0" d="M474.4,499.5c45.2,27.4,132.6,14.7,169.7,7.6c6.1-1,7.6-9.1,2-12.2c-122.4-70.6-171.7-187.5-171.7-187.5
					L474.4,499.5L474.4,499.5z"/>
			</g>
			<g>
				<path class="st0" d="M474.4,573.2c48.3,29.5,141.2,16.3,181.9,8.1c6.6-1.5,8.1-10.2,2-13.7c-131.1-76.2-183.9-201.2-183.9-201.2
					V573.2z"/>
			</g>
			<g>
				<path class="st0" d="M474.4,615.4c43.7,26.9,128,14.2,163.6,7.1c5.6-1,7.1-8.6,2-11.7c-118.4-68.1-165.6-180.9-165.6-180.9
					L474.4,615.4L474.4,615.4z"/>
			</g>
		</g>
	</g>
	<g>
		<g>
			<g>
				<path class="st0" d="M1531.2,302.4c-26.4,19.8-64,17.3-83.3,14.2c-4.6-0.5-6.1-6.6-2-9.1c61-40.6,85.4-105.7,85.4-105.7
					L1531.2,302.4L1531.2,302.4z"/>
			</g>
			<g>
				<path class="st0" d="M1531.2,359.8c-26.4,16.3-77.2,9.1-100.1,4.6c-4.1-1-5.1-6.6-1.5-8.6c72.7-42.7,101.6-111.8,101.6-111.8
					V359.8z"/>
			</g>
			<g>
				<path class="st0" d="M1531.2,411.6c-30.5,18.3-87.9,10.7-114.3,5.6c-5.1-1-6.1-7.1-1.5-9.7c82.8-48.3,115.8-127.5,115.8-127.5
					V411.6z"/>
			</g>
			<g>
				<path class="st0" d="M1531.2,462.4c-33.5,20.3-98.6,11.2-126.5,5.6c-4.6-1-5.6-7.1-1.5-9.7c91.5-52.8,128-139.7,128-139.7V462.4
					z"/>
			</g>
			<g>
				<path class="st0" d="M1531.2,517.8c-39.1,23.9-114.3,12.7-146.8,6.6c-5.1-1-6.6-8.1-1.5-10.7c105.7-61,148.4-162.1,148.4-162.1
					V517.8z"/>
			</g>
			<g>
				<path class="st0" d="M1531.2,581.3c-41.7,25.4-121.9,13.7-157,7.1c-6.1-1-7.1-9.1-2-12.2c113.3-65.5,159-173.8,159-173.8
					L1531.2,581.3L1531.2,581.3z"/>
			</g>
			<g>
				<path class="st0" d="M1531.2,617.4c-37.6,22.9-110.8,12.2-141.8,6.1c-5.1-1-6.1-7.6-1.5-10.2
					c102.1-58.9,143.3-156.5,143.3-156.5V617.4z"/>
			</g>
		</g>
		<g>
			<g>
				<path class="st0" d="M1531.2,302.4c26.4,19.8,64,17.3,83.3,14.2c4.6-0.5,6.1-6.6,2-9.1c-61-40.6-85.4-105.7-85.4-105.7
					L1531.2,302.4L1531.2,302.4z"/>
			</g>
			<g>
				<path class="st0" d="M1531.2,359.8c26.4,16.3,77.2,9.1,100.1,4.6c4.1-1,5.1-6.6,1.5-8.6c-72.7-42.7-101.6-111.8-101.6-111.8
					V359.8z"/>
			</g>
			<g>
				<path class="st0" d="M1531.2,411.6c30.5,18.3,87.9,10.7,114.3,5.6c5.1-1,6.1-7.1,1.5-9.7c-82.8-48.3-115.8-127.5-115.8-127.5
					V411.6z"/>
			</g>
			<g>
				<path class="st0" d="M1531.2,462.4c33.5,20.3,98.6,11.2,126.5,5.6c4.6-1,5.6-7.1,1.5-9.7c-91.5-52.8-128-139.7-128-139.7V462.4z
					"/>
			</g>
			<g>
				<path class="st0" d="M1531.2,517.8c39.1,23.9,114.3,12.7,146.8,6.6c5.1-1,6.6-8.1,1.5-10.7c-105.7-61-148.4-162.1-148.4-162.1
					V517.8z"/>
			</g>
			<g>
				<path class="st0" d="M1531.2,581.3c41.7,25.4,121.9,13.7,157,7.1c6.1-1,7.1-9.1,2-12.2c-113.3-65.5-159-173.8-159-173.8
					L1531.2,581.3L1531.2,581.3z"/>
			</g>
			<g>
				<path class="st0" d="M1531.2,617.4c37.6,22.9,110.8,12.2,141.8,6.1c5.1-1,6.1-7.6,1.5-10.2c-102.1-58.9-143.3-156.5-143.3-156.5
					V617.4z"/>
			</g>
		</g>
	</g>
	<g>
		<g>
			<g>
				<path class="st0" d="M1031.3,250.1c-30.5,22.9-74.2,20.3-96.5,16.8c-5.6-1-6.6-7.6-2.5-10.7c70.6-47.3,99.1-122.4,99.1-122.4
					V250.1z"/>
			</g>
			<g>
				<path class="st0" d="M1031.3,317.1c-30.5,18.8-88.9,10.7-115.8,5.6c-5.1-1-6.1-7.6-1.5-10.2c83.8-49.3,117.9-129.6,117.9-129.6
					v134.1H1031.3z"/>
			</g>
			<g>
				<path class="st0" d="M1031.3,376.6c-35.1,21.3-101.6,12.2-132.1,6.6c-5.6-1-6.6-8.6-2-11.2c96-55.9,134.1-147.8,134.1-147.8
					V376.6z"/>
			</g>
			<g>
				<path class="st0" d="M1031.3,435.5c-39.1,23.9-113.8,12.7-146.3,6.6c-5.6-1-6.6-8.1-2-11.2c105.7-61,148.4-162.1,148.4-162.1
					V435.5z"/>
			</g>
			<g>
				<path class="st0" d="M1031.3,499.5c-45.2,27.4-132.6,14.7-169.7,7.6c-6.1-1-7.6-9.1-2-12.2c122.4-70.6,171.7-187.5,171.7-187.5
					L1031.3,499.5L1031.3,499.5z"/>
			</g>
			<g>
				<path class="st0" d="M1031.3,573.2c-48.3,29.5-141.2,16.3-181.9,8.1c-6.6-1.5-8.1-10.2-2-13.7
					c131.1-76.2,183.9-201.2,183.9-201.2V573.2z"/>
			</g>
			<g>
				<path class="st0" d="M1031.3,615.4c-43.7,26.9-128,14.2-163.6,7.1c-5.6-1-7.1-8.6-2-11.7c118.4-68.1,165.6-180.9,165.6-180.9
					L1031.3,615.4L1031.3,615.4z"/>
			</g>
		</g>
		<g>
			<g>
				<path class="st0" d="M1031.3,250.1c30.5,22.9,74.2,20.3,96.5,16.8c5.6-1,6.6-7.6,2.5-10.7c-70.6-47.3-99.1-122.4-99.1-122.4
					V250.1z"/>
			</g>
			<g>
				<path class="st0" d="M1031.3,317.1c30.5,18.8,88.9,10.7,115.8,5.6c5.1-1,6.1-7.6,1.5-10.2c-83.8-49.3-117.9-129.6-117.9-129.6
					v134.1H1031.3z"/>
			</g>
			<g>
				<path class="st0" d="M1031.3,376.6c35.1,21.3,101.6,12.2,132.1,6.6c5.6-1,6.6-8.6,2-11.2c-96-55.9-134.1-147.8-134.1-147.8
					V376.6z"/>
			</g>
			<g>
				<path class="st0" d="M1031.3,435.5c39.1,23.9,113.8,12.7,146.3,6.6c5.6-1,6.6-8.1,2-11.2c-105.7-61-148.4-162.1-148.4-162.1
					V435.5z"/>
			</g>
			<g>
				<path class="st0" d="M1031.3,499.5c45.2,27.4,132.6,14.7,169.7,7.6c6.1-1,7.6-9.1,2-12.2c-122.4-70.6-171.7-187.5-171.7-187.5
					L1031.3,499.5L1031.3,499.5z"/>
			</g>
			<g>
				<path class="st0" d="M1031.3,573.2c48.3,29.5,141.2,16.3,181.9,8.1c6.6-1.5,8.1-10.2,2-13.7
					c-131.1-76.2-183.9-201.2-183.9-201.2V573.2z"/>
			</g>
			<g>
				<path class="st0" d="M1031.3,615.4c43.7,26.9,128,14.2,163.6,7.1c5.6-1,7.1-8.6,2-11.7c-118.4-68.1-165.6-180.9-165.6-180.9
					L1031.3,615.4L1031.3,615.4z"/>
			</g>
		</g>
	</g>
</g>
</svg>
