<?xml version="1.0" encoding="utf-8"?>
<!-- Generator: Adobe Illustrator 26.1.0, SVG Export Plug-In . SVG Version: 6.00 Build 0)  -->
<svg version="1.1" id="Layer_1" xmlns="http://www.w3.org/2000/svg" xmlns:xlink="http://www.w3.org/1999/xlink" x="0px" y="0px"
	 viewBox="0 0 157.9 96.6" style="enable-background:new 0 0 157.9 96.6;" xml:space="preserve">
<style type="text/css">
	.st0{fill-rule:evenodd;clip-rule:evenodd;fill:#719679;}
	.st1{fill:#F9DE3C;}
	.st2{opacity:0.35;}
	.st3{fill:#77BD59;}
	.st4{fill:#4F331C;}
	.st5{fill:#D37C2F;}
	.st6{fill:#754C29;}
	.st7{fill:#D4894B;}
	.st8{fill:#C27618;}
	.st9{fill:#FDF002;}
	.st10{fill:#F5921E;}
	.st11{fill:#F4E5C0;}
	.st12{fill:#FFFFFF;}
</style>
<path id="XMLID_00000026156980088419506460000015687056032689298064_" class="st0" d="M112.4,66.6l-0.2,0.3
	c-3.8,6.8-7.2,11.8-10.4,15.4v-0.7h-0.4v1c-0.2,0.2-0.4,0.4-0.5,0.6l0.3,0.2c0.1-0.1,0.2-0.2,0.2-0.3v0.6h0.4v-1
	c2-2.2,3.9-4.5,5.3-6.8l-4.3,7.6c1.7,0.5,3.4,0.9,5.2,1.1l4.7-8l4.7,8c1.8-0.2,3.5-0.6,5.2-1.1l-4.3-7.6c1.4,2.3,3.2,4.6,5.3,6.8v1
	h0.4v-0.6c0.1,0.1,0.2,0.2,0.2,0.3l0.3-0.2c-0.2-0.2-0.4-0.4-0.5-0.6v-1h-0.4v0.7c-3.2-3.6-6.6-8.5-10.4-15.4l-0.2-0.3l0.5-0.9
	l-0.3-0.2l-0.4,0.8l-0.4-0.8l-0.3,0.2L112.4,66.6z"/>
<path class="st1" d="M30.6,87.9c0,0-0.8-4.1-5.9-4.1c-5.1,0-7.4-0.8-7.4-4.3c0-3.5,2.9-4.5,4.8-1.7c0,0,0.5-4,3.3-4.7
	c0,0-1-5.5-4.7-5.5c-3.7,0-4.7,3.3-4.1,5.9c0,0-7.1-1.9-7.1-9.8c0-8,8.6-8.6,13.3-3.7c0,0,0.8-10.5,7.9-17c7.2,6.5,8,17,8,17
	c4.7-4.9,13.3-4.3,13.3,3.7c0,8-7.1,9.8-7.1,9.8c0.6-2.7-0.4-5.9-4.1-5.9s-4.7,5.5-4.7,5.5c2.8,0.8,3.3,4.7,3.3,4.7
	C41,75,44,76,44,79.5c0,3.5-2.3,4.3-7.5,4.3S30.6,87.9,30.6,87.9L30.6,87.9z"/>
<g>
	<g class="st2">
		<g>
			<ellipse class="st3" cx="101.5" cy="92.6" rx="8.3" ry="0.8"/>
		</g>
	</g>
	<g>
		<g>
			<g>
				<rect x="95.5" y="90.9" class="st4" width="12" height="1.4"/>
			</g>
			<g>
				<g>
					<path class="st5" d="M97.1,92.4c-0.1-0.9-0.8-1.5-1.7-1.5s-1.6,0.7-1.7,1.5H97.1z"/>
				</g>
				<g>
					<g>
						<path class="st4" d="M94.3,92.3c0-0.4,0.4-0.8,0.8-0.9c0.6-0.1,1.3,0.3,1.3,0.9c0,0,0.1,0,0.1,0c0-0.6-0.7-1.1-1.3-1
							C94.8,91.4,94.3,91.8,94.3,92.3C94.3,92.3,94.3,92.3,94.3,92.3L94.3,92.3z"/>
					</g>
				</g>
				<g>
					<g>
						<path class="st4" d="M94.8,92.3c0.1-0.2,0.3-0.4,0.6-0.4c0.3,0,0.6,0.1,0.7,0.4c0,0,0.1,0,0.1,0c-0.1-0.3-0.4-0.5-0.7-0.5
							C95.2,91.8,94.9,92,94.8,92.3C94.7,92.3,94.8,92.3,94.8,92.3L94.8,92.3z"/>
					</g>
				</g>
			</g>
			<g>
				<g>
					<path class="st5" d="M109.2,92.4c-0.1-0.9-0.8-1.5-1.7-1.5s-1.6,0.7-1.7,1.5H109.2z"/>
				</g>
				<g>
					<g>
						<path class="st4" d="M106.4,92.3c0-0.4,0.4-0.8,0.8-0.9c0.6-0.1,1.3,0.3,1.3,0.9c0,0,0.1,0,0.1,0c0-0.6-0.7-1.1-1.3-1
							C106.9,91.4,106.4,91.8,106.4,92.3C106.4,92.3,106.4,92.3,106.4,92.3L106.4,92.3z"/>
					</g>
				</g>
				<g>
					<g>
						<path class="st4" d="M106.9,92.3c0.1-0.2,0.3-0.4,0.6-0.4c0.3,0,0.6,0.1,0.7,0.4c0,0,0.1,0,0.1,0c-0.1-0.3-0.4-0.5-0.7-0.5
							C107.3,91.8,107,92,106.9,92.3C106.8,92.3,106.9,92.3,106.9,92.3L106.9,92.3z"/>
					</g>
				</g>
			</g>
		</g>
		<g>
			<g>
				<rect x="97.8" y="91.8" class="st6" width="7.5" height="1.1"/>
			</g>
			<g>
				<g>
					<path class="st7" d="M98.9,92.8c-0.1-0.6-0.6-1.1-1.2-1.1c-0.6,0-1.2,0.5-1.2,1.1H98.9z"/>
				</g>
				<g>
					<g>
						<path class="st6" d="M96.9,92.8c0.1-0.9,1.5-0.9,1.6,0c0,0,0.1,0,0.1,0C98.4,91.9,96.9,91.9,96.9,92.8
							C96.8,92.8,96.9,92.8,96.9,92.8L96.9,92.8z"/>
					</g>
				</g>
				<g>
					<g>
						<path class="st6" d="M97.2,92.8c0.2-0.3,0.8-0.4,0.9,0c0,0,0.1,0,0,0C98,92.3,97.5,92.4,97.2,92.8
							C97.2,92.8,97.2,92.8,97.2,92.8L97.2,92.8z"/>
					</g>
				</g>
			</g>
			<g>
				<g>
					<path class="st7" d="M106.5,92.8c-0.1-0.6-0.6-1.1-1.2-1.1s-1.2,0.5-1.2,1.1H106.5z"/>
				</g>
				<g>
					<g>
						<path class="st6" d="M104.5,92.8c0.1-0.9,1.5-0.9,1.6,0c0,0,0.1,0,0.1,0C106,91.9,104.5,91.9,104.5,92.8
							C104.4,92.8,104.5,92.8,104.5,92.8L104.5,92.8z"/>
					</g>
				</g>
				<g>
					<g>
						<path class="st6" d="M104.8,92.8c0.2-0.3,0.8-0.4,0.9,0c0,0,0.1,0,0,0C105.6,92.3,105,92.4,104.8,92.8
							C104.8,92.8,104.8,92.8,104.8,92.8L104.8,92.8z"/>
					</g>
				</g>
			</g>
		</g>
		<g>
			<path class="st8" d="M98.5,90.9c-0.1,0-0.2,0.3-0.2,0.4s0.1,0.2,0.2,0.2c0.1,0,0.2-0.1,0.3-0.1c0.1-0.1,0.3-0.1,0.3,0
				c0.1,0.1,0.1,0.2,0.1,0.2c0.1,0.2,0.3,0.2,0.5,0.2c0.2,0,0.4,0,0.5,0.1c0.2,0.1,0.3,0.4,0.5,0.6c0.2,0.2,0.5,0.2,0.7,0.2
				c0.3,0,0.7,0,1-0.3c0.2-0.2,0.2-0.6,0.5-0.7c0.2-0.1,0.3,0,0.5,0.1s0.4,0,0.5-0.1c0-0.1,0-0.1,0-0.2c0.1-0.2,0.3-0.5,0.5-0.6
				H98.5z"/>
		</g>
		<g>
			<path class="st9" d="M101.6,91.6c1.2,0,2.5-0.7,2.9-1.9c0.2-0.6,0.2-1.3-0.3-1.7c0.3,0.3,0.2,0.9-0.2,1s-0.9-0.3-0.8-0.7
				c0.1-0.3,0.4-0.6,0.5-0.9c0.3-0.9,0.1-1.7-0.1-2.1c-0.3-0.6-1-0.8-1.7-0.9c0.6,0.4,0.7,1.5,0.3,2.2c-0.3,0.5-1,0.8-1.3,0.2
				c-0.2-0.4,0-1.1,0.4-1.3c-0.4,0.1-0.8,0.3-1,0.6c-0.3,0.3-0.4,0.7-0.3,1.1c0.1,0.2,0.3,0.4,0.4,0.7c0.1,0.3,0.2,0.6,0,0.9
				c-0.1,0.3-0.5,0.4-0.8,0.2c-0.5-0.3-0.3-1.1-0.8-1.4c0.2,0.3,0.2,0.6,0.2,0.9c-0.1,0.3-0.2,0.6-0.2,1
				C98.8,90.5,100,91.6,101.6,91.6z"/>
		</g>
		<g>
			<path class="st10" d="M101.8,91.3c-1.8,0-2.2-1.3-2.2-1.3s1.5,0.5,1.7-0.6c0.2-0.7-0.5-1.1-0.5-1.7c0.3,0.9,1.3,0.6,1.7-0.4
				c0.2,0.6-0.7,0.8-0.3,1.8c0.3,0.7,1,0.7,1.3,0.5C103.6,89.9,103.1,91.3,101.8,91.3z"/>
		</g>
		<g>
			<circle class="st9" cx="99.8" cy="88.1" r="0.1"/>
		</g>
		<g>
			<path class="st9" d="M101.6,86.1C101.6,86.1,101.5,86.2,101.6,86.1c-0.1,0.1-0.2,0.1-0.2,0S101.4,86,101.6,86.1
				C101.5,86,101.6,86,101.6,86.1z"/>
		</g>
		<g>
			<path class="st9" d="M103.9,88.4c0,0.1-0.1,0.2-0.2,0.2s-0.2-0.1-0.2-0.2s0.1-0.2,0.2-0.2S103.9,88.3,103.9,88.4z"/>
		</g>
		<g>
			<circle class="st9" cx="98.7" cy="88.2" r="0.2"/>
		</g>
		<g>
			<path class="st9" d="M104.7,86.4c0,0.2-0.1,0.3-0.3,0.3s-0.3-0.1-0.3-0.3c0-0.2,0.1-0.3,0.3-0.3S104.7,86.3,104.7,86.4z"/>
		</g>
	</g>
</g>
<path id="XMLID_166_" class="st0" d="M136.7,70.3l-0.2,0.3c-3.8,6.8-7.2,11.8-10.4,15.4v-0.7h-0.4v1c-0.2,0.2-0.4,0.4-0.5,0.6
	l0.3,0.2c0.1-0.1,0.2-0.2,0.2-0.3v0.6h0.4v-1c2-2.2,3.9-4.5,5.3-6.8l-4.3,7.6c1.7,0.5,3.4,0.9,5.2,1.1l4.7-8l4.7,8
	c1.8-0.2,3.5-0.6,5.2-1.1l-4.3-7.6c1.4,2.3,3.2,4.6,5.3,6.8v1h0.4v-0.6c0.1,0.1,0.2,0.2,0.2,0.3l0.3-0.2c-0.2-0.2-0.4-0.4-0.5-0.6
	v-1h-0.4V86c-3.2-3.6-6.6-8.5-10.4-15.4l-0.2-0.3l0.5-0.9l-0.3-0.2l-0.4,0.8l-0.4-0.8l-0.3,0.2L136.7,70.3z"/>
<path id="XMLID_00000098189600257356929810000002705597143746823347_" class="st0" d="M73.9,70.3l-0.2,0.3
	c-3.8,6.8-7.2,11.8-10.4,15.4v-0.7H63v1c-0.2,0.2-0.4,0.4-0.5,0.6l0.3,0.2c0.1-0.1,0.2-0.2,0.2-0.3v0.6h0.4v-1
	c2-2.2,3.9-4.5,5.3-6.8l-4.3,7.6c1.7,0.5,3.4,0.9,5.2,1.1l4.7-8l4.7,8c1.8-0.2,3.5-0.6,5.2-1.1l-4.3-7.6c1.4,2.3,3.2,4.6,5.3,6.8v1
	h0.4v-0.6c0.1,0.1,0.2,0.2,0.2,0.3l0.3-0.2c-0.2-0.2-0.4-0.4-0.5-0.6v-1h-0.4V86c-3.2-3.6-6.6-8.5-10.4-15.4l-0.2-0.3l0.5-0.9
	l-0.3-0.2L74.1,70l-0.4-0.8l-0.3,0.2L73.9,70.3z"/>
<circle class="st11" cx="74.1" cy="15.1" r="13.1"/>
<g>
	<path class="st12" d="M107.4,23c-2.6-4-7.2-6.6-12.3-6.6c-3.7,0-7,1.3-9.6,3.6c-1-3.8-4.5-6.6-8.6-6.6c-1,0-2,0.2-2.9,0.5
		c-1.1-4.6-5.2-8-10.2-8c-4.8,0-8.9,3.3-10.1,7.7c-0.6-0.1-1.3-0.2-2-0.2c-3.7,0-6.8,2.2-8.2,5.4c-2-1.2-4.3-1.9-6.8-1.9
		c-4.7,0-8.8,2.5-11.1,6.2H107.4z"/>
</g>
<g>
	<path class="st12" d="M140,30.7c-2.2-3-5.7-5-9.7-5c-2.5,0-4.8,0.8-6.7,2.1c0-0.3,0-0.6,0-0.8c0-5-4-9-9-9c-4.9,0-8.9,3.9-9,8.8
		c-1.1-0.6-2.4-1-3.8-1c-3.3,0-6.1,2.1-7.2,5H140z"/>
</g>
</svg>
