<?xml version="1.0" encoding="utf-8"?>
<!-- Generator: Adobe Illustrator 26.1.0, SVG Export Plug-In . SVG Version: 6.00 Build 0)  -->
<svg version="1.1" id="Layer_1" xmlns="http://www.w3.org/2000/svg" xmlns:xlink="http://www.w3.org/1999/xlink" x="0px" y="0px"
	 viewBox="0 0 1902.5 1249.8" style="enable-background:new 0 0 1902.5 1249.8;" xml:space="preserve">
<style type="text/css">
	.st0{fill:#232F47;}
	.st1{fill:#2E509E;}
	.st2{fill:#F9DE3C;}
	.st3{fill:none;stroke:#2E509E;stroke-width:7.0127;stroke-miterlimit:10;}
	.st4{fill:#FFFFFF;}
	.st5{font-family:'Roboto-Bold';}
	.st6{font-size:241.8545px;}
	.st7{font-size:120.9272px;}
	.st8{font-size:84.6491px;}
</style>
<g>
	<path class="st0" d="M952.7,124.1c405.6,0,707.7,188.6,786.1,242.7c12.4,8.5,18.6,23,16.1,37.5l-99,595.4
		c-2.5,15.3-14.4,27.8-30.1,31.4l-616.9,135.8c-18.6,4-37.1,6-56.1,6s-37.6-2-56.1-6l-616.9-135.8c-15.7-3.6-27.6-15.7-30.1-31.4
		l-99-595.4c-2.5-14.5,3.7-29,16.1-37.5C245,312.8,547,124.1,952.7,124.1 M952.7,59.6c-423,0-737.8,194.7-824,254.4
		C96,336.6,79.1,376.1,85.3,414.4l99,595.4c7,41.5,38.8,74.6,80.9,83.8l616.9,135.8c23.1,5.2,47,7.7,70.6,7.7
		c23.5,0,47.5-2.4,70.6-7.7l616.9-135.8c42.1-9.3,73.9-42.3,80.9-83.8l99-595.4c6.6-38.7-10.3-78.2-43.3-100.4
		C1690.5,254.3,1375.6,59.6,952.7,59.6L952.7,59.6z"/>
</g>
<g>
	<g>
		<path class="st1" d="M955,67.9c396.2,0,691.3,188.6,767.9,242.7c12.1,8.5,18.1,23,15.7,37.5l-96.7,595.4
			c-2.4,15.3-14.1,27.8-29.4,31.4l-602.6,135.8c-18.1,4-36.3,6-54.8,6c-18.5,0-36.7-2-54.8-6L297.5,974.9
			c-15.3-3.6-27-15.7-29.4-31.4L171.4,348c-2.4-14.5,3.6-29,15.7-37.5C263.7,256.5,558.7,67.9,955,67.9 M955,3.4
			c-413.2,0-720.7,194.7-805,254.4c-31.8,22.6-48.4,62.1-42.3,100.4l96.7,595.4c6.9,41.5,37.9,74.6,79,83.8l602.6,135.8
			c22.6,5.2,46,7.7,68.9,7.7c23,0,46.4-2.4,68.9-7.7l602.6-135.8c41.1-9.3,72.2-42.3,79-83.8l96.7-595.4
			c6.4-38.7-10.1-78.2-42.3-100.4C1675.7,198.1,1368.2,3.4,955,3.4L955,3.4z"/>
	</g>
	<g>
		<path class="st2" d="M1010.2,1110.7l602.6-135.8c15.3-3.6,27-15.7,29.4-31.4L1739,348c2.4-14.5-3.6-29-15.7-37.5
			c-76.6-54-371.6-242.7-767.9-242.7S263.7,256.5,187.1,310.6c-12.1,8.5-18.1,23-15.7,37.5l96.7,595.4c2.4,15.3,14.1,27.8,29.4,31.4
			l602.6,135.8C936.4,1118.8,973.9,1118.8,1010.2,1110.7z"/>
	</g>
	<g>
		<g>
			<g>
				<g>
					<path class="st1" d="M217.7,336.8v66.5c-3.6,2.8-7.7,4.8-11.7,6.4c-7.7,2.8-15.7,4-23,4.4h-0.4l-3.6-21.4
						C206,367,217.7,336.8,217.7,336.8z"/>
				</g>
				<g>
					<path class="st1" d="M217.7,365.4V442c-1.2,0.8-2.4,1.2-3.6,2c-4.8,2-10.1,3.6-16.1,4c-3.2,0.4-6.4,0.4-10.1,0.8l-2-12.5
						l-3.6-21.4l0,0c0,0,0.4,0,0.4-0.4C207.3,390,217.7,365.4,217.7,365.4z"/>
				</g>
				<g>
					<path class="st1" d="M217.7,388.4v87.5c-1.2,0.8-2.4,1.2-3.6,2c-6,2.8-12.9,4.4-20.6,5.2c-1.6,0-3.6,0.4-5.2,0.4
						c1.6-2,2.8-4,4.4-5.6l-3.2-18.9l0,0l-1.6-10.1l-2-12.5c8.5-9.3,14.9-18.5,19.8-26.2C213.7,397.2,217.7,388.4,217.7,388.4z"/>
				</g>
				<g>
					<path class="st1" d="M217.7,414.2v95.1c-0.8,0.4-1.2,0.8-2,1.2c-3.6,2-7.3,3.2-11.3,4c-1.6,0.4-3.6,0.8-5.2,1.2l-1.6-10.5
						l-3.6-22.6c-1.6,0-3.6,0.4-5.2,0.4c1.6-2,2.8-4,4.4-5.6l-3.2-18.9l0,0c3.2-3.6,6-7.3,8.5-10.9
						C211.7,428.7,217.7,414.2,217.7,414.2z"/>
				</g>
				<g>
					<path class="st1" d="M217.7,435.9v110c-1.6,1.2-3.6,2-5.6,3.2c-2.4,1.2-4.8,2-7.3,2.4l-2.8-17.3l-3.2-18.1l-1.6-10.5l-3.6-22.6
						c-1.6,0-3.6,0.4-5.2,0.4c1.6-2,2.8-4,4.4-5.6c10.5-14.1,17.7-26.6,21.4-33.9C216.5,438.7,217.7,435.9,217.7,435.9z"/>
				</g>
				<g>
					<path class="st1" d="M217.7,469.8v118.1c-2,1.2-4.4,2.4-6.4,3.2c-1.2,0.4-2.4,1.2-3.6,1.6c-0.4-1.6,0.4-3.6,2-4.4
						c0.4,0,0.8-0.4,1.2-0.4l-2.8-18.1l-2.4-16.1l-0.4-2l-2.8-17.3l-3.6-18.1l-1.6-10.5c8.1-11.3,13.3-21.4,16.5-27.8
						C216.5,472.6,217.7,469.8,217.7,469.8z"/>
				</g>
				<g>
					<path class="st1" d="M217.7,506.1v106c-0.8,0.4-2,1.2-2.8,1.6l-2.8-16.9l0,0c-0.4,0-0.8,0-1.2,0c-2-0.4-3.2-2-3.6-3.6
						c-0.4-1.6,0.4-3.6,2-4.4c0.4,0,0.8-0.4,1.2-0.4l-2.8-18.1l-2.4-16.1l-0.4-2l-2.8-17.3c4.4-6.4,7.7-12.5,10.1-16.9
						c1.6-2.8,2.4-4.8,3.6-6.9C216.9,507.7,217.7,506.1,217.7,506.1z"/>
				</g>
			</g>
			<g>
				<g>
					<path class="st1" d="M217.7,403.3c17.3,13.3,42.3,11.7,55.2,9.7c3.2-0.4,4-4.4,1.2-6c-40.3-27-56.4-70.1-56.4-70.1V403.3z"/>
				</g>
				<g>
					<path class="st1" d="M217.7,441.6c17.7,10.9,50.8,6,66.1,3.2c2.8-0.4,3.2-4,0.8-5.6c-48-28.2-67.3-73.8-67.3-73.8v76.2H217.7z"
						/>
				</g>
				<g>
					<path class="st1" d="M217.7,475.8c20.2,12.1,58,6.9,75.4,3.6c3.2-0.8,4-4.8,1.2-6.4c-54.8-32.2-76.6-84.2-76.6-84.2V475.8z"/>
				</g>
				<g>
					<path class="st1" d="M217.7,509.3c22.2,13.7,64.9,7.3,83.4,3.6c3.2-0.4,3.6-4.8,1.2-6c-60.5-35.1-84.6-92.7-84.6-92.7V509.3z"
						/>
				</g>
				<g>
					<path class="st1" d="M217.7,546c25.8,15.7,75.8,8.5,96.7,4.4c3.6-0.8,4-5.2,1.2-7.3c-70.1-40.3-98-107.2-98-107.2V546z"/>
				</g>
				<g>
					<path class="st1" d="M217.7,587.9c27.4,16.9,80.6,9.3,103.6,4.8c4-0.8,4.8-6,1.2-8.1c-75-43.5-105.2-114.9-105.2-114.9v118.1
						H217.7z"/>
				</g>
				<g>
					<path class="st1" d="M217.7,612.1c25,15.3,73,8.1,93.5,4c3.2-0.8,4-4.8,1.2-6.9c-67.7-38.7-94.7-103.2-94.7-103.2V612.1z"/>
				</g>
			</g>
		</g>
		<g>
			<g>
				<g>
					<path class="st1" d="M445.1,425c-15.7,11.7-37.9,10.5-49.6,8.5c-2.8-0.4-3.6-4-1.2-5.6c36.3-24.2,50.8-62.9,50.8-62.9V425z"/>
				</g>
				<g>
					<path class="st1" d="M445.1,459.7c-15.7,9.7-46,5.6-59.7,2.8c-2.4-0.4-3.2-3.6-0.8-5.2c43.1-25.4,60.5-66.5,60.5-66.5V459.7z"
						/>
				</g>
				<g>
					<path class="st1" d="M445.1,490.3c-18.1,10.9-52.4,6.4-68.1,3.2c-2.8-0.4-3.6-4.4-0.8-5.6c49.2-29,68.9-75.8,68.9-75.8
						L445.1,490.3L445.1,490.3z"/>
				</g>
				<g>
					<path class="st1" d="M445.1,520.6c-20.2,12.1-58.4,6.4-75.4,3.2c-2.8-0.4-3.2-4-0.8-5.6c54.4-31.4,76.2-83.4,76.2-83.4V520.6z"
						/>
				</g>
				<g>
					<path class="st1" d="M445.1,553.2c-23.4,14.1-68.1,7.7-87.1,4c-3.2-0.8-3.6-4.8-1.2-6.4c62.9-36.3,88.3-96.3,88.3-96.3
						L445.1,553.2L445.1,553.2z"/>
				</g>
				<g>
					<path class="st1" d="M445.1,591.1c-25,15.3-72.6,8.5-93.5,4c-3.6-0.8-4.4-5.2-1.2-7.3c67.3-39.1,94.3-103.6,94.3-103.6v106.8
						H445.1z"/>
				</g>
				<g>
					<path class="st1" d="M445.1,612.9c-22.6,13.7-65.7,7.3-84.2,3.6c-2.8-0.4-3.6-4.4-0.8-6c60.9-35.1,85.1-93.1,85.1-93.1
						L445.1,612.9L445.1,612.9z"/>
				</g>
			</g>
			<g>
				<g>
					<path class="st1" d="M445.1,425c15.7,11.7,37.9,10.5,49.6,8.5c2.8-0.4,3.6-4,1.2-5.6c-36.3-24.2-50.8-62.9-50.8-62.9V425z"/>
				</g>
				<g>
					<path class="st1" d="M445.1,459.7c15.7,9.7,46,5.6,59.7,2.8c2.4-0.4,3.2-3.6,0.8-5.2c-43.1-25.4-60.5-66.5-60.5-66.5V459.7z"/>
				</g>
				<g>
					<path class="st1" d="M445.1,490.3c18.1,10.9,52.4,6.4,68.1,3.2c2.8-0.4,3.6-4.4,0.8-5.6c-49.2-29-68.9-75.8-68.9-75.8
						L445.1,490.3L445.1,490.3z"/>
				</g>
				<g>
					<path class="st1" d="M445.1,520.6c20.2,12.1,58.4,6.4,75.4,3.2c2.8-0.4,3.2-4,0.8-5.6c-54.4-31.4-76.2-83.4-76.2-83.4V520.6z"
						/>
				</g>
				<g>
					<path class="st1" d="M445.1,553.2c23.4,14.1,68.1,7.7,87.1,4c3.2-0.8,3.6-4.8,1.2-6.4c-62.9-36.3-88.3-96.3-88.3-96.3
						L445.1,553.2L445.1,553.2z"/>
				</g>
				<g>
					<path class="st1" d="M445.1,591.1c25,15.3,72.6,8.5,93.5,4c3.6-0.8,4.4-5.2,1.2-7.3c-67.3-39.1-94.3-103.6-94.3-103.6v106.8
						H445.1z"/>
				</g>
				<g>
					<path class="st1" d="M445.1,612.9c22.6,13.7,65.7,7.3,84.2,3.6c2.8-0.4,3.6-4.4,0.8-6c-60.9-35.1-85.1-93.1-85.1-93.1
						L445.1,612.9L445.1,612.9z"/>
				</g>
			</g>
		</g>
		<g>
			<g>
				<g>
					<path class="st1" d="M892.5,368.2c-18.9,14.1-46,12.5-59.7,10.5c-3.2-0.4-4-4.8-1.6-6.9c43.5-29,61.3-76.2,61.3-76.2V368.2z"/>
				</g>
				<g>
					<path class="st1" d="M892.5,409.7c-18.9,11.7-55.2,6.4-71.8,3.6c-3.2-0.4-3.6-4.4-1.2-6c52-30.6,73-80.2,73-80.2V409.7z"/>
				</g>
				<g>
					<path class="st1" d="M892.5,446.4c-21.8,13.3-62.9,7.7-81.8,4c-3.6-0.8-4-5.2-1.2-6.9c59.3-34.7,83-91.5,83-91.5V446.4z"/>
				</g>
				<g>
					<path class="st1" d="M892.5,483.1c-24.2,14.9-70.5,8.1-90.7,4c-3.2-0.8-4-5.2-1.2-6.9c65.7-37.9,91.9-100.4,91.9-100.4V483.1z"
						/>
				</g>
				<g>
					<path class="st1" d="M892.5,523c-28.2,17.3-82.2,9.3-105.2,4.8c-3.6-0.8-4.4-5.6-1.2-7.7c76.2-43.9,106.4-116.5,106.4-116.5
						L892.5,523L892.5,523z"/>
				</g>
				<g>
					<path class="st1" d="M892.5,568.5c-29.8,18.1-87.5,10.1-112.5,5.2c-4.4-0.8-5.2-6.4-1.2-8.5c81.4-47.2,114.1-125,114.1-125
						v128.2H892.5z"/>
				</g>
				<g>
					<path class="st1" d="M892.5,594.3c-27,16.5-79.4,8.9-101.6,4.4c-3.6-0.8-4.4-5.6-1.2-7.3c73.4-42.3,102.8-112.1,102.8-112.1
						V594.3z"/>
				</g>
			</g>
			<g>
				<g>
					<path class="st1" d="M892.5,368.2c18.9,14.1,46,12.5,59.7,10.5c3.2-0.4,4-4.8,1.6-6.9c-43.5-29-61.3-76.2-61.3-76.2V368.2z"/>
				</g>
				<g>
					<path class="st1" d="M892.5,409.7c18.9,11.7,55.2,6.4,71.8,3.6c3.2-0.4,3.6-4.4,1.2-6c-52-30.6-73-80.2-73-80.2V409.7z"/>
				</g>
				<g>
					<path class="st1" d="M892.5,446.4c21.8,13.3,62.9,7.7,81.8,4c3.6-0.8,4-5.2,1.2-6.9c-59.3-34.7-83-91.5-83-91.5V446.4z"/>
				</g>
				<g>
					<path class="st1" d="M892.5,483.1c24.2,14.9,70.5,8.1,90.7,4c3.2-0.8,4-5.2,1.2-6.9c-65.7-37.9-91.9-100.4-91.9-100.4V483.1z"
						/>
				</g>
				<g>
					<path class="st1" d="M892.5,523c28.2,17.3,82.2,9.3,105.2,4.8c3.6-0.8,4.4-5.6,1.2-7.7c-75.8-44.3-106.4-116.9-106.4-116.9V523
						z"/>
				</g>
				<g>
					<path class="st1" d="M892.5,568.5c29.8,18.1,87.5,10.1,112.5,5.2c4.4-0.8,5.2-6.4,1.2-8.5c-81.4-47.2-114.1-125-114.1-125
						v128.2H892.5z"/>
				</g>
				<g>
					<path class="st1" d="M892.5,594.3c27,16.5,79.4,8.9,101.6,4.4c3.6-0.8,4.4-5.6,1.2-7.3c-73.4-42.3-102.8-112.1-102.8-112.1
						V594.3z"/>
				</g>
			</g>
		</g>
		<g>
			<g>
				<g>
					<path class="st1" d="M1298.8,368.2c-18.9,14.1-46,12.5-59.7,10.5c-3.2-0.4-4-4.8-1.6-6.9c43.5-29,61.3-76.2,61.3-76.2V368.2z"
						/>
				</g>
				<g>
					<path class="st1" d="M1298.8,409.7c-18.9,11.7-55.2,6.4-71.8,3.6c-3.2-0.4-3.6-4.4-1.2-6c52-30.6,73-80.2,73-80.2V409.7z"/>
				</g>
				<g>
					<path class="st1" d="M1298.8,446.4c-21.8,13.3-62.9,7.7-81.8,4c-3.6-0.8-4-5.2-1.2-6.9c59.3-34.7,83-91.5,83-91.5V446.4z"/>
				</g>
				<g>
					<path class="st1" d="M1298.8,483.1c-24.2,14.9-70.5,8.1-90.7,4c-3.2-0.8-4-5.2-1.2-6.9c65.7-37.9,91.9-100.4,91.9-100.4V483.1z
						"/>
				</g>
				<g>
					<path class="st1" d="M1298.8,523c-28.2,17.3-82.2,9.3-105.2,4.8c-3.6-0.8-4.4-5.6-1.2-7.7c76.2-43.9,106.4-116.5,106.4-116.5
						L1298.8,523L1298.8,523z"/>
				</g>
				<g>
					<path class="st1" d="M1298.8,568.5c-29.8,18.1-87.5,10.1-112.5,5.2c-4.4-0.8-5.2-6.4-1.2-8.5c81.4-47.2,114.1-125,114.1-125
						v128.2H1298.8z"/>
				</g>
				<g>
					<path class="st1" d="M1298.8,594.3c-27,16.5-79.4,8.9-101.6,4.4c-3.6-0.8-4.4-5.6-1.2-7.3c73.4-42.3,102.8-112.1,102.8-112.1
						V594.3z"/>
				</g>
			</g>
			<g>
				<g>
					<path class="st1" d="M1298.8,368.2c18.9,14.1,46,12.5,59.7,10.5c3.2-0.4,4-4.8,1.6-6.9c-43.5-29-61.3-76.2-61.3-76.2V368.2z"/>
				</g>
				<g>
					<path class="st1" d="M1298.8,409.7c18.9,11.7,55.2,6.4,71.8,3.6c3.2-0.4,3.6-4.4,1.2-6c-52-30.6-73-80.2-73-80.2V409.7z"/>
				</g>
				<g>
					<path class="st1" d="M1298.8,446.4c21.8,13.3,62.9,7.7,81.8,4c3.6-0.8,4-5.2,1.2-6.9c-59.3-34.7-83-91.5-83-91.5V446.4z"/>
				</g>
				<g>
					<path class="st1" d="M1298.8,483.1c24.2,14.9,70.5,8.1,90.7,4c3.2-0.8,4-5.2,1.2-6.9c-65.7-37.9-91.9-100.4-91.9-100.4V483.1z"
						/>
				</g>
				<g>
					<path class="st1" d="M1298.8,523c28.2,17.3,82.2,9.3,105.2,4.8c3.6-0.8,4.4-5.6,1.2-7.7c-75.8-44.3-106.4-116.9-106.4-116.9
						V523z"/>
				</g>
				<g>
					<path class="st1" d="M1298.8,568.5c29.8,18.1,87.5,10.1,112.5,5.2c4.4-0.8,5.2-6.4,1.2-8.5c-81.4-47.2-114.1-125-114.1-125
						v128.2H1298.8z"/>
				</g>
				<g>
					<path class="st1" d="M1298.8,594.3c27,16.5,79.4,8.9,101.6,4.4c3.6-0.8,4.4-5.6,1.2-7.3c-73.4-42.3-102.8-112.1-102.8-112.1
						V594.3z"/>
				</g>
			</g>
		</g>
		<g>
			<g>
				<g>
					<path class="st1" d="M1544.3,368.2c-18.9,14.1-46,12.5-59.7,10.5c-3.2-0.4-4-4.8-1.6-6.9c43.5-29,61.3-76.2,61.3-76.2V368.2z"
						/>
				</g>
				<g>
					<path class="st1" d="M1544.3,409.7c-18.9,11.7-55.2,6.4-71.8,3.6c-3.2-0.4-3.6-4.4-1.2-6c52-30.6,73-80.2,73-80.2V409.7z"/>
				</g>
				<g>
					<path class="st1" d="M1544.3,446.4c-21.8,13.3-62.9,7.7-81.8,4c-3.6-0.8-4-5.2-1.2-6.9c59.3-34.7,83-91.5,83-91.5V446.4z"/>
				</g>
				<g>
					<path class="st1" d="M1544.3,483.1c-24.2,14.9-70.5,8.1-90.7,4c-3.2-0.8-4-5.2-1.2-6.9c65.7-37.9,91.9-100.4,91.9-100.4V483.1z
						"/>
				</g>
				<g>
					<path class="st1" d="M1544.3,523c-28.2,17.3-82.2,9.3-105.2,4.8c-3.6-0.8-4.4-5.6-1.2-7.7c76.2-43.9,106.4-116.5,106.4-116.5
						L1544.3,523L1544.3,523z"/>
				</g>
				<g>
					<path class="st1" d="M1544.3,568.5c-29.8,18.1-87.5,10.1-112.5,5.2c-4.4-0.8-5.2-6.4-1.2-8.5c81.4-47.2,114.1-125,114.1-125
						v128.2H1544.3z"/>
				</g>
				<g>
					<path class="st1" d="M1544.3,594.3c-27,16.5-79.4,8.9-101.6,4.4c-3.6-0.8-4.4-5.6-1.2-7.3c73.4-42.3,102.8-112.1,102.8-112.1
						V594.3z"/>
				</g>
			</g>
			<g>
				<g>
					<path class="st1" d="M1544.3,368.2c18.9,14.1,46,12.5,59.7,10.5c3.2-0.4,4-4.8,1.6-6.9c-43.5-29-61.3-76.2-61.3-76.2V368.2z"/>
				</g>
				<g>
					<path class="st1" d="M1544.3,409.7c18.9,11.7,55.2,6.4,71.8,3.6c3.2-0.4,3.6-4.4,1.2-6c-52-30.6-73-80.2-73-80.2V409.7z"/>
				</g>
				<g>
					<path class="st1" d="M1544.3,446.4c21.8,13.3,62.9,7.7,81.8,4c3.6-0.8,4-5.2,1.2-6.9c-59.3-34.7-83-91.5-83-91.5V446.4z"/>
				</g>
				<g>
					<path class="st1" d="M1544.3,483.1c24.2,14.9,70.5,8.1,90.7,4c3.2-0.8,4-5.2,1.2-6.9c-65.7-37.9-91.9-100.4-91.9-100.4V483.1z"
						/>
				</g>
				<g>
					<path class="st1" d="M1544.3,523c28.2,17.3,82.2,9.3,105.2,4.8c3.6-0.8,4.4-5.6,1.2-7.7c-75.8-44.3-106.4-116.9-106.4-116.9
						V523z"/>
				</g>
				<g>
					<path class="st1" d="M1544.3,568.5c29.8,18.1,87.5,10.1,112.5,5.2c4.4-0.8,5.2-6.4,1.2-8.5c-81.4-47.2-114.1-125-114.1-125
						v128.2H1544.3z"/>
				</g>
				<g>
					<path class="st1" d="M1544.3,594.3c27,16.5,79.4,8.9,101.6,4.4c3.6-0.8,4.4-5.6,1.2-7.3c-73.4-42.3-102.8-112.1-102.8-112.1
						V594.3z"/>
				</g>
			</g>
		</g>
		<g>
			<g>
				<g>
					<path class="st1" d="M1683.4,368.2c-18.9,14.1-46,12.5-59.7,10.5c-3.2-0.4-4-4.8-1.6-6.9c43.5-29,61.3-76.2,61.3-76.2V368.2z"
						/>
				</g>
				<g>
					<path class="st1" d="M1683.4,409.7c-18.9,11.7-55.2,6.4-71.8,3.6c-3.2-0.4-3.6-4.4-1.2-6c52-30.6,73-80.2,73-80.2V409.7z"/>
				</g>
				<g>
					<path class="st1" d="M1683.4,446.4c-21.8,13.3-62.9,7.7-81.8,4c-3.6-0.8-4-5.2-1.2-6.9c59.3-34.7,83-91.5,83-91.5V446.4z"/>
				</g>
				<g>
					<path class="st1" d="M1683.4,483.1c-24.2,14.9-70.5,8.1-90.7,4c-3.2-0.8-4-5.2-1.2-6.9c65.7-37.9,91.9-100.4,91.9-100.4V483.1z
						"/>
				</g>
				<g>
					<path class="st1" d="M1683.4,523c-28.2,17.3-82.2,9.3-105.2,4.8c-3.6-0.8-4.4-5.6-1.2-7.7c76.2-43.9,106.4-116.5,106.4-116.5
						L1683.4,523L1683.4,523z"/>
				</g>
				<g>
					<path class="st1" d="M1683.4,568.5c-29.8,18.1-87.5,10.1-112.5,5.2c-4.4-0.8-5.2-6.4-1.2-8.5c81.4-47.2,114.1-125,114.1-125
						v128.2H1683.4z"/>
				</g>
				<g>
					<path class="st1" d="M1683.4,594.3c-27,16.5-79.4,8.9-101.6,4.4c-3.6-0.8-4.4-5.6-1.2-7.3c73.4-42.3,102.8-112.1,102.8-112.1
						V594.3z"/>
				</g>
			</g>
			<g>
				<g>
					<path class="st1" d="M1735.8,365.4l-2.4,14.1c-3.6,0.4-8.1,0.4-12.1,0.4c-8.1-0.4-16.9-1.6-25-4.8c-4.4-1.6-8.9-4-12.9-6.9V296
						C1683.4,296,1698.7,336.4,1735.8,365.4z"/>
				</g>
				<g>
					<path class="st1" d="M1728.1,413.7c0.8,0.8,1.6,1.6,2.8,2.4c-1.2,0-2,0-3.2,0.4c-7.7,0.4-15.3,0.4-22.6-0.4
						c-6.4-0.8-12.5-2-17.3-4.4c-1.6-0.4-2.8-1.2-4-2v-83c0,0,11.3,27,37.9,53.2c3.2,3.2,6.9,6.4,10.5,9.7L1728.1,413.7z"/>
				</g>
				<g>
					<path class="st1" d="M1730.5,416.6c-1.2,0-2,0-3.2,0.4l-3.6,22.6l-2.4,15.7c-2,0-4,0-6,0c-10.1-0.4-19.8-2.4-27.8-6
						c-1.6-0.8-2.8-1.2-4-2v-94.7c0,0,4,9.7,12.9,23.4c7.3,11.3,17.7,25,31.8,38.7C1728.9,415,1729.7,415.8,1730.5,416.6z"/>
				</g>
				<g>
					<path class="st1" d="M1724.1,439.1l-2.4,15.7l-0.8,6l-5.2,31h-0.4c-10.9-0.8-21.4-3.2-29.4-7.3c-0.8-0.4-1.6-0.8-2.4-1.2V380.3
						c0,0,6.4,15.7,21.4,36.3C1710.4,423.4,1716.4,431.5,1724.1,439.1z"/>
				</g>
				<g>
					<path class="st1" d="M1710.4,523.8c2,2.8,4.4,6,6.9,8.9c-2.8-0.4-5.6-0.8-8.1-1.2c-9.7-1.6-18.5-4.4-25.4-8.9V403.3
						c0,0,1.2,3.2,4,8.5c4.8,9.3,13.7,25,27.8,42.7c1.6,2,3.2,4,4.8,6l-5.2,31v0.4L1710.4,523.8z"/>
				</g>
				<g>
					<path class="st1" d="M1717.2,532.7c-2.8-0.4-5.6-0.8-8.1-1.2l-7.3,44.3c-6.9-1.6-12.9-4-18.1-7.3V440.4c0,0,1.2,3.2,4,8.5
						c4.8,9.3,13.7,25,27.4,43.1c0,0,0,0,0,0.4l-5.2,31.4C1712.4,526.6,1714.8,529.4,1717.2,532.7z"/>
				</g>
				<g>
					<path class="st1" d="M1717.2,532.7c-2.8-0.4-5.6-0.8-8.1-1.2l-7.3,44.3l-4,24.6c-5.2-1.6-10.1-3.6-14.1-6V479.5
						c0,0,0.8,1.6,2.4,4.8c3.6,7.3,11.7,22.2,24.6,39.1C1712.4,526.6,1714.8,529.4,1717.2,532.7z"/>
				</g>
			</g>
		</g>
		<g>
			<g>
				<g>
					<path class="st1" d="M325,337.2c-21.4,16.1-51.6,14.1-67.3,11.7c-3.6-0.4-4.8-5.2-1.6-7.7c49.2-32.7,68.9-85.5,68.9-85.5
						L325,337.2L325,337.2z"/>
				</g>
				<g>
					<path class="st1" d="M325,383.9c-21.4,12.9-62.1,7.3-80.6,4c-3.2-0.8-4-5.2-1.2-6.9c58.4-34.3,81.8-90.3,81.8-90.3V383.9z"/>
				</g>
				<g>
					<path class="st1" d="M325,425.4c-24.6,14.9-70.9,8.5-92.3,4.4c-4-0.8-4.8-6-1.2-8.1C297.9,382.7,325,319,325,319V425.4z"/>
				</g>
				<g>
					<path class="st1" d="M325,466.6c-27,16.5-79.4,8.9-102,4.4c-3.6-0.8-4.4-5.6-1.2-7.7C295.5,420.6,325,350.5,325,350.5V466.6z"
						/>
				</g>
				<g>
					<path class="st1" d="M325,510.9c-31.4,19.3-92.3,10.5-118.1,5.2c-4.4-0.8-5.2-6.4-1.2-8.5c85.5-49.2,119.7-130.6,119.7-130.6
						v133.8H325z"/>
				</g>
				<g>
					<path class="st1" d="M325,418.2v144.3c-6.4,4-14.5,6.9-23,8.9c-10.9,2.4-23,3.6-35.1,3.6c-11.7,0-23.4-0.8-33.9-1.6
						c-5.2-0.4-10.5-1.2-15.3-2c-3.6-0.4-6.9-1.2-10.1-1.6l-2.4-16.1c2.4-1.6,4.4-2.8,6.9-4.4c2-1.2,4-2.8,5.6-4
						c5.2-3.6,10.5-7.7,15.3-11.3c4.8-3.6,9.3-7.7,13.7-11.7c0.8-0.4,1.6-1.2,2-2c0.8-0.8,1.6-1.6,2.8-2.4
						c4.8-4.4,9.7-9.3,13.7-13.7c4.4-4.4,8.5-9.3,12.5-13.7c2.8-3.2,5.2-6.4,7.7-9.7c1.2-1.6,2.4-3.2,3.6-4.4
						c1.2-1.6,2.4-2.8,3.2-4.4c13.7-18.1,22.6-34.3,27.4-43.9C323.3,421.8,325,418.2,325,418.2z"/>
				</g>
				<g>
					<path class="st1" d="M325,462.1v129c-7.3,4.4-16.5,7.3-26.2,9.3c-27.4,4.8-60.5,0.8-81-2.8c-2-0.4-4-0.8-5.6-1.2l0,0
						c-0.4,0-0.8,0-1.2,0c-2-0.4-3.2-2-3.6-3.6c-0.4-1.6,0.4-3.6,2-4.4c0.4,0,0.8-0.4,1.2-0.4c2.4-1.6,4.8-2.8,7.3-4.4
						c5.2-3.2,10.5-6.9,15.3-10.5c6.4-4.8,12.9-9.7,18.5-14.9c1.2-0.8,2.4-2,3.2-2.8c4.8-4.4,9.3-8.5,13.7-12.9
						c6.4-6.4,12.5-13.3,17.7-19.8c0.4-0.4,0.4-0.4,0.8-0.8c2-2.4,4-4.8,6-7.3c2.4-3.2,4.8-6.4,6.9-9.3
						c11.7-16.5,18.9-30.2,22.6-37.5C323.7,464.1,325,462.1,325,462.1z"/>
				</g>
			</g>
			<g>
				<g>
					<path class="st1" d="M325,337.2c21.4,16.1,51.6,14.1,67.3,11.7c3.6-0.4,4.8-5.2,1.6-7.7c-49.2-32.7-68.9-85.5-68.9-85.5
						L325,337.2L325,337.2z"/>
				</g>
				<g>
					<path class="st1" d="M325,383.9c21.4,12.9,62.1,7.3,80.6,4c3.2-0.8,4-5.2,1.2-6.9c-58.4-34.3-81.8-90.3-81.8-90.3V383.9z"/>
				</g>
				<g>
					<path class="st1" d="M325,425.4c24.6,14.9,70.9,8.5,92.3,4.4c4-0.8,4.8-6,1.2-8.1C352,382.7,325,319,325,319V425.4z"/>
				</g>
				<g>
					<path class="st1" d="M325,466.6c27,16.5,79.4,8.9,102,4.4c3.6-0.8,4.4-5.6,1.2-7.7C354.4,420.6,325,350.5,325,350.5V466.6z"/>
				</g>
				<g>
					<path class="st1" d="M325,510.9c31.4,19.3,92.3,10.5,118.1,5.2c4.4-0.8,5.2-6.4,1.2-8.5c-85.5-49.2-119.7-130.6-119.7-130.6
						v133.8H325z"/>
				</g>
				<g>
					<path class="st1" d="M325,562.1c33.9,20.6,98.4,11.3,126.6,5.6c4.8-0.8,5.6-7.3,1.6-9.7C361.6,505.3,325,417.8,325,417.8
						L325,562.1L325,562.1z"/>
				</g>
				<g>
					<path class="st1" d="M325,591.5c30.6,18.5,89.1,9.7,114.1,4.8c4-0.8,4.8-6,1.2-8.1C358,540.7,325,462.1,325,462.1V591.5z"/>
				</g>
			</g>
		</g>
		<g>
			<g>
				<g>
					<g>
						<path class="st1" d="M748.2,198.5c-21.4,16.1-51.6,14.1-67.3,11.7c-3.6-0.4-4.8-5.2-1.6-7.7c49.2-32.7,68.9-85.5,68.9-85.5
							L748.2,198.5L748.2,198.5z"/>
					</g>
					<g>
						<path class="st1" d="M748.2,245.3c-21.4,12.9-62.1,7.3-80.6,4c-3.2-0.8-4-5.2-1.2-6.9c58.4-34.3,81.8-90.3,81.8-90.3V245.3z"
							/>
					</g>
					<g>
						<path class="st1" d="M748.2,286.4c-24.6,14.9-70.9,8.5-92.3,4.4c-4-0.8-4.8-6-1.2-8.1c66.5-39.1,93.5-102.8,93.5-102.8V286.4z
							"/>
					</g>
					<g>
						<path class="st1" d="M748.2,327.5c-27,16.5-79.4,8.9-102,4.4c-3.6-0.8-4.4-5.6-1.2-7.7c73.8-42.7,103.2-112.9,103.2-112.9
							V327.5z"/>
					</g>
					<g>
						<path class="st1" d="M748.2,372.2c-31.4,19.3-92.3,10.5-118.1,5.2c-4.4-0.8-5.2-6.4-1.2-8.5
							c85.5-49.2,119.7-130.6,119.7-130.6v133.8H748.2z"/>
					</g>
					<g>
						<path class="st1" d="M748.2,423.4c-33.9,20.6-98.4,11.3-126.6,5.6c-4.8-0.8-5.6-7.3-1.6-9.7
							c91.5-52.8,128.2-140.3,128.2-140.3L748.2,423.4L748.2,423.4z"/>
					</g>
					<g>
						<path class="st1" d="M748.2,452.8c-30.6,18.5-89.1,9.7-114.1,4.8c-4-0.8-4.8-6-1.2-8.1c82.2-47.6,115.3-126.2,115.3-126.2
							V452.8z"/>
					</g>
				</g>
				<g>
					<g>
						<path class="st1" d="M748.2,198.5c21.4,16.1,51.6,14.1,67.3,11.7c3.6-0.4,4.8-5.2,1.6-7.7c-49.2-32.7-68.9-85.5-68.9-85.5
							L748.2,198.5L748.2,198.5z"/>
					</g>
					<g>
						<path class="st1" d="M748.2,245.3c21.4,12.9,62.1,7.3,80.6,4c3.2-0.8,4-5.2,1.2-6.9c-58.4-34.3-81.8-90.3-81.8-90.3V245.3z"/>
					</g>
					<g>
						<path class="st1" d="M748.2,286.4c24.6,14.9,70.9,8.5,92.3,4.4c4-0.8,4.8-6,1.2-8.1C775.2,243.6,748.2,180,748.2,180V286.4z"
							/>
					</g>
					<g>
						<path class="st1" d="M748.2,327.5c27,16.5,79.4,8.9,102,4.4c3.6-0.8,4.4-5.6,1.2-7.7c-73.8-42.7-103.2-112.9-103.2-112.9
							V327.5z"/>
					</g>
					<g>
						<path class="st1" d="M748.2,372.2c31.4,19.3,92.3,10.5,118.1,5.2c4.4-0.8,5.2-6.4,1.2-8.5c-85.5-49.2-119.7-130.6-119.7-130.6
							v133.8H748.2z"/>
					</g>
					<g>
						<path class="st1" d="M748.2,423.4c33.9,20.6,98.4,11.3,126.6,5.6c4.8-0.8,5.6-7.3,1.6-9.7c-91.5-52.8-128.2-140.3-128.2-140.3
							L748.2,423.4L748.2,423.4z"/>
					</g>
					<g>
						<path class="st1" d="M748.2,452.8c30.6,18.5,89.1,9.7,114.1,4.8c4-0.8,4.8-6,1.2-8.1c-82.2-47.6-115.3-126.2-115.3-126.2
							V452.8z"/>
					</g>
				</g>
			</g>
			<g>
				<g>
					<g>
						<path class="st1" d="M748.2,336.4c-21.4,16.1-51.6,14.1-67.3,11.7c-3.6-0.4-4.8-5.2-1.6-7.7c49.2-32.7,68.9-85.5,68.9-85.5
							L748.2,336.4L748.2,336.4z"/>
					</g>
					<g>
						<path class="st1" d="M748.2,382.7c-21.4,12.9-62.1,7.3-80.6,4c-3.2-0.8-4-5.2-1.2-6.9c58.4-34.3,81.8-90.3,81.8-90.3V382.7z"
							/>
					</g>
					<g>
						<path class="st1" d="M748.2,424.2c-24.6,14.9-70.9,8.5-92.3,4.4c-4-0.8-4.8-6-1.2-8.1c66.5-39.1,93.5-102.8,93.5-102.8V424.2z
							"/>
					</g>
					<g>
						<path class="st1" d="M748.2,465.3c-27,16.5-79.4,8.9-102,4.4c-3.6-0.8-4.4-5.6-1.2-7.7c73.8-42.7,103.2-112.9,103.2-112.9
							V465.3z"/>
					</g>
					<g>
						<path class="st1" d="M748.2,510.1c-31.4,19.3-92.3,10.5-118.1,5.2c-4.4-0.8-5.2-6.4-1.2-8.5
							c85.5-49.2,119.7-130.6,119.7-130.6v133.8H748.2z"/>
					</g>
					<g>
						<path class="st1" d="M748.2,561.3c-33.9,20.6-98.4,11.3-126.6,5.6c-4.8-0.8-5.6-7.3-1.6-9.7C711.5,504.4,748.2,417,748.2,417
							L748.2,561.3L748.2,561.3z"/>
					</g>
					<g>
						<path class="st1" d="M748.2,590.3c-30.6,18.5-89.1,9.7-114.1,4.8c-4-0.8-4.8-6-1.2-8.1c82.2-47.6,115.3-126.2,115.3-126.2
							V590.3z"/>
					</g>
				</g>
				<g>
					<g>
						<path class="st1" d="M748.2,336.4c21.4,16.1,51.6,14.1,67.3,11.7c3.6-0.4,4.8-5.2,1.6-7.7c-49.2-32.7-68.9-85.5-68.9-85.5
							L748.2,336.4L748.2,336.4z"/>
					</g>
					<g>
						<path class="st1" d="M748.2,382.7c21.4,12.9,62.1,7.3,80.6,4c3.2-0.8,4-5.2,1.2-6.9c-58.4-34.3-81.8-90.3-81.8-90.3V382.7z"/>
					</g>
					<g>
						<path class="st1" d="M748.2,424.2c24.6,14.9,70.9,8.5,92.3,4.4c4-0.8,4.8-6,1.2-8.1c-66.5-39.1-93.5-102.8-93.5-102.8V424.2z"
							/>
					</g>
					<g>
						<path class="st1" d="M748.2,465.3c27,16.5,79.4,8.9,102,4.4c3.6-0.8,4.4-5.6,1.2-7.7c-73.8-42.7-103.2-112.9-103.2-112.9
							V465.3z"/>
					</g>
					<g>
						<path class="st1" d="M748.2,510.1c31.4,19.3,92.3,10.5,118.1,5.2c4.4-0.8,5.2-6.4,1.2-8.5c-85.5-49.2-119.7-130.6-119.7-130.6
							v133.8H748.2z"/>
					</g>
					<g>
						<path class="st1" d="M748.2,561.3c33.9,20.6,98.4,11.3,126.6,5.6c4.8-0.8,5.6-7.3,1.6-9.7C784.9,504.4,748.2,417,748.2,417
							L748.2,561.3L748.2,561.3z"/>
					</g>
					<g>
						<path class="st1" d="M748.2,590.3c30.6,18.5,89.1,9.7,114.1,4.8c4-0.8,4.8-6,1.2-8.1c-82.2-47.6-115.3-126.2-115.3-126.2
							V590.3z"/>
					</g>
				</g>
			</g>
		</g>
		<g>
			<g>
				<g>
					<g>
						<path class="st1" d="M1168.2,198.5c-21.4,16.1-51.6,14.1-67.3,11.7c-3.6-0.4-4.8-5.2-1.6-7.7c49.2-32.7,68.9-85.5,68.9-85.5
							L1168.2,198.5L1168.2,198.5z"/>
					</g>
					<g>
						<path class="st1" d="M1168.2,245.3c-21.4,12.9-62.1,7.3-80.6,4c-3.2-0.8-4-5.2-1.2-6.9c58.4-34.3,81.8-90.3,81.8-90.3V245.3z"
							/>
					</g>
					<g>
						<path class="st1" d="M1168.2,286.4c-24.6,14.9-70.9,8.5-92.3,4.4c-4-0.8-4.8-6-1.2-8.1c66.5-39.1,93.5-102.8,93.5-102.8V286.4
							z"/>
					</g>
					<g>
						<path class="st1" d="M1168.2,327.5c-27,16.5-79.4,8.9-102,4.4c-3.6-0.8-4.4-5.6-1.2-7.7c73.8-42.7,103.2-112.9,103.2-112.9
							V327.5z"/>
					</g>
					<g>
						<path class="st1" d="M1168.2,372.2c-31.4,19.3-92.3,10.5-118.1,5.2c-4.4-0.8-5.2-6.4-1.2-8.5
							c85.5-49.2,119.7-130.6,119.7-130.6v133.8H1168.2z"/>
					</g>
					<g>
						<path class="st1" d="M1168.2,423.4c-33.9,20.6-98.4,11.3-126.6,5.6c-4.8-0.8-5.6-7.3-1.6-9.7
							c91.5-52.8,128.2-140.3,128.2-140.3L1168.2,423.4L1168.2,423.4z"/>
					</g>
					<g>
						<path class="st1" d="M1168.2,452.8c-30.6,18.5-89.1,9.7-114.1,4.8c-4-0.8-4.8-6-1.2-8.1c82.2-47.6,115.3-126.2,115.3-126.2
							V452.8z"/>
					</g>
				</g>
				<g>
					<g>
						<path class="st1" d="M1168.2,198.5c21.4,16.1,51.6,14.1,67.3,11.7c3.6-0.4,4.8-5.2,1.6-7.7c-49.2-32.7-68.9-85.5-68.9-85.5
							L1168.2,198.5L1168.2,198.5z"/>
					</g>
					<g>
						<path class="st1" d="M1168.2,245.3c21.4,12.9,62.1,7.3,80.6,4c3.2-0.8,4-5.2,1.2-6.9c-58.4-34.3-81.8-90.3-81.8-90.3V245.3z"
							/>
					</g>
					<g>
						<path class="st1" d="M1168.2,286.4c24.6,14.9,70.9,8.5,92.3,4.4c4-0.8,4.8-6,1.2-8.1c-66.5-39.1-93.5-102.8-93.5-102.8V286.4z
							"/>
					</g>
					<g>
						<path class="st1" d="M1168.2,327.5c27,16.5,79.4,8.9,102,4.4c3.6-0.8,4.4-5.6,1.2-7.7c-73.8-42.7-103.2-112.9-103.2-112.9
							V327.5z"/>
					</g>
					<g>
						<path class="st1" d="M1168.2,372.2c31.4,19.3,92.3,10.5,118.1,5.2c4.4-0.8,5.2-6.4,1.2-8.5c-85.1-49.6-119.3-131-119.3-131
							V372.2z"/>
					</g>
					<g>
						<path class="st1" d="M1168.2,423.4c33.9,20.6,98.4,11.3,126.6,5.6c4.8-0.8,5.6-7.3,1.6-9.7
							c-91.5-52.8-128.2-140.3-128.2-140.3L1168.2,423.4L1168.2,423.4z"/>
					</g>
					<g>
						<path class="st1" d="M1168.2,452.8c30.6,18.5,89.1,9.7,114.1,4.8c4-0.8,4.8-6,1.2-8.1c-82.2-47.6-115.3-126.2-115.3-126.2
							V452.8z"/>
					</g>
				</g>
			</g>
			<g>
				<g>
					<g>
						<path class="st1" d="M1168.2,336.4c-21.4,16.1-51.6,14.1-67.3,11.7c-3.6-0.4-4.8-5.2-1.6-7.7c49.2-32.7,68.9-85.5,68.9-85.5
							L1168.2,336.4L1168.2,336.4z"/>
					</g>
					<g>
						<path class="st1" d="M1168.2,382.7c-21.4,12.9-62.1,7.3-80.6,4c-3.2-0.8-4-5.2-1.2-6.9c58.4-34.3,81.8-90.3,81.8-90.3V382.7z"
							/>
					</g>
					<g>
						<path class="st1" d="M1168.2,424.2c-24.6,14.9-70.9,8.5-92.3,4.4c-4-0.8-4.8-6-1.2-8.1c66.5-39.1,93.5-102.8,93.5-102.8V424.2
							z"/>
					</g>
					<g>
						<path class="st1" d="M1168.2,465.3c-27,16.5-79.4,8.9-102,4.4c-3.6-0.8-4.4-5.6-1.2-7.7c73.8-42.7,103.2-112.9,103.2-112.9
							V465.3z"/>
					</g>
					<g>
						<path class="st1" d="M1168.2,510.1c-31.4,19.3-92.3,10.5-118.1,5.2c-4.4-0.8-5.2-6.4-1.2-8.5
							c85.5-49.2,119.7-130.6,119.7-130.6v133.8H1168.2z"/>
					</g>
					<g>
						<path class="st1" d="M1168.2,561.3c-33.9,20.6-98.4,11.3-126.6,5.6c-4.8-0.8-5.6-7.3-1.6-9.7
							c91.5-52.8,128.2-140.3,128.2-140.3L1168.2,561.3L1168.2,561.3z"/>
					</g>
					<g>
						<path class="st1" d="M1168.2,590.3c-30.6,18.5-89.1,9.7-114.1,4.8c-4-0.8-4.8-6-1.2-8.1c82.2-47.6,115.3-126.2,115.3-126.2
							V590.3z"/>
					</g>
				</g>
				<g>
					<g>
						<path class="st1" d="M1168.2,336.4c21.4,16.1,51.6,14.1,67.3,11.7c3.6-0.4,4.8-5.2,1.6-7.7c-49.2-32.7-68.9-85.5-68.9-85.5
							L1168.2,336.4L1168.2,336.4z"/>
					</g>
					<g>
						<path class="st1" d="M1168.2,382.7c21.4,12.9,62.1,7.3,80.6,4c3.2-0.8,4-5.2,1.2-6.9c-58.4-34.3-81.8-90.3-81.8-90.3V382.7z"
							/>
					</g>
					<g>
						<path class="st1" d="M1168.2,424.2c24.6,14.9,70.9,8.5,92.3,4.4c4-0.8,4.8-6,1.2-8.1c-66.5-39.1-93.5-102.8-93.5-102.8V424.2z
							"/>
					</g>
					<g>
						<path class="st1" d="M1168.2,465.3c27,16.5,79.4,8.9,102,4.4c3.6-0.8,4.4-5.6,1.2-7.7c-73.8-42.7-103.2-112.9-103.2-112.9
							V465.3z"/>
					</g>
					<g>
						<path class="st1" d="M1168.2,510.1c31.4,19.3,92.3,10.5,118.1,5.2c4.4-0.8,5.2-6.4,1.2-8.5
							c-85.5-49.2-119.7-130.6-119.7-130.6v133.8H1168.2z"/>
					</g>
					<g>
						<path class="st1" d="M1168.2,561.3c33.9,20.6,98.4,11.3,126.6,5.6c4.8-0.8,5.6-7.3,1.6-9.7
							c-91.5-52.8-128.2-140.3-128.2-140.3L1168.2,561.3L1168.2,561.3z"/>
					</g>
					<g>
						<path class="st1" d="M1168.2,590.3c30.6,18.5,89.1,9.7,114.1,4.8c4-0.8,4.8-6,1.2-8.1c-82.2-47.6-115.3-126.2-115.3-126.2
							V590.3z"/>
					</g>
				</g>
			</g>
		</g>
		<g>
			<g>
				<g>
					<path class="st1" d="M577.3,300.1c-24.2,18.1-58.9,16.1-76.6,13.3c-4.4-0.8-5.2-6-2-8.5c56-37.5,78.6-97.1,78.6-97.1V300.1z"/>
				</g>
				<g>
					<path class="st1" d="M577.3,353.3c-24.2,14.9-70.5,8.5-91.9,4.4c-4-0.8-4.8-6-1.2-8.1c66.5-39.1,93.5-102.8,93.5-102.8v106.4
						H577.3z"/>
				</g>
				<g>
					<path class="st1" d="M577.3,400.4c-27.8,16.9-80.6,9.7-104.8,5.2c-4.4-0.8-5.2-6.9-1.6-8.9c76.2-44.3,106.4-117.3,106.4-117.3
						V400.4z"/>
				</g>
				<g>
					<path class="st1" d="M577.3,447.2c-31,18.9-90.3,10.1-116.1,5.2c-4.4-0.8-5.2-6.4-1.6-8.9C543.4,395.2,577.3,315,577.3,315
						V447.2z"/>
				</g>
				<g>
					<path class="st1" d="M577.3,498c-35.9,21.8-105.2,11.7-134.6,6c-4.8-0.8-6-7.3-1.6-9.7c97.1-56,136.2-148.7,136.2-148.7
						L577.3,498L577.3,498z"/>
				</g>
				<g>
					<path class="st1" d="M577.3,556.4c-38.3,23.4-112.1,12.9-144.3,6.4c-5.2-1.2-6.4-8.1-1.6-10.9
						c104-60.5,145.9-159.6,145.9-159.6V556.4z"/>
				</g>
				<g>
					<path class="st1" d="M577.3,589.9c-34.7,21.4-101.6,11.3-129.8,5.6c-4.4-0.8-5.6-6.9-1.6-9.3c93.9-54,131.4-143.5,131.4-143.5
						L577.3,589.9L577.3,589.9z"/>
				</g>
			</g>
			<g>
				<g>
					<path class="st1" d="M577.3,300.1c24.2,18.1,58.9,16.1,76.6,13.3c4.4-0.8,5.2-6,2-8.5c-56-37.5-78.6-97.1-78.6-97.1V300.1z"/>
				</g>
				<g>
					<path class="st1" d="M577.3,353.3c24.2,14.9,70.5,8.5,91.9,4.4c4-0.8,4.8-6,1.2-8.1c-66.5-39.1-93.5-102.8-93.5-102.8v106.4
						H577.3z"/>
				</g>
				<g>
					<path class="st1" d="M577.3,400.4c27.8,16.9,80.6,9.7,104.8,5.2c4.4-0.8,5.2-6.9,1.6-8.9c-76.2-44.3-106.4-117.3-106.4-117.3
						V400.4z"/>
				</g>
				<g>
					<path class="st1" d="M577.3,447.2c31,18.9,90.3,10.1,116.1,5.2c4.4-0.8,5.2-6.4,1.6-8.9C611.1,395.2,577.3,315,577.3,315V447.2
						z"/>
				</g>
				<g>
					<path class="st1" d="M577.3,498c35.9,21.8,105.2,11.7,134.6,6c4.8-0.8,6-7.3,1.6-9.7c-97.1-56-136.2-148.7-136.2-148.7
						L577.3,498L577.3,498z"/>
				</g>
				<g>
					<path class="st1" d="M577.3,556.4c38.3,23.4,112.1,12.9,144.3,6.4c5.2-1.2,6.4-8.1,1.6-10.9c-104-60.5-145.9-159.6-145.9-159.6
						V556.4z"/>
				</g>
				<g>
					<path class="st1" d="M577.3,589.9c34.7,21.4,101.6,11.3,129.8,5.6c4.4-0.8,5.6-6.9,1.6-9.3c-93.9-54-131.4-143.5-131.4-143.5
						L577.3,589.9L577.3,589.9z"/>
				</g>
			</g>
		</g>
		<g>
			<g>
				<g>
					<path class="st1" d="M1415.7,341.6c-21,15.7-50.8,13.7-66.1,11.3c-3.6-0.4-4.8-5.2-1.6-7.3c48.4-32.2,67.7-83.8,67.7-83.8
						L1415.7,341.6L1415.7,341.6z"/>
				</g>
				<g>
					<path class="st1" d="M1415.7,387.1c-21,12.9-61.3,7.3-79.4,3.6c-3.2-0.8-4-5.2-1.2-6.9c57.6-33.9,80.6-88.7,80.6-88.7V387.1z"
						/>
				</g>
				<g>
					<path class="st1" d="M1415.7,428.3c-24.2,14.5-69.7,8.5-90.7,4.4c-4-0.8-4.8-5.6-1.2-7.7c65.7-38.3,91.9-101.2,91.9-101.2
						V428.3z"/>
				</g>
				<g>
					<path class="st1" d="M1415.7,468.6c-26.6,16.1-78.2,8.9-100.4,4.4c-3.6-0.8-4.4-5.6-1.2-7.7c72.6-41.9,101.6-110.8,101.6-110.8
						V468.6z"/>
				</g>
				<g>
					<path class="st1" d="M1415.7,512.5c-31,18.9-90.7,10.1-116.5,5.2c-4-0.8-5.2-6.4-1.2-8.5c83.8-48.4,117.7-128.6,117.7-128.6
						V512.5z"/>
				</g>
				<g>
					<path class="st1" d="M1415.7,562.9c-33.1,20.2-96.7,10.9-124.6,5.6c-4.8-0.8-5.6-7.3-1.6-9.7c89.9-52,126.2-137.9,126.2-137.9
						L1415.7,562.9L1415.7,562.9z"/>
				</g>
				<g>
					<path class="st1" d="M1415.7,591.5c-29.8,18.1-87.9,9.7-112.5,4.8c-4-0.8-4.8-6-1.2-8.1c81-46.8,113.7-124.2,113.7-124.2V591.5
						z"/>
				</g>
			</g>
			<g>
				<g>
					<path class="st1" d="M1415.7,341.6c21,15.7,50.8,13.7,66.1,11.3c3.6-0.4,4.8-5.2,1.6-7.3c-48.4-32.2-67.7-83.8-67.7-83.8
						L1415.7,341.6L1415.7,341.6z"/>
				</g>
				<g>
					<path class="st1" d="M1415.7,387.1c21,12.9,61.3,7.3,79.4,3.6c3.2-0.8,4-5.2,1.2-6.9c-57.6-33.9-80.6-88.7-80.6-88.7V387.1z"/>
				</g>
				<g>
					<path class="st1" d="M1415.7,428.3c24.2,14.5,69.7,8.5,90.7,4.4c4-0.8,4.8-5.6,1.2-7.7c-65.7-38.3-91.9-101.2-91.9-101.2V428.3
						z"/>
				</g>
				<g>
					<path class="st1" d="M1415.7,468.6c26.6,16.1,78.2,8.9,100.4,4.4c3.6-0.8,4.4-5.6,1.2-7.7c-72.6-41.9-101.6-110.8-101.6-110.8
						V468.6z"/>
				</g>
				<g>
					<path class="st1" d="M1415.7,512.5c31,18.9,90.7,10.1,116.5,5.2c4-0.8,5.2-6.4,1.2-8.5c-83.8-48.4-117.7-128.6-117.7-128.6
						V512.5z"/>
				</g>
				<g>
					<path class="st1" d="M1415.7,562.9c33.1,20.2,96.7,10.9,124.6,5.6c4.8-0.8,5.6-7.3,1.6-9.7c-89.9-52-126.2-137.9-126.2-137.9
						L1415.7,562.9L1415.7,562.9z"/>
				</g>
				<g>
					<path class="st1" d="M1415.7,591.5c29.8,18.1,87.9,9.7,112.5,4.8c4-0.8,4.8-6,1.2-8.1c-81-46.8-113.7-124.2-113.7-124.2V591.5z
						"/>
				</g>
			</g>
		</g>
		<g>
			<g>
				<g>
					<path class="st1" d="M1019.1,300.1c-24.2,18.1-58.9,16.1-76.6,13.3c-4.4-0.8-5.2-6-2-8.5c56-37.5,78.6-97.1,78.6-97.1V300.1z"
						/>
				</g>
				<g>
					<path class="st1" d="M1019.1,353.3c-24.2,14.9-70.5,8.5-91.9,4.4c-4-0.8-4.8-6-1.2-8.1c66.5-39.1,93.5-102.8,93.5-102.8v106.4
						H1019.1z"/>
				</g>
				<g>
					<path class="st1" d="M1019.1,400.4c-27.8,16.9-80.6,9.7-104.8,5.2c-4.4-0.8-5.2-6.9-1.6-8.9c76.2-44.3,106.4-117.3,106.4-117.3
						V400.4z"/>
				</g>
				<g>
					<path class="st1" d="M1019.1,447.2c-31,18.9-90.3,10.1-116.1,5.2c-4.4-0.8-5.2-6.4-1.6-8.9c83.8-48.4,117.7-128.6,117.7-128.6
						V447.2z"/>
				</g>
				<g>
					<path class="st1" d="M1019.1,498c-35.9,21.8-105.2,11.7-134.6,6c-4.8-0.8-6-7.3-1.6-9.7c97.1-56,136.2-148.7,136.2-148.7
						L1019.1,498L1019.1,498z"/>
				</g>
				<g>
					<path class="st1" d="M1019.1,556.4c-38.3,23.4-112.1,12.9-144.3,6.4c-5.2-1.2-6.4-8.1-1.6-10.9
						c104-60.5,145.9-159.6,145.9-159.6V556.4z"/>
				</g>
				<g>
					<path class="st1" d="M1019.1,589.9c-34.7,21.4-101.6,11.3-129.8,5.6c-4.4-0.8-5.6-6.9-1.6-9.3c93.9-54,131.4-143.5,131.4-143.5
						L1019.1,589.9L1019.1,589.9z"/>
				</g>
			</g>
			<g>
				<g>
					<path class="st1" d="M1019.1,300.1c24.2,18.1,58.9,16.1,76.6,13.3c4.4-0.8,5.2-6,2-8.5c-56-37.5-78.6-97.1-78.6-97.1V300.1z"/>
				</g>
				<g>
					<path class="st1" d="M1019.1,353.3c24.2,14.9,70.5,8.5,91.9,4.4c4-0.8,4.8-6,1.2-8.1c-66.5-39.1-93.5-102.8-93.5-102.8v106.4
						H1019.1z"/>
				</g>
				<g>
					<path class="st1" d="M1019.1,400.4c27.8,16.9,80.6,9.7,104.8,5.2c4.4-0.8,5.2-6.9,1.6-8.9c-76.2-44.3-106.4-117.3-106.4-117.3
						V400.4z"/>
				</g>
				<g>
					<path class="st1" d="M1019.1,447.2c31,18.9,90.3,10.1,116.1,5.2c4.4-0.8,5.2-6.4,1.6-8.9c-83.8-48.4-117.7-128.6-117.7-128.6
						V447.2z"/>
				</g>
				<g>
					<path class="st1" d="M1019.1,498c35.9,21.8,105.2,11.7,134.6,6c4.8-0.8,6-7.3,1.6-9.7c-97.1-56-136.2-148.7-136.2-148.7
						L1019.1,498L1019.1,498z"/>
				</g>
				<g>
					<path class="st1" d="M1019.1,556.4c38.3,23.4,112.1,12.9,144.3,6.4c5.2-1.2,6.4-8.1,1.6-10.9
						c-104-60.5-145.9-159.6-145.9-159.6V556.4z"/>
				</g>
				<g>
					<path class="st1" d="M1019.1,589.9c34.7,21.4,101.6,11.3,129.8,5.6c4.4-0.8,5.6-6.9,1.6-9.3c-93.9-54-131.4-143.5-131.4-143.5
						L1019.1,589.9L1019.1,589.9z"/>
				</g>
			</g>
		</g>
	</g>
	<g>
		<path class="st1" d="M203.2,541.9l65.3,401.5c2.4,15.3,14.1,27.8,29.4,31.4l602.6,135.8c36.3,8.1,73.8,8.1,109.6,0l602.6-135.8
			c15.3-3.6,27-15.7,29.4-31.4l65.3-401.5L203.2,541.9L203.2,541.9z"/>
	</g>
	<g>
		<path class="st2" d="M297.9,974.9l602.6,135.8c36.3,8.1,73.8,8.1,109.6,0l602.6-135.8c15.3-3.6,27-15.7,29.4-31.4l36.7-226.9
			H231.4l36.7,226.9C270.9,959.1,282.6,971.6,297.9,974.9z"/>
	</g>
	<line class="st3" x1="636.9" y1="974.9" x2="1273.4" y2="974.9"/>
	<line class="st3" x1="771.2" y1="1038.1" x2="1139.2" y2="1038.1"/>
	<g>
		<polygon class="st1" points="1512.9,787.4 1526.6,815.2 1557.2,819.7 1535,841 1540.3,871.7 1512.9,857.1 1485.5,871.7 
			1490.7,841 1468.9,819.7 1499.2,815.2 		"/>
	</g>
	<g>
		<polygon class="st1" points="397.1,787.4 383.8,815.2 353.2,819.7 375.3,841 370.1,871.7 397.1,857.1 424.5,871.7 419.3,841 
			441.4,819.7 410.8,815.2 		"/>
	</g>
	<g>
		<text transform="matrix(1 0 0 1 444.1938 651.1055)" class="st4 st5 st6">PACK 160</text>
	</g>
	<text transform="matrix(1 0 0 1 512.3486 840.5596)" class="st1 st5 st7">SOUTH FLORIDA</text>
	<text transform="matrix(1 0 0 1 728.167 935.2861)" class="st1 st5 st8">CUB SCOUTS</text>
</g>
</svg>
